# floorplan3d
mtllib Screenshot 2026-10-06 at 14-41-39 Beautiful 2D Floor Plan Ideas To see more Read it👇_3d.mtl

o wall_W1_0
usemtl material_0
v 6.03900000 0.00000000 0.00050000
v 6.03900000 0.00000000 0.09750000
v 6.03900000 0.90000000 0.00050000
v 6.03900000 0.90000000 0.09750000
v 8.18200000 0.00000000 0.00050000
v 8.18200000 0.00000000 0.09750000
v 8.18200000 0.90000000 0.00050000
v 8.18200000 0.90000000 0.09750000
f 2 4 1
f 5 2 1
f 1 4 3
f 3 5 1
f 2 8 4
f 6 2 5
f 6 8 2
f 4 8 3
f 7 5 3
f 3 8 7
f 7 6 5
f 8 6 7

o wall_W1_1
usemtl material_0
v 6.03900000 2.10000000 0.00050000
v 6.03900000 2.10000000 0.09750000
v 6.03900000 2.75000000 0.00050000
v 6.03900000 2.75000000 0.09750000
v 8.18200000 2.10000000 0.00050000
v 8.18200000 2.10000000 0.09750000
v 8.18200000 2.75000000 0.00050000
v 8.18200000 2.75000000 0.09750000
f 10 12 9
f 13 10 9
f 9 12 11
f 11 13 9
f 10 16 12
f 14 10 13
f 14 16 10
f 12 16 11
f 15 13 11
f 11 16 15
f 15 14 13
f 16 14 15

o wall_W2_2
usemtl material_0
v 16.55800000 0.00000000 0.00050000
v 16.55800000 0.00000000 0.09750000
v 16.55800000 0.90000000 0.00050000
v 16.55800000 0.90000000 0.09750000
v 18.40900000 0.00000000 0.00050000
v 18.40900000 0.00000000 0.09750000
v 18.40900000 0.90000000 0.00050000
v 18.40900000 0.90000000 0.09750000
f 18 20 17
f 21 18 17
f 17 20 19
f 19 21 17
f 18 24 20
f 22 18 21
f 22 24 18
f 20 24 19
f 23 21 19
f 19 24 23
f 23 22 21
f 24 22 23

o wall_W2_3
usemtl material_0
v 16.55800000 2.10000000 0.00050000
v 16.55800000 2.10000000 0.09750000
v 16.55800000 2.75000000 0.00050000
v 16.55800000 2.75000000 0.09750000
v 18.40900000 2.10000000 0.00050000
v 18.40900000 2.10000000 0.09750000
v 18.40900000 2.75000000 0.00050000
v 18.40900000 2.75000000 0.09750000
f 26 28 25
f 29 26 25
f 25 28 27
f 27 29 25
f 26 32 28
f 30 26 29
f 30 32 26
f 28 32 27
f 31 29 27
f 27 32 31
f 31 30 29
f 32 30 31

o wall_W3_4
usemtl material_0
v 0.29200000 0.00000000 0.87650000
v 0.29200000 0.00000000 1.07150000
v 0.29200000 2.75000000 0.87650000
v 0.29200000 2.75000000 1.07150000
v 5.45400000 0.00000000 0.87650000
v 5.45400000 0.00000000 1.07150000
v 5.45400000 2.75000000 0.87650000
v 5.45400000 2.75000000 1.07150000
f 34 36 33
f 37 34 33
f 33 36 35
f 35 37 33
f 34 40 36
f 38 34 37
f 38 40 34
f 36 40 35
f 39 37 35
f 35 40 39
f 39 38 37
f 40 38 39

o wall_W4_5
usemtl material_0
v 5.45500000 0.00000000 0.87650000
v 5.45500000 0.00000000 1.07150000
v 5.45500000 2.75000000 0.87650000
v 5.45500000 2.75000000 1.07150000
v 9.74100000 0.00000000 0.87650000
v 9.74100000 0.00000000 1.07150000
v 9.74100000 2.75000000 0.87650000
v 9.74100000 2.75000000 1.07150000
f 42 44 41
f 45 42 41
f 41 44 43
f 43 45 41
f 42 48 44
f 46 42 45
f 46 48 42
f 44 48 43
f 47 45 43
f 43 48 47
f 47 46 45
f 48 46 47

o wall_W5_6
usemtl material_0
v 9.74000000 0.00000000 0.87650000
v 9.74000000 0.00000000 1.07150000
v 9.74000000 2.75000000 0.87650000
v 9.74000000 2.75000000 1.07150000
v 11.59100000 0.00000000 0.87650000
v 11.59100000 0.00000000 1.07150000
v 11.59100000 2.75000000 0.87650000
v 11.59100000 2.75000000 1.07150000
f 50 52 49
f 53 50 49
f 49 52 51
f 51 53 49
f 50 56 52
f 54 50 53
f 54 56 50
f 52 56 51
f 55 53 51
f 51 56 55
f 55 54 53
f 56 54 55

o wall_W5_7
usemtl material_0
v 11.59100000 2.10000000 0.87650000
v 11.59100000 2.10000000 1.07150000
v 11.59100000 2.75000000 0.87650000
v 11.59100000 2.75000000 1.07150000
v 13.29500000 2.10000000 0.87650000
v 13.29500000 2.10000000 1.07150000
v 13.29500000 2.75000000 0.87650000
v 13.29500000 2.75000000 1.07150000
f 58 60 57
f 61 58 57
f 57 60 59
f 59 61 57
f 58 64 60
f 62 58 61
f 62 64 58
f 60 64 59
f 63 61 59
f 59 64 63
f 63 62 61
f 64 62 63

o wall_W6_8
usemtl material_0
v 13.29500000 0.00000000 0.87650000
v 13.29500000 0.00000000 1.07150000
v 13.29500000 2.75000000 0.87650000
v 13.29500000 2.75000000 1.07150000
v 19.38300000 0.00000000 0.87650000
v 19.38300000 0.00000000 1.07150000
v 19.38300000 2.75000000 0.87650000
v 19.38300000 2.75000000 1.07150000
f 66 68 65
f 69 66 65
f 65 68 67
f 67 69 65
f 66 72 68
f 70 66 69
f 70 72 66
f 68 72 67
f 71 69 67
f 67 72 71
f 71 70 69
f 72 70 71

o wall_W7_9
usemtl material_0
v 0.77900000 0.00000000 5.84450000
v 0.77900000 0.00000000 5.94150000
v 0.77900000 2.75000000 5.84450000
v 0.77900000 2.75000000 5.94150000
v 1.65600000 0.00000000 5.84450000
v 1.65600000 0.00000000 5.94150000
v 1.65600000 2.75000000 5.84450000
v 1.65600000 2.75000000 5.94150000
f 74 76 73
f 77 74 73
f 73 76 75
f 75 77 73
f 74 80 76
f 78 74 77
f 78 80 74
f 76 80 75
f 79 77 75
f 75 80 79
f 79 78 77
f 80 78 79

o wall_W8_10
usemtl material_0
v 15.00000000 0.00000000 5.94150000
v 15.00000000 0.00000000 6.03850000
v 15.00000000 0.90000000 5.94150000
v 15.00000000 0.90000000 6.03850000
v 17.04500000 0.00000000 5.94150000
v 17.04500000 0.00000000 6.03850000
v 17.04500000 0.90000000 5.94150000
v 17.04500000 0.90000000 6.03850000
f 82 84 81
f 85 82 81
f 81 84 83
f 83 85 81
f 82 88 84
f 86 82 85
f 86 88 82
f 84 88 83
f 87 85 83
f 83 88 87
f 87 86 85
f 88 86 87

o wall_W8_11
usemtl material_0
v 15.00000000 2.10000000 5.94150000
v 15.00000000 2.10000000 6.03850000
v 15.00000000 2.75000000 5.94150000
v 15.00000000 2.75000000 6.03850000
v 17.04500000 2.10000000 5.94150000
v 17.04500000 2.10000000 6.03850000
v 17.04500000 2.75000000 5.94150000
v 17.04500000 2.75000000 6.03850000
f 90 92 89
f 93 90 89
f 89 92 91
f 91 93 89
f 90 96 92
f 94 90 93
f 94 96 90
f 92 96 91
f 95 93 91
f 91 96 95
f 95 94 93
f 96 94 95

o wall_W9_12
usemtl material_0
v 8.32800000 0.00000000 6.42900000
v 8.32800000 0.00000000 6.72100000
v 8.32800000 2.75000000 6.42900000
v 8.32800000 2.75000000 6.72100000
v 9.74000000 0.00000000 6.42900000
v 9.74000000 0.00000000 6.72100000
v 9.74000000 2.75000000 6.42900000
v 9.74000000 2.75000000 6.72100000
f 98 100 97
f 101 98 97
f 97 100 99
f 99 101 97
f 98 104 100
f 102 98 101
f 102 104 98
f 100 104 99
f 103 101 99
f 99 104 103
f 103 102 101
f 104 102 103

o wall_W10_13
usemtl material_0
v 9.74000000 0.00000000 6.42900000
v 9.74000000 0.00000000 6.72100000
v 9.74000000 2.75000000 6.42900000
v 9.74000000 2.75000000 6.72100000
v 11.15200000 0.00000000 6.42900000
v 11.15200000 0.00000000 6.72100000
v 11.15200000 2.75000000 6.42900000
v 11.15200000 2.75000000 6.72100000
f 106 108 105
f 109 106 105
f 105 108 107
f 107 109 105
f 106 112 108
f 110 106 109
f 110 112 106
f 108 112 107
f 111 109 107
f 107 112 111
f 111 110 109
f 112 110 111

o wall_W11_14
usemtl material_0
v 1.65600000 0.00000000 6.96450000
v 1.65600000 0.00000000 7.06150000
v 1.65600000 2.75000000 6.96450000
v 1.65600000 2.75000000 7.06150000
v 2.53300000 0.00000000 6.96450000
v 2.53300000 0.00000000 7.06150000
v 2.53300000 2.75000000 6.96450000
v 2.53300000 2.75000000 7.06150000
f 114 116 113
f 117 114 113
f 113 116 115
f 115 117 113
f 114 120 116
f 118 114 117
f 118 120 114
f 116 120 115
f 119 117 115
f 115 120 119
f 119 118 117
f 120 118 119

o wall_W12_15
usemtl material_0
v 11.15300000 0.00000000 8.71750000
v 11.15300000 0.00000000 9.20450000
v 11.15300000 2.75000000 8.71750000
v 11.15300000 2.75000000 9.20450000
v 13.10100000 0.00000000 8.71750000
v 13.10100000 0.00000000 9.20450000
v 13.10100000 2.75000000 8.71750000
v 13.10100000 2.75000000 9.20450000
f 122 124 121
f 125 122 121
f 121 124 123
f 123 125 121
f 122 128 124
f 126 122 125
f 126 128 122
f 124 128 123
f 127 125 123
f 123 128 127
f 127 126 125
f 128 126 127

o wall_W13_16
usemtl material_0
v 13.10100000 0.00000000 8.71750000
v 13.10100000 0.00000000 9.20450000
v 13.10100000 2.75000000 8.71750000
v 13.10100000 2.75000000 9.20450000
v 17.33800000 0.00000000 8.71750000
v 17.33800000 0.00000000 9.20450000
v 17.33800000 2.75000000 8.71750000
v 17.33800000 2.75000000 9.20450000
f 130 132 129
f 133 130 129
f 129 132 131
f 131 133 129
f 130 136 132
f 134 130 133
f 134 136 130
f 132 136 131
f 135 133 131
f 131 136 135
f 135 134 133
f 136 134 135

o wall_W14_17
usemtl material_0
v 5.40600000 0.00000000 8.88800000
v 5.40600000 0.00000000 9.13200000
v 5.40600000 2.75000000 8.88800000
v 5.40600000 2.75000000 9.13200000
v 6.33100000 0.00000000 8.88800000
v 6.33100000 0.00000000 9.13200000
v 6.33100000 2.75000000 8.88800000
v 6.33100000 2.75000000 9.13200000
f 138 140 137
f 141 138 137
f 137 140 139
f 139 141 137
f 138 144 140
f 142 138 141
f 142 144 138
f 140 144 139
f 143 141 139
f 139 144 143
f 143 142 141
f 144 142 143

o wall_W15_18
usemtl material_0
v 6.91600000 0.00000000 11.05550000
v 6.91600000 0.00000000 11.25050000
v 6.91600000 2.75000000 11.05550000
v 6.91600000 2.75000000 11.25050000
v 8.32800000 0.00000000 11.05550000
v 8.32800000 0.00000000 11.25050000
v 8.32800000 2.75000000 11.05550000
v 8.32800000 2.75000000 11.25050000
f 146 148 145
f 149 146 145
f 145 148 147
f 147 149 145
f 146 152 148
f 150 146 149
f 150 152 146
f 148 152 147
f 151 149 147
f 147 152 151
f 151 150 149
f 152 150 151

o wall_W16_19
usemtl material_0
v 0.34100000 0.00000000 11.15250000
v 0.34100000 0.00000000 11.34750000
v 0.34100000 2.75000000 11.15250000
v 0.34100000 2.75000000 11.34750000
v 2.43500000 0.00000000 11.15250000
v 2.43500000 0.00000000 11.34750000
v 2.43500000 2.75000000 11.15250000
v 2.43500000 2.75000000 11.34750000
f 154 156 153
f 157 154 153
f 153 156 155
f 155 157 153
f 154 160 156
f 158 154 157
f 158 160 154
f 156 160 155
f 159 157 155
f 155 160 159
f 159 158 157
f 160 158 159

o wall_W17_20
usemtl material_0
v 11.20100000 0.00000000 12.27300000
v 11.20100000 0.00000000 12.56500000
v 11.20100000 2.75000000 12.27300000
v 11.20100000 2.75000000 12.56500000
v 13.10000000 0.00000000 12.27300000
v 13.10000000 0.00000000 12.56500000
v 13.10000000 2.75000000 12.27300000
v 13.10000000 2.75000000 12.56500000
f 162 164 161
f 165 162 161
f 161 164 163
f 163 165 161
f 162 168 164
f 166 162 165
f 166 168 162
f 164 168 163
f 167 165 163
f 163 168 167
f 167 166 165
f 168 166 167

o wall_W18_21
usemtl material_0
v 13.10100000 0.00000000 12.27300000
v 13.10100000 0.00000000 12.56500000
v 13.10100000 2.75000000 12.27300000
v 13.10100000 2.75000000 12.56500000
v 16.16900000 0.00000000 12.27300000
v 16.16900000 0.00000000 12.56500000
v 16.16900000 2.75000000 12.27300000
v 16.16900000 2.75000000 12.56500000
f 170 172 169
f 173 170 169
f 169 172 171
f 171 173 169
f 170 176 172
f 174 170 173
f 174 176 170
f 172 176 171
f 175 173 171
f 171 176 175
f 175 174 173
f 176 174 175

o wall_W18_22
usemtl material_0
v 16.16900000 2.10000000 12.27300000
v 16.16900000 2.10000000 12.56500000
v 16.16900000 2.75000000 12.27300000
v 16.16900000 2.75000000 12.56500000
v 16.55900000 2.10000000 12.27300000
v 16.55900000 2.10000000 12.56500000
v 16.55900000 2.75000000 12.27300000
v 16.55900000 2.75000000 12.56500000
f 178 180 177
f 181 178 177
f 177 180 179
f 179 181 177
f 178 184 180
f 182 178 181
f 182 184 178
f 180 184 179
f 183 181 179
f 179 184 183
f 183 182 181
f 184 182 183

o wall_W18_23
usemtl material_0
v 16.55900000 0.00000000 12.27300000
v 16.55900000 0.00000000 12.56500000
v 16.55900000 2.75000000 12.27300000
v 16.55900000 2.75000000 12.56500000
v 18.89600000 0.00000000 12.27300000
v 18.89600000 0.00000000 12.56500000
v 18.89600000 2.75000000 12.27300000
v 18.89600000 2.75000000 12.56500000
f 186 188 185
f 189 186 185
f 185 188 187
f 187 189 185
f 186 192 188
f 190 186 189
f 190 192 186
f 188 192 187
f 191 189 187
f 187 192 191
f 191 190 189
f 192 190 191

o wall_W19_24
usemtl material_0
v 12.76000000 0.00000000 13.87950000
v 12.76000000 0.00000000 14.07450000
v 12.76000000 2.75000000 13.87950000
v 12.76000000 2.75000000 14.07450000
v 17.58100000 0.00000000 13.87950000
v 17.58100000 0.00000000 14.07450000
v 17.58100000 2.75000000 13.87950000
v 17.58100000 2.75000000 14.07450000
f 194 196 193
f 197 194 193
f 193 196 195
f 195 197 193
f 194 200 196
f 198 194 197
f 198 200 194
f 196 200 195
f 199 197 195
f 195 200 199
f 199 198 197
f 200 198 199

o wall_W20_25
usemtl material_0
v 0.09700000 0.00000000 15.82750000
v 0.09700000 0.00000000 16.02250000
v 0.09700000 2.75000000 15.82750000
v 0.09700000 2.75000000 16.02250000
v 6.91500000 0.00000000 15.82750000
v 6.91500000 0.00000000 16.02250000
v 6.91500000 2.75000000 15.82750000
v 6.91500000 2.75000000 16.02250000
f 202 204 201
f 205 202 201
f 201 204 203
f 203 205 201
f 202 208 204
f 206 202 205
f 206 208 202
f 204 208 203
f 207 205 203
f 203 208 207
f 207 206 205
f 208 206 207

o wall_W21_26
usemtl material_0
v 11.20100000 0.00000000 19.33500000
v 11.20100000 0.00000000 19.62700000
v 11.20100000 2.75000000 19.33500000
v 11.20100000 2.75000000 19.62700000
v 14.41600000 0.00000000 19.33500000
v 14.41600000 0.00000000 19.62700000
v 14.41600000 2.75000000 19.33500000
v 14.41600000 2.75000000 19.62700000
f 210 212 209
f 213 210 209
f 209 212 211
f 211 213 209
f 210 216 212
f 214 210 213
f 214 216 210
f 212 216 211
f 215 213 211
f 211 216 215
f 215 214 213
f 216 214 215

o wall_W21_27
usemtl material_0
v 14.41600000 2.10000000 19.33500000
v 14.41600000 2.10000000 19.62700000
v 14.41600000 2.75000000 19.33500000
v 14.41600000 2.75000000 19.62700000
v 15.29300000 2.10000000 19.33500000
v 15.29300000 2.10000000 19.62700000
v 15.29300000 2.75000000 19.33500000
v 15.29300000 2.75000000 19.62700000
f 218 220 217
f 221 218 217
f 217 220 219
f 219 221 217
f 218 224 220
f 222 218 221
f 222 224 218
f 220 224 219
f 223 221 219
f 219 224 223
f 223 222 221
f 224 222 223

o wall_W21_28
usemtl material_0
v 15.29200000 0.00000000 19.33500000
v 15.29200000 0.00000000 19.62700000
v 15.29200000 0.90000000 19.33500000
v 15.29200000 0.90000000 19.62700000
v 16.07100000 0.00000000 19.33500000
v 16.07100000 0.00000000 19.62700000
v 16.07100000 0.90000000 19.33500000
v 16.07100000 0.90000000 19.62700000
f 226 228 225
f 229 226 225
f 225 228 227
f 227 229 225
f 226 232 228
f 230 226 229
f 230 232 226
f 228 232 227
f 231 229 227
f 227 232 231
f 231 230 229
f 232 230 231

o wall_W21_29
usemtl material_0
v 15.29200000 2.10000000 19.33500000
v 15.29200000 2.10000000 19.62700000
v 15.29200000 2.75000000 19.33500000
v 15.29200000 2.75000000 19.62700000
v 16.07100000 2.10000000 19.33500000
v 16.07100000 2.10000000 19.62700000
v 16.07100000 2.75000000 19.33500000
v 16.07100000 2.75000000 19.62700000
f 234 236 233
f 237 234 233
f 233 236 235
f 235 237 233
f 234 240 236
f 238 234 237
f 238 240 234
f 236 240 235
f 239 237 235
f 235 240 239
f 239 238 237
f 240 238 239

o wall_W21_30
usemtl material_0
v 16.07100000 0.00000000 19.33500000
v 16.07100000 0.00000000 19.62700000
v 16.07100000 2.75000000 19.33500000
v 16.07100000 2.75000000 19.62700000
v 19.57800000 0.00000000 19.33500000
v 19.57800000 0.00000000 19.62700000
v 19.57800000 2.75000000 19.33500000
v 19.57800000 2.75000000 19.62700000
f 242 244 241
f 245 242 241
f 241 244 243
f 243 245 241
f 242 248 244
f 246 242 245
f 246 248 242
f 244 248 243
f 247 245 243
f 243 248 247
f 247 246 245
f 248 246 247

o wall_W22_31
usemtl material_0
v 0.09700000 0.00000000 19.43200000
v 0.09700000 0.00000000 19.72400000
v 0.09700000 2.75000000 19.43200000
v 0.09700000 2.75000000 19.72400000
v 6.86600000 0.00000000 19.43200000
v 6.86600000 0.00000000 19.72400000
v 6.86600000 2.75000000 19.43200000
v 6.86600000 2.75000000 19.72400000
f 250 252 249
f 253 250 249
f 249 252 251
f 251 253 249
f 250 256 252
f 254 250 253
f 254 256 250
f 252 256 251
f 255 253 251
f 251 256 255
f 255 254 253
f 256 254 255

o wall_W23_32
usemtl material_0
v 6.86700000 0.00000000 19.43200000
v 6.86700000 0.00000000 19.72400000
v 6.86700000 2.75000000 19.43200000
v 6.86700000 2.75000000 19.72400000
v 8.57200000 0.00000000 19.43200000
v 8.57200000 0.00000000 19.72400000
v 8.57200000 2.75000000 19.43200000
v 8.57200000 2.75000000 19.72400000
f 258 260 257
f 261 258 257
f 257 260 259
f 259 261 257
f 258 264 260
f 262 258 261
f 262 264 258
f 260 264 259
f 263 261 259
f 259 264 263
f 263 262 261
f 264 262 263

o wall_W24_33
usemtl material_0
v 3.70100000 2.10000000 21.59900000
v 3.70100000 2.10000000 21.74500000
v 3.70100000 2.75000000 21.59900000
v 3.70100000 2.75000000 21.74500000
v 4.48000000 2.10000000 21.59900000
v 4.48000000 2.10000000 21.74500000
v 4.48000000 2.75000000 21.59900000
v 4.48000000 2.75000000 21.74500000
f 266 268 265
f 269 266 265
f 265 268 267
f 267 269 265
f 266 272 268
f 270 266 269
f 270 272 266
f 268 272 267
f 271 269 267
f 267 272 271
f 271 270 269
f 272 270 271

o wall_W24_34
usemtl material_0
v 4.48000000 0.00000000 21.59900000
v 4.48000000 0.00000000 21.74500000
v 4.48000000 2.75000000 21.59900000
v 4.48000000 2.75000000 21.74500000
v 6.81800000 0.00000000 21.59900000
v 6.81800000 0.00000000 21.74500000
v 6.81800000 2.75000000 21.59900000
v 6.81800000 2.75000000 21.74500000
f 274 276 273
f 277 274 273
f 273 276 275
f 275 277 273
f 274 280 276
f 278 274 277
f 278 280 274
f 276 280 275
f 279 277 275
f 275 280 279
f 279 278 277
f 280 278 279

o wall_W25_35
usemtl material_0
v 0.19500000 0.00000000 22.69550000
v 0.19500000 0.00000000 22.79250000
v 0.19500000 2.75000000 22.69550000
v 0.19500000 2.75000000 22.79250000
v 1.55900000 0.00000000 22.69550000
v 1.55900000 0.00000000 22.79250000
v 1.55900000 2.75000000 22.69550000
v 1.55900000 2.75000000 22.79250000
f 282 284 281
f 285 282 281
f 281 284 283
f 283 285 281
f 282 288 284
f 286 282 285
f 286 288 282
f 284 288 283
f 287 285 283
f 283 288 287
f 287 286 285
f 288 286 287

o wall_W26_36
usemtl material_0
v 0.14600000 0.00000000 26.20100000
v 0.14600000 0.00000000 26.49300000
v 0.14600000 2.75000000 26.20100000
v 0.14600000 2.75000000 26.49300000
v 6.81800000 0.00000000 26.20100000
v 6.81800000 0.00000000 26.49300000
v 6.81800000 2.75000000 26.20100000
v 6.81800000 2.75000000 26.49300000
f 290 292 289
f 293 290 289
f 289 292 291
f 291 293 289
f 290 296 292
f 294 290 293
f 294 296 290
f 292 296 291
f 295 293 291
f 291 296 295
f 295 294 293
f 296 294 295

o wall_W27_37
usemtl material_0
v 11.05500000 0.00000000 27.27300000
v 11.05500000 0.00000000 27.56500000
v 11.05500000 2.75000000 27.27300000
v 11.05500000 2.75000000 27.56500000
v 16.55800000 0.00000000 27.27300000
v 16.55800000 0.00000000 27.56500000
v 16.55800000 2.75000000 27.27300000
v 16.55800000 2.75000000 27.56500000
f 298 300 297
f 301 298 297
f 297 300 299
f 299 301 297
f 298 304 300
f 302 298 301
f 302 304 298
f 300 304 299
f 303 301 299
f 299 304 303
f 303 302 301
f 304 302 303

o wall_W27_38
usemtl material_0
v 16.55800000 2.10000000 27.27300000
v 16.55800000 2.10000000 27.56500000
v 16.55800000 2.75000000 27.27300000
v 16.55800000 2.75000000 27.56500000
v 17.62900000 2.10000000 27.27300000
v 17.62900000 2.10000000 27.56500000
v 17.62900000 2.75000000 27.27300000
v 17.62900000 2.75000000 27.56500000
f 306 308 305
f 309 306 305
f 305 308 307
f 307 309 305
f 306 312 308
f 310 306 309
f 310 312 306
f 308 312 307
f 311 309 307
f 307 312 311
f 311 310 309
f 312 310 311

o wall_W27_39
usemtl material_0
v 17.62900000 0.00000000 27.27300000
v 17.62900000 0.00000000 27.56500000
v 17.62900000 2.75000000 27.27300000
v 17.62900000 2.75000000 27.56500000
v 19.57800000 0.00000000 27.27300000
v 19.57800000 0.00000000 27.56500000
v 19.57800000 2.75000000 27.27300000
v 19.57800000 2.75000000 27.56500000
f 314 316 313
f 317 314 313
f 313 316 315
f 315 317 313
f 314 320 316
f 318 314 317
f 318 320 314
f 316 320 315
f 319 317 315
f 315 320 319
f 319 318 317
f 320 318 319

o wall_W28_40
usemtl material_0
v 0.19450000 0.00000000 0.97400000
v 0.19450000 0.00000000 3.01900000
v 0.19450000 2.75000000 0.97400000
v 0.19450000 2.75000000 3.01900000
v 0.38950000 0.00000000 0.97400000
v 0.38950000 0.00000000 3.01900000
v 0.38950000 2.75000000 0.97400000
v 0.38950000 2.75000000 3.01900000
f 322 324 321
f 325 322 321
f 321 324 323
f 323 325 321
f 322 328 324
f 326 322 325
f 326 328 322
f 324 328 323
f 327 325 323
f 323 328 327
f 327 326 325
f 328 326 327

o wall_W29_41
usemtl material_0
v 0.24350000 0.00000000 11.25000000
v 0.24350000 0.00000000 13.83100000
v 0.24350000 2.75000000 11.25000000
v 0.24350000 2.75000000 13.83100000
v 0.43850000 0.00000000 11.25000000
v 0.43850000 0.00000000 13.83100000
v 0.43850000 2.75000000 11.25000000
v 0.43850000 2.75000000 13.83100000
f 330 332 329
f 333 330 329
f 329 332 331
f 331 333 329
f 330 336 332
f 334 330 333
f 334 336 330
f 332 336 331
f 335 333 331
f 331 336 335
f 335 334 333
f 336 334 335

o wall_W30_42
usemtl material_0
v 0.29250000 0.00000000 6.91600000
v 0.29250000 0.00000000 9.05900000
v 0.29250000 2.75000000 6.91600000
v 0.29250000 2.75000000 9.05900000
v 0.48750000 0.00000000 6.91600000
v 0.48750000 0.00000000 9.05900000
v 0.48750000 2.75000000 6.91600000
v 0.48750000 2.75000000 9.05900000
f 338 340 337
f 341 338 337
f 337 340 339
f 339 341 337
f 338 344 340
f 342 338 341
f 342 344 338
f 340 344 339
f 343 341 339
f 339 344 343
f 343 342 341
f 344 342 343

o wall_W31_43
usemtl material_0
v 1.60750000 0.00000000 5.89300000
v 1.60750000 0.00000000 7.01300000
v 1.60750000 2.75000000 5.89300000
v 1.60750000 2.75000000 7.01300000
v 1.70450000 0.00000000 5.89300000
v 1.70450000 0.00000000 7.01300000
v 1.70450000 2.75000000 5.89300000
v 1.70450000 2.75000000 7.01300000
f 346 348 345
f 349 346 345
f 345 348 347
f 347 349 345
f 346 352 348
f 350 346 349
f 350 352 346
f 348 352 347
f 351 349 347
f 347 352 351
f 351 350 349
f 352 350 351

o wall_W32_44
usemtl material_0
v 1.60750000 0.00000000 7.01300000
v 1.60750000 0.00000000 7.69500000
v 1.60750000 2.75000000 7.01300000
v 1.60750000 2.75000000 7.69500000
v 1.70450000 0.00000000 7.01300000
v 1.70450000 0.00000000 7.69500000
v 1.70450000 2.75000000 7.01300000
v 1.70450000 2.75000000 7.69500000
f 354 356 353
f 357 354 353
f 353 356 355
f 355 357 353
f 354 360 356
f 358 354 357
f 358 360 354
f 356 360 355
f 359 357 355
f 355 360 359
f 359 358 357
f 360 358 359

o wall_W33_45
usemtl material_0
v 2.38650000 0.00000000 11.25000000
v 2.38650000 0.00000000 11.88300000
v 2.38650000 2.75000000 11.25000000
v 2.38650000 2.75000000 11.88300000
v 2.48350000 0.00000000 11.25000000
v 2.48350000 0.00000000 11.88300000
v 2.48350000 2.75000000 11.25000000
v 2.48350000 2.75000000 11.88300000
f 362 364 361
f 365 362 361
f 361 364 363
f 363 365 361
f 362 368 364
f 366 362 365
f 366 368 362
f 364 368 363
f 367 365 363
f 363 368 367
f 367 366 365
f 368 366 367

o wall_W34_46
usemtl material_0
v 5.30850000 0.00000000 7.98700000
v 5.30850000 0.00000000 9.01000000
v 5.30850000 2.75000000 7.98700000
v 5.30850000 2.75000000 9.01000000
v 5.50350000 0.00000000 7.98700000
v 5.50350000 0.00000000 9.01000000
v 5.50350000 2.75000000 7.98700000
v 5.50350000 2.75000000 9.01000000
f 370 372 369
f 373 370 369
f 369 372 371
f 371 373 369
f 370 376 372
f 374 370 373
f 374 376 370
f 372 376 371
f 375 373 371
f 371 376 375
f 375 374 373
f 376 374 375

o wall_W35_47
usemtl material_0
v 5.35750000 0.00000000 0.97400000
v 5.35750000 0.00000000 1.85100000
v 5.35750000 2.75000000 0.97400000
v 5.35750000 2.75000000 1.85100000
v 5.55250000 0.00000000 0.97400000
v 5.55250000 0.00000000 1.85100000
v 5.55250000 2.75000000 0.97400000
v 5.55250000 2.75000000 1.85100000
f 378 380 377
f 381 378 377
f 377 380 379
f 379 381 377
f 378 384 380
f 382 378 381
f 382 384 378
f 380 384 379
f 383 381 379
f 379 384 383
f 383 382 381
f 384 382 383

o wall_W36_48
usemtl material_0
v 5.94150000 0.00000000 11.78600000
v 5.94150000 0.00000000 14.61100000
v 5.94150000 2.75000000 11.78600000
v 5.94150000 2.75000000 14.61100000
v 6.13650000 0.00000000 11.78600000
v 6.13650000 0.00000000 14.61100000
v 6.13650000 2.75000000 11.78600000
v 6.13650000 2.75000000 14.61100000
f 386 388 385
f 389 386 385
f 385 388 387
f 387 389 385
f 386 392 388
f 390 386 389
f 390 392 386
f 388 392 387
f 391 389 387
f 387 392 391
f 391 390 389
f 392 390 391

o wall_W37_49
usemtl material_0
v 6.81850000 0.00000000 19.57800000
v 6.81850000 0.00000000 20.26000000
v 6.81850000 2.75000000 19.57800000
v 6.81850000 2.75000000 20.26000000
v 6.91550000 0.00000000 19.57800000
v 6.91550000 0.00000000 20.26000000
v 6.91550000 2.75000000 19.57800000
v 6.91550000 2.75000000 20.26000000
f 394 396 393
f 397 394 393
f 393 396 395
f 395 397 393
f 394 400 396
f 398 394 397
f 398 400 394
f 396 400 395
f 399 397 395
f 395 400 399
f 399 398 397
f 400 398 399

o wall_W38_50
usemtl material_0
v 8.18200000 0.00000000 6.57500000
v 8.18200000 0.00000000 7.01300000
v 8.18200000 2.75000000 6.57500000
v 8.18200000 2.75000000 7.01300000
v 8.47400000 0.00000000 6.57500000
v 8.47400000 0.00000000 7.01300000
v 8.47400000 2.75000000 6.57500000
v 8.47400000 2.75000000 7.01300000
f 402 404 401
f 405 402 401
f 401 404 403
f 403 405 401
f 402 408 404
f 406 402 405
f 406 408 402
f 404 408 403
f 407 405 403
f 403 408 407
f 407 406 405
f 408 406 407

o wall_W38_51
usemtl material_0
v 8.18200000 2.10000000 7.01300000
v 8.18200000 2.10000000 8.66900000
v 8.18200000 2.75000000 7.01300000
v 8.18200000 2.75000000 8.66900000
v 8.47400000 2.10000000 7.01300000
v 8.47400000 2.10000000 8.66900000
v 8.47400000 2.75000000 7.01300000
v 8.47400000 2.75000000 8.66900000
f 410 412 409
f 413 410 409
f 409 412 411
f 411 413 409
f 410 416 412
f 414 410 413
f 414 416 410
f 412 416 411
f 415 413 411
f 411 416 415
f 415 414 413
f 416 414 415

o wall_W39_52
usemtl material_0
v 8.23050000 2.10000000 9.44800000
v 8.23050000 2.10000000 10.90900000
v 8.23050000 2.75000000 9.44800000
v 8.23050000 2.75000000 10.90900000
v 8.42550000 2.10000000 9.44800000
v 8.42550000 2.10000000 10.90900000
v 8.42550000 2.75000000 9.44800000
v 8.42550000 2.75000000 10.90900000
f 418 420 417
f 421 418 417
f 417 420 419
f 419 421 417
f 418 424 420
f 422 418 421
f 422 424 418
f 420 424 419
f 423 421 419
f 419 424 423
f 423 422 421
f 424 422 423

o wall_W39_53
usemtl material_0
v 8.23050000 0.00000000 10.90900000
v 8.23050000 0.00000000 11.15300000
v 8.23050000 2.75000000 10.90900000
v 8.23050000 2.75000000 11.15300000
v 8.42550000 0.00000000 10.90900000
v 8.42550000 0.00000000 11.15300000
v 8.42550000 2.75000000 10.90900000
v 8.42550000 2.75000000 11.15300000
f 426 428 425
f 429 426 425
f 425 428 427
f 427 429 425
f 426 432 428
f 430 426 429
f 430 432 426
f 428 432 427
f 431 429 427
f 427 432 431
f 431 430 429
f 432 430 431

o wall_W40_54
usemtl material_0
v 8.66950000 0.00000000 22.50000000
v 8.66950000 0.00000000 24.15600000
v 8.66950000 0.90000000 22.50000000
v 8.66950000 0.90000000 24.15600000
v 8.76650000 0.00000000 22.50000000
v 8.76650000 0.00000000 24.15600000
v 8.76650000 0.90000000 22.50000000
v 8.76650000 0.90000000 24.15600000
f 434 436 433
f 437 434 433
f 433 436 435
f 435 437 433
f 434 440 436
f 438 434 437
f 438 440 434
f 436 440 435
f 439 437 435
f 435 440 439
f 439 438 437
f 440 438 439

o wall_W40_55
usemtl material_0
v 8.66950000 2.10000000 22.50000000
v 8.66950000 2.10000000 24.15600000
v 8.66950000 2.75000000 22.50000000
v 8.66950000 2.75000000 24.15600000
v 8.76650000 2.10000000 22.50000000
v 8.76650000 2.10000000 24.15600000
v 8.76650000 2.75000000 22.50000000
v 8.76650000 2.75000000 24.15600000
f 442 444 441
f 445 442 441
f 441 444 443
f 443 445 441
f 442 448 444
f 446 442 445
f 446 448 442
f 444 448 443
f 447 445 443
f 443 448 447
f 447 446 445
f 448 446 447

o wall_W41_56
usemtl material_0
v 9.59400000 0.00000000 0.97400000
v 9.59400000 0.00000000 6.57500000
v 9.59400000 2.75000000 0.97400000
v 9.59400000 2.75000000 6.57500000
v 9.88600000 0.00000000 0.97400000
v 9.88600000 0.00000000 6.57500000
v 9.88600000 2.75000000 0.97400000
v 9.88600000 2.75000000 6.57500000
f 450 452 449
f 453 450 449
f 449 452 451
f 451 453 449
f 450 456 452
f 454 450 453
f 454 456 450
f 452 456 451
f 455 453 451
f 451 456 455
f 455 454 453
f 456 454 455

o wall_W42_57
usemtl material_0
v 10.90900000 0.00000000 24.15600000
v 10.90900000 0.00000000 27.41900000
v 10.90900000 2.75000000 24.15600000
v 10.90900000 2.75000000 27.41900000
v 11.20100000 0.00000000 24.15600000
v 11.20100000 0.00000000 27.41900000
v 11.20100000 2.75000000 24.15600000
v 11.20100000 2.75000000 27.41900000
f 458 460 457
f 461 458 457
f 457 460 459
f 459 461 457
f 458 464 460
f 462 458 461
f 462 464 458
f 460 464 459
f 463 461 459
f 459 464 463
f 463 462 461
f 464 462 463

o wall_W43_58
usemtl material_0
v 11.00700000 0.00000000 6.57500000
v 11.00700000 0.00000000 7.01300000
v 11.00700000 2.75000000 6.57500000
v 11.00700000 2.75000000 7.01300000
v 11.29900000 0.00000000 6.57500000
v 11.29900000 0.00000000 7.01300000
v 11.29900000 2.75000000 6.57500000
v 11.29900000 2.75000000 7.01300000
f 466 468 465
f 469 466 465
f 465 468 467
f 467 469 465
f 466 472 468
f 470 466 469
f 470 472 466
f 468 472 467
f 471 469 467
f 467 472 471
f 471 470 469
f 472 470 471

o wall_W43_59
usemtl material_0
v 11.00700000 2.10000000 7.01300000
v 11.00700000 2.10000000 8.76600000
v 11.00700000 2.75000000 7.01300000
v 11.00700000 2.75000000 8.76600000
v 11.29900000 2.10000000 7.01300000
v 11.29900000 2.10000000 8.76600000
v 11.29900000 2.75000000 7.01300000
v 11.29900000 2.75000000 8.76600000
f 474 476 473
f 477 474 473
f 473 476 475
f 475 477 473
f 474 480 476
f 478 474 477
f 478 480 474
f 476 480 475
f 479 477 475
f 475 480 479
f 479 478 477
f 480 478 479

o wall_W43_60
usemtl material_0
v 11.00700000 0.00000000 8.76600000
v 11.00700000 0.00000000 8.96100000
v 11.00700000 2.75000000 8.76600000
v 11.00700000 2.75000000 8.96100000
v 11.29900000 0.00000000 8.76600000
v 11.29900000 0.00000000 8.96100000
v 11.29900000 2.75000000 8.76600000
v 11.29900000 2.75000000 8.96100000
f 482 484 481
f 485 482 481
f 481 484 483
f 483 485 481
f 482 488 484
f 486 482 485
f 486 488 482
f 484 488 483
f 487 485 483
f 483 488 487
f 487 486 485
f 488 486 487

o wall_W44_61
usemtl material_0
v 11.00700000 0.00000000 8.96100000
v 11.00700000 0.00000000 10.22700000
v 11.00700000 2.75000000 8.96100000
v 11.00700000 2.75000000 10.22700000
v 11.29900000 0.00000000 8.96100000
v 11.29900000 0.00000000 10.22700000
v 11.29900000 2.75000000 8.96100000
v 11.29900000 2.75000000 10.22700000
f 490 492 489
f 493 490 489
f 489 492 491
f 491 493 489
f 490 496 492
f 494 490 493
f 494 496 490
f 492 496 491
f 495 493 491
f 491 496 495
f 495 494 493
f 496 494 495

o wall_W45_62
usemtl material_0
v 11.05500000 0.00000000 12.41900000
v 11.05500000 0.00000000 19.48100000
v 11.05500000 2.75000000 12.41900000
v 11.05500000 2.75000000 19.48100000
v 11.34700000 0.00000000 12.41900000
v 11.34700000 0.00000000 19.48100000
v 11.34700000 2.75000000 12.41900000
v 11.34700000 2.75000000 19.48100000
f 498 500 497
f 501 498 497
f 497 500 499
f 499 501 497
f 498 504 500
f 502 498 501
f 502 504 498
f 500 504 499
f 503 501 499
f 499 504 503
f 503 502 501
f 504 502 503

o wall_W46_63
usemtl material_0
v 13.05250000 0.00000000 8.96100000
v 13.05250000 0.00000000 12.41900000
v 13.05250000 2.75000000 8.96100000
v 13.05250000 2.75000000 12.41900000
v 13.14950000 0.00000000 8.96100000
v 13.14950000 0.00000000 12.41900000
v 13.14950000 2.75000000 8.96100000
v 13.14950000 2.75000000 12.41900000
f 506 508 505
f 509 506 505
f 505 508 507
f 507 509 505
f 506 512 508
f 510 506 509
f 510 512 506
f 508 512 507
f 511 509 507
f 507 512 511
f 511 510 509
f 512 510 511

o wall_W47_64
usemtl material_0
v 13.14900000 0.00000000 0.97400000
v 13.14900000 0.00000000 2.48400000
v 13.14900000 2.75000000 0.97400000
v 13.14900000 2.75000000 2.48400000
v 13.44100000 0.00000000 0.97400000
v 13.44100000 0.00000000 2.48400000
v 13.44100000 2.75000000 0.97400000
v 13.44100000 2.75000000 2.48400000
f 514 516 513
f 517 514 513
f 513 516 515
f 515 517 513
f 514 520 516
f 518 514 517
f 518 520 514
f 516 520 515
f 519 517 515
f 515 520 519
f 519 518 517
f 520 518 519

o wall_W48_65
usemtl material_0
v 17.53250000 0.00000000 11.00600000
v 17.53250000 0.00000000 13.97700000
v 17.53250000 2.75000000 11.00600000
v 17.53250000 2.75000000 13.97700000
v 17.62950000 0.00000000 11.00600000
v 17.62950000 0.00000000 13.97700000
v 17.62950000 2.75000000 11.00600000
v 17.62950000 2.75000000 13.97700000
f 522 524 521
f 525 522 521
f 521 524 523
f 523 525 521
f 522 528 524
f 526 522 525
f 526 528 522
f 524 528 523
f 527 525 523
f 523 528 527
f 527 526 525
f 528 526 527

o wall_W49_66
usemtl material_0
v 20.84450000 0.00000000 19.09100000
v 20.84450000 0.00000000 21.72100000
v 20.84450000 0.90000000 19.09100000
v 20.84450000 0.90000000 21.72100000
v 20.94150000 0.00000000 19.09100000
v 20.94150000 0.00000000 21.72100000
v 20.94150000 0.90000000 19.09100000
v 20.94150000 0.90000000 21.72100000
f 530 532 529
f 533 530 529
f 529 532 531
f 531 533 529
f 530 536 532
f 534 530 533
f 534 536 530
f 532 536 531
f 535 533 531
f 531 536 535
f 535 534 533
f 536 534 535

o wall_W49_67
usemtl material_0
v 20.84450000 2.10000000 19.09100000
v 20.84450000 2.10000000 21.72100000
v 20.84450000 2.75000000 19.09100000
v 20.84450000 2.75000000 21.72100000
v 20.94150000 2.10000000 19.09100000
v 20.94150000 2.10000000 21.72100000
v 20.94150000 2.75000000 19.09100000
v 20.94150000 2.75000000 21.72100000
f 538 540 537
f 541 538 537
f 537 540 539
f 539 541 537
f 538 544 540
f 542 538 541
f 542 544 538
f 540 544 539
f 543 541 539
f 539 544 543
f 543 542 541
f 544 542 543

o window_N1_68
usemtl material_1
v 6.03850000 0.90000000 0.03900000
v 6.03850000 0.90000000 0.05900000
v 6.03850000 2.10000000 0.03900000
v 6.03850000 2.10000000 0.05900000
v 8.18150000 0.90000000 0.03900000
v 8.18150000 0.90000000 0.05900000
v 8.18150000 2.10000000 0.03900000
v 8.18150000 2.10000000 0.05900000
f 546 548 545
f 549 546 545
f 545 548 547
f 547 549 545
f 546 552 548
f 550 546 549
f 550 552 546
f 548 552 547
f 551 549 547
f 547 552 551
f 551 550 549
f 552 550 551

o window_N2_69
usemtl material_1
v 16.55850000 0.90000000 0.03900000
v 16.55850000 0.90000000 0.05900000
v 16.55850000 2.10000000 0.03900000
v 16.55850000 2.10000000 0.05900000
v 18.40950000 0.90000000 0.03900000
v 18.40950000 0.90000000 0.05900000
v 18.40950000 2.10000000 0.03900000
v 18.40950000 2.10000000 0.05900000
f 554 556 553
f 557 554 553
f 553 556 555
f 555 557 553
f 554 560 556
f 558 554 557
f 558 560 554
f 556 560 555
f 559 557 555
f 555 560 559
f 559 558 557
f 560 558 559

o window_N3_70
usemtl material_1
v 15.00050000 0.90000000 5.98000000
v 15.00050000 0.90000000 6.00000000
v 15.00050000 2.10000000 5.98000000
v 15.00050000 2.10000000 6.00000000
v 17.04550000 0.90000000 5.98000000
v 17.04550000 0.90000000 6.00000000
v 17.04550000 2.10000000 5.98000000
v 17.04550000 2.10000000 6.00000000
f 562 564 561
f 565 562 561
f 561 564 563
f 563 565 561
f 562 568 564
f 566 562 565
f 566 568 562
f 564 568 563
f 567 565 563
f 563 568 567
f 567 566 565
f 568 566 567

o window_N4_71
usemtl material_1
v 20.88300000 0.90000000 19.09100000
v 20.88300000 0.90000000 21.72100000
v 20.88300000 2.10000000 19.09100000
v 20.88300000 2.10000000 21.72100000
v 20.90300000 0.90000000 19.09100000
v 20.90300000 0.90000000 21.72100000
v 20.90300000 2.10000000 19.09100000
v 20.90300000 2.10000000 21.72100000
f 570 572 569
f 573 570 569
f 569 572 571
f 571 573 569
f 570 576 572
f 574 570 573
f 574 576 570
f 572 576 571
f 575 573 571
f 571 576 575
f 575 574 573
f 576 574 575

o window_N5_72
usemtl material_1
v 15.29250000 0.90000000 19.47100000
v 15.29250000 0.90000000 19.49100000
v 15.29250000 2.10000000 19.47100000
v 15.29250000 2.10000000 19.49100000
v 16.07150000 0.90000000 19.47100000
v 16.07150000 0.90000000 19.49100000
v 16.07150000 2.10000000 19.47100000
v 16.07150000 2.10000000 19.49100000
f 578 580 577
f 581 578 577
f 577 580 579
f 579 581 577
f 578 584 580
f 582 578 581
f 582 584 578
f 580 584 579
f 583 581 579
f 579 584 583
f 583 582 581
f 584 582 583

o window_N6_73
usemtl material_1
v 8.70800000 0.90000000 22.50000000
v 8.70800000 0.90000000 24.15600000
v 8.70800000 2.10000000 22.50000000
v 8.70800000 2.10000000 24.15600000
v 8.72800000 0.90000000 22.50000000
v 8.72800000 0.90000000 24.15600000
v 8.72800000 2.10000000 22.50000000
v 8.72800000 2.10000000 24.15600000
f 586 588 585
f 589 586 585
f 585 588 587
f 587 589 585
f 586 592 588
f 590 586 589
f 590 592 586
f 588 592 587
f 591 589 587
f 587 592 591
f 591 590 589
f 592 590 591

o railing_R1_74
usemtl material_2
v 6.23400000 0.00000000 9.27800000
v 6.23400000 0.00000000 9.22800000
v 6.23400000 1.00000000 9.27800000
v 6.23400000 1.00000000 9.22800000
v 0.48700000 0.00000000 9.27800000
v 0.48700000 0.00000000 9.22800000
v 0.48700000 1.00000000 9.27800000
v 0.48700000 1.00000000 9.22800000
f 594 596 593
f 597 594 593
f 593 596 595
f 595 597 593
f 594 600 596
f 598 594 597
f 598 600 594
f 596 600 595
f 599 597 595
f 595 600 599
f 599 598 597
f 600 598 599

o railing_R1_75
usemtl material_2
v 0.51200000 0.00000000 9.25300000
v 0.46200000 0.00000000 9.25300000
v 0.51200000 1.00000000 9.25300000
v 0.46200000 1.00000000 9.25300000
v 0.51200000 0.00000000 11.00600000
v 0.46200000 0.00000000 11.00600000
v 0.51200000 1.00000000 11.00600000
v 0.46200000 1.00000000 11.00600000
f 602 604 601
f 605 602 601
f 601 604 603
f 603 605 601
f 602 608 604
f 606 602 605
f 606 608 602
f 604 608 603
f 607 605 603
f 603 608 607
f 607 606 605
f 608 606 607

o railing_R1_76
usemtl material_2
v 0.70354902 0.00000000 11.38332563
v 0.66045098 0.00000000 11.40867437
v 0.70354902 1.00000000 11.38332563
v 0.66045098 1.00000000 11.40867437
v 2.65154902 0.00000000 14.69532563
v 2.60845098 0.00000000 14.72067437
v 2.65154902 1.00000000 14.69532563
v 2.60845098 1.00000000 14.72067437
f 610 612 609
f 613 610 609
f 609 612 611
f 611 613 609
f 610 616 612
f 614 610 613
f 614 616 610
f 612 616 611
f 615 613 611
f 611 616 615
f 615 614 613
f 616 614 615

o railing_R1_77
usemtl material_2
v 2.64303379 0.00000000 14.68666645
v 2.61696621 0.00000000 14.72933355
v 2.64303379 1.00000000 14.68666645
v 2.61696621 1.00000000 14.72933355
v 4.39603379 0.00000000 15.75766645
v 4.36996621 0.00000000 15.80033355
v 4.39603379 1.00000000 15.75766645
v 4.36996621 1.00000000 15.80033355
f 618 620 617
f 621 618 617
f 617 620 619
f 619 621 617
f 618 624 620
f 622 618 621
f 622 624 618
f 620 624 619
f 623 621 619
f 619 624 623
f 623 622 621
f 624 622 623

o railing_R1_78
usemtl material_2
v 4.36662821 0.00000000 15.76010649
v 4.39937179 0.00000000 15.79789351
v 4.36662821 1.00000000 15.76010649
v 4.39937179 1.00000000 15.79789351
v 5.82762821 0.00000000 14.49410649
v 5.86037179 0.00000000 14.53189351
v 5.82762821 1.00000000 14.49410649
v 5.86037179 1.00000000 14.53189351
f 626 628 625
f 629 626 625
f 625 628 627
f 627 629 625
f 626 632 628
f 630 626 629
f 630 632 626
f 628 632 627
f 631 629 627
f 627 632 631
f 631 630 629
f 632 630 631

o railing_R1_79
usemtl material_2
v 6.21092249 0.00000000 13.72438602
v 6.25707751 0.00000000 13.74361398
v 6.21092249 1.00000000 13.72438602
v 6.25707751 1.00000000 13.74361398
v 7.18492249 0.00000000 11.38638602
v 7.23107751 0.00000000 11.40561398
v 7.18492249 1.00000000 11.38638602
v 7.23107751 1.00000000 11.40561398
f 634 636 633
f 637 634 633
f 633 636 635
f 635 637 633
f 634 640 636
f 638 634 637
f 638 640 634
f 636 640 635
f 639 637 635
f 635 640 639
f 639 638 637
f 640 638 639

o railing_R1_80
usemtl material_2
v 7.38299846 0.00000000 10.82699795
v 7.42300154 0.00000000 10.79700205
v 7.38299846 1.00000000 10.82699795
v 7.42300154 1.00000000 10.79700205
v 6.21399846 0.00000000 9.26799795
v 6.25400154 0.00000000 9.23800205
v 6.21399846 1.00000000 9.26799795
v 6.25400154 1.00000000 9.23800205
f 642 644 641
f 645 642 641
f 641 644 643
f 643 645 641
f 642 648 644
f 646 642 645
f 646 648 642
f 644 648 643
f 647 645 643
f 643 648 647
f 647 646 645
f 648 646 647

o floor_R1_balcony_81
usemtl material_3
v 2.63000000 0.00000000 14.70800000
v 0.68200000 0.00000000 11.39600000
v 2.48400000 0.00000000 11.98100000
v 5.84400000 0.00000000 14.51300000
v 4.38300000 0.00000000 15.77900000
v 6.23400000 0.00000000 13.73400000
v 5.84400000 0.00000000 11.78600000
v 6.23400000 0.00000000 11.78600000
v 7.20800000 0.00000000 11.39600000
v 6.91600000 0.00000000 11.00600000
v 7.40300000 0.00000000 10.81200000
v 6.23400000 0.00000000 9.25300000
v 2.48400000 0.00000000 11.20100000
v 2.33800000 0.00000000 11.00600000
v 0.48700000 0.00000000 9.25300000
v 0.48700000 0.00000000 11.00600000
v 2.24000000 0.00000000 11.39600000
f 649 651 650
f 649 652 651
f 649 653 652
f 652 654 651
f 654 655 651
f 654 657 656
f 657 658 656
f 659 660 658
f 660 655 658
f 660 661 655
f 660 662 661
f 660 663 662
f 663 664 662
f 650 651 665
f 651 655 661
f 655 656 658

