# floorplan3d
mtllib Screenshot 2026-10-06 123716_3d.mtl

o wall_W1_0
usemtl material_0
v 47.44500000 0.00000000 3.55450000
v 47.44500000 0.00000000 4.32750000
v 47.44500000 2.75000000 3.55450000
v 47.44500000 2.75000000 4.32750000
v 49.53200000 0.00000000 3.55450000
v 49.53200000 0.00000000 4.32750000
v 49.53200000 2.75000000 3.55450000
v 49.53200000 2.75000000 4.32750000
f 2 4 1
f 5 2 1
f 1 4 3
f 3 5 1
f 2 8 4
f 6 2 5
f 6 8 2
f 4 8 3
f 7 5 3
f 3 8 7
f 7 6 5
f 8 6 7

o wall_W1_1
usemtl material_0
v 49.53200000 0.00000000 3.55450000
v 49.53200000 0.00000000 4.32750000
v 49.53200000 0.90000000 3.55450000
v 49.53200000 0.90000000 4.32750000
v 53.47300000 0.00000000 3.55450000
v 53.47300000 0.00000000 4.32750000
v 53.47300000 0.90000000 3.55450000
v 53.47300000 0.90000000 4.32750000
f 10 12 9
f 13 10 9
f 9 12 11
f 11 13 9
f 10 16 12
f 14 10 13
f 14 16 10
f 12 16 11
f 15 13 11
f 11 16 15
f 15 14 13
f 16 14 15

o wall_W1_2
usemtl material_0
v 49.53200000 2.10000000 3.55450000
v 49.53200000 2.10000000 4.32750000
v 49.53200000 2.75000000 3.55450000
v 49.53200000 2.75000000 4.32750000
v 53.47300000 2.10000000 3.55450000
v 53.47300000 2.10000000 4.32750000
v 53.47300000 2.75000000 3.55450000
v 53.47300000 2.75000000 4.32750000
f 18 20 17
f 21 18 17
f 17 20 19
f 19 21 17
f 18 24 20
f 22 18 21
f 22 24 18
f 20 24 19
f 23 21 19
f 19 24 23
f 23 22 21
f 24 22 23

o wall_W1_3
usemtl material_0
v 53.47300000 0.00000000 3.55450000
v 53.47300000 0.00000000 4.32750000
v 53.47300000 2.75000000 3.55450000
v 53.47300000 2.75000000 4.32750000
v 66.84000000 0.00000000 3.55450000
v 66.84000000 0.00000000 4.32750000
v 66.84000000 2.75000000 3.55450000
v 66.84000000 2.75000000 4.32750000
f 26 28 25
f 29 26 25
f 25 28 27
f 27 29 25
f 26 32 28
f 30 26 29
f 30 32 26
f 28 32 27
f 31 29 27
f 27 32 31
f 31 30 29
f 32 30 31

o wall_W2_4
usemtl material_0
v 16.38200000 0.00000000 4.24950000
v 16.38200000 0.00000000 5.02250000
v 16.38200000 2.75000000 4.24950000
v 16.38200000 2.75000000 5.02250000
v 19.39500000 0.00000000 4.24950000
v 19.39500000 0.00000000 5.02250000
v 19.39500000 2.75000000 4.24950000
v 19.39500000 2.75000000 5.02250000
f 34 36 33
f 37 34 33
f 33 36 35
f 35 37 33
f 34 40 36
f 38 34 37
f 38 40 34
f 36 40 35
f 39 37 35
f 35 40 39
f 39 38 37
f 40 38 39

o wall_W2_5
usemtl material_0
v 19.39500000 0.00000000 4.24950000
v 19.39500000 0.00000000 5.02250000
v 19.39500000 0.90000000 4.24950000
v 19.39500000 0.90000000 5.02250000
v 23.25900000 0.00000000 4.24950000
v 23.25900000 0.00000000 5.02250000
v 23.25900000 0.90000000 4.24950000
v 23.25900000 0.90000000 5.02250000
f 42 44 41
f 45 42 41
f 41 44 43
f 43 45 41
f 42 48 44
f 46 42 45
f 46 48 42
f 44 48 43
f 47 45 43
f 43 48 47
f 47 46 45
f 48 46 47

o wall_W2_6
usemtl material_0
v 19.39500000 2.10000000 4.24950000
v 19.39500000 2.10000000 5.02250000
v 19.39500000 2.75000000 4.24950000
v 19.39500000 2.75000000 5.02250000
v 23.25900000 2.10000000 4.24950000
v 23.25900000 2.10000000 5.02250000
v 23.25900000 2.75000000 4.24950000
v 23.25900000 2.75000000 5.02250000
f 50 52 49
f 53 50 49
f 49 52 51
f 51 53 49
f 50 56 52
f 54 50 53
f 54 56 50
f 52 56 51
f 55 53 51
f 51 56 55
f 55 54 53
f 56 54 55

o wall_W2_7
usemtl material_0
v 23.25900000 0.00000000 4.24950000
v 23.25900000 0.00000000 5.02250000
v 23.25900000 2.75000000 4.24950000
v 23.25900000 2.75000000 5.02250000
v 25.03600000 0.00000000 4.24950000
v 25.03600000 0.00000000 5.02250000
v 25.03600000 2.75000000 4.24950000
v 25.03600000 2.75000000 5.02250000
f 58 60 57
f 61 58 57
f 57 60 59
f 59 61 57
f 58 64 60
f 62 58 61
f 62 64 58
f 60 64 59
f 63 61 59
f 59 64 63
f 63 62 61
f 64 62 63

o wall_W2_8
usemtl material_0
v 25.03600000 0.00000000 4.24950000
v 25.03600000 0.00000000 5.02250000
v 25.03600000 0.90000000 4.24950000
v 25.03600000 0.90000000 5.02250000
v 28.97700000 0.00000000 4.24950000
v 28.97700000 0.00000000 5.02250000
v 28.97700000 0.90000000 4.24950000
v 28.97700000 0.90000000 5.02250000
f 66 68 65
f 69 66 65
f 65 68 67
f 67 69 65
f 66 72 68
f 70 66 69
f 70 72 66
f 68 72 67
f 71 69 67
f 67 72 71
f 71 70 69
f 72 70 71

o wall_W2_9
usemtl material_0
v 25.03600000 2.10000000 4.24950000
v 25.03600000 2.10000000 5.02250000
v 25.03600000 2.75000000 4.24950000
v 25.03600000 2.75000000 5.02250000
v 28.97700000 2.10000000 4.24950000
v 28.97700000 2.10000000 5.02250000
v 28.97700000 2.75000000 4.24950000
v 28.97700000 2.75000000 5.02250000
f 74 76 73
f 77 74 73
f 73 76 75
f 75 77 73
f 74 80 76
f 78 74 77
f 78 80 74
f 76 80 75
f 79 77 75
f 75 80 79
f 79 78 77
f 80 78 79

o wall_W2_10
usemtl material_0
v 28.97700000 0.00000000 4.24950000
v 28.97700000 0.00000000 5.02250000
v 28.97700000 2.75000000 4.24950000
v 28.97700000 2.75000000 5.02250000
v 32.64800000 0.00000000 4.24950000
v 32.64800000 0.00000000 5.02250000
v 32.64800000 2.75000000 4.24950000
v 32.64800000 2.75000000 5.02250000
f 82 84 81
f 85 82 81
f 81 84 83
f 83 85 81
f 82 88 84
f 86 82 85
f 86 88 82
f 84 88 83
f 87 85 83
f 83 88 87
f 87 86 85
f 88 86 87

o wall_W3_11
usemtl material_0
v 33.84500000 0.00000000 6.72300000
v 33.84500000 0.00000000 7.57300000
v 33.84500000 2.75000000 6.72300000
v 33.84500000 2.75000000 7.57300000
v 37.70900000 0.00000000 6.72300000
v 37.70900000 0.00000000 7.57300000
v 37.70900000 2.75000000 6.72300000
v 37.70900000 2.75000000 7.57300000
f 90 92 89
f 93 90 89
f 89 92 91
f 91 93 89
f 90 96 92
f 94 90 93
f 94 96 90
f 92 96 91
f 95 93 91
f 91 96 95
f 95 94 93
f 96 94 95

o wall_W3_12
usemtl material_0
v 37.70900000 0.00000000 6.72300000
v 37.70900000 0.00000000 7.57300000
v 37.70900000 0.90000000 6.72300000
v 37.70900000 0.90000000 7.57300000
v 46.28600000 0.00000000 6.72300000
v 46.28600000 0.00000000 7.57300000
v 46.28600000 0.90000000 6.72300000
v 46.28600000 0.90000000 7.57300000
f 98 100 97
f 101 98 97
f 97 100 99
f 99 101 97
f 98 104 100
f 102 98 101
f 102 104 98
f 100 104 99
f 103 101 99
f 99 104 103
f 103 102 101
f 104 102 103

o wall_W3_13
usemtl material_0
v 37.70900000 2.10000000 6.72300000
v 37.70900000 2.10000000 7.57300000
v 37.70900000 2.75000000 6.72300000
v 37.70900000 2.75000000 7.57300000
v 46.28600000 2.10000000 6.72300000
v 46.28600000 2.10000000 7.57300000
v 46.28600000 2.75000000 6.72300000
v 46.28600000 2.75000000 7.57300000
f 106 108 105
f 109 106 105
f 105 108 107
f 107 109 105
f 106 112 108
f 110 106 109
f 110 112 106
f 108 112 107
f 111 109 107
f 107 112 111
f 111 110 109
f 112 110 111

o wall_W3_14
usemtl material_0
v 45.51400000 2.10000000 6.72300000
v 45.51400000 2.10000000 7.57300000
v 45.51400000 2.75000000 6.72300000
v 45.51400000 2.75000000 7.57300000
v 46.28700000 2.10000000 6.72300000
v 46.28700000 2.10000000 7.57300000
v 46.28700000 2.75000000 6.72300000
v 46.28700000 2.75000000 7.57300000
f 114 116 113
f 117 114 113
f 113 116 115
f 115 117 113
f 114 120 116
f 118 114 117
f 118 120 114
f 116 120 115
f 119 117 115
f 115 120 119
f 119 118 117
f 120 118 119

o wall_W3_15
usemtl material_0
v 46.28700000 0.00000000 6.72300000
v 46.28700000 0.00000000 7.57300000
v 46.28700000 2.75000000 6.72300000
v 46.28700000 2.75000000 7.57300000
v 47.44500000 0.00000000 6.72300000
v 47.44500000 0.00000000 7.57300000
v 47.44500000 2.75000000 6.72300000
v 47.44500000 2.75000000 7.57300000
f 122 124 121
f 125 122 121
f 121 124 123
f 123 125 121
f 122 128 124
f 126 122 125
f 126 128 122
f 124 128 123
f 127 125 123
f 123 128 127
f 127 126 125
f 128 126 127

o wall_W4_16
usemtl material_0
v 0.73400000 0.00000000 8.96350000
v 0.73400000 0.00000000 9.73650000
v 0.73400000 2.75000000 8.96350000
v 0.73400000 2.75000000 9.73650000
v 3.01400000 0.00000000 8.96350000
v 3.01400000 0.00000000 9.73650000
v 3.01400000 2.75000000 8.96350000
v 3.01400000 2.75000000 9.73650000
f 130 132 129
f 133 130 129
f 129 132 131
f 131 133 129
f 130 136 132
f 134 130 133
f 134 136 130
f 132 136 131
f 135 133 131
f 131 136 135
f 135 134 133
f 136 134 135

o wall_W4_17
usemtl material_0
v 3.01400000 0.00000000 8.96350000
v 3.01400000 0.00000000 9.73650000
v 3.01400000 0.90000000 8.96350000
v 3.01400000 0.90000000 9.73650000
v 6.87800000 0.00000000 8.96350000
v 6.87800000 0.00000000 9.73650000
v 6.87800000 0.90000000 8.96350000
v 6.87800000 0.90000000 9.73650000
f 138 140 137
f 141 138 137
f 137 140 139
f 139 141 137
f 138 144 140
f 142 138 141
f 142 144 138
f 140 144 139
f 143 141 139
f 139 144 143
f 143 142 141
f 144 142 143

o wall_W4_18
usemtl material_0
v 3.01400000 2.10000000 8.96350000
v 3.01400000 2.10000000 9.73650000
v 3.01400000 2.75000000 8.96350000
v 3.01400000 2.75000000 9.73650000
v 6.87800000 2.10000000 8.96350000
v 6.87800000 2.10000000 9.73650000
v 6.87800000 2.75000000 8.96350000
v 6.87800000 2.75000000 9.73650000
f 146 148 145
f 149 146 145
f 145 148 147
f 147 149 145
f 146 152 148
f 150 146 149
f 150 152 146
f 148 152 147
f 151 149 147
f 147 152 151
f 151 150 149
f 152 150 151

o wall_W4_19
usemtl material_0
v 6.87800000 0.00000000 8.96350000
v 6.87800000 0.00000000 9.73650000
v 6.87800000 2.75000000 8.96350000
v 6.87800000 2.75000000 9.73650000
v 8.57700000 0.00000000 8.96350000
v 8.57700000 0.00000000 9.73650000
v 8.57700000 2.75000000 8.96350000
v 8.57700000 2.75000000 9.73650000
f 154 156 153
f 157 154 153
f 153 156 155
f 155 157 153
f 154 160 156
f 158 154 157
f 158 160 154
f 156 160 155
f 159 157 155
f 155 160 159
f 159 158 157
f 160 158 159

o wall_W4_20
usemtl material_0
v 8.57700000 0.00000000 8.96350000
v 8.57700000 0.00000000 9.73650000
v 8.57700000 0.90000000 8.96350000
v 8.57700000 0.90000000 9.73650000
v 12.51800000 0.00000000 8.96350000
v 12.51800000 0.00000000 9.73650000
v 12.51800000 0.90000000 8.96350000
v 12.51800000 0.90000000 9.73650000
f 162 164 161
f 165 162 161
f 161 164 163
f 163 165 161
f 162 168 164
f 166 162 165
f 166 168 162
f 164 168 163
f 167 165 163
f 163 168 167
f 167 166 165
f 168 166 167

o wall_W4_21
usemtl material_0
v 8.57700000 2.10000000 8.96350000
v 8.57700000 2.10000000 9.73650000
v 8.57700000 2.75000000 8.96350000
v 8.57700000 2.75000000 9.73650000
v 12.51800000 2.10000000 8.96350000
v 12.51800000 2.10000000 9.73650000
v 12.51800000 2.75000000 8.96350000
v 12.51800000 2.75000000 9.73650000
f 170 172 169
f 173 170 169
f 169 172 171
f 171 173 169
f 170 176 172
f 174 170 173
f 174 176 170
f 172 176 171
f 175 173 171
f 171 176 175
f 175 174 173
f 176 174 175

o wall_W4_22
usemtl material_0
v 12.51800000 0.00000000 8.96350000
v 12.51800000 0.00000000 9.73650000
v 12.51800000 2.75000000 8.96350000
v 12.51800000 2.75000000 9.73650000
v 16.38200000 0.00000000 8.96350000
v 16.38200000 0.00000000 9.73650000
v 16.38200000 2.75000000 8.96350000
v 16.38200000 2.75000000 9.73650000
f 178 180 177
f 181 178 177
f 177 180 179
f 179 181 177
f 178 184 180
f 182 178 181
f 182 184 178
f 180 184 179
f 183 181 179
f 179 184 183
f 183 182 181
f 184 182 183

o wall_W5_23
usemtl material_0
v 32.64800000 0.00000000 15.29950000
v 32.64800000 0.00000000 15.84050000
v 32.64800000 2.75000000 15.29950000
v 32.64800000 2.75000000 15.84050000
v 33.84600000 0.00000000 15.29950000
v 33.84600000 0.00000000 15.84050000
v 33.84600000 2.75000000 15.29950000
v 33.84600000 2.75000000 15.84050000
f 186 188 185
f 189 186 185
f 185 188 187
f 187 189 185
f 186 192 188
f 190 186 189
f 190 192 186
f 188 192 187
f 191 189 187
f 187 192 191
f 191 190 189
f 192 190 191

o wall_W6_24
usemtl material_1
v 23.56800000 0.00000000 19.00950000
v 23.56800000 0.00000000 19.70450000
v 23.56800000 2.75000000 19.00950000
v 23.56800000 2.75000000 19.70450000
v 32.64800000 0.00000000 19.00950000
v 32.64800000 0.00000000 19.70450000
v 32.64800000 2.75000000 19.00950000
v 32.64800000 2.75000000 19.70450000
f 194 196 193
f 197 194 193
f 193 196 195
f 195 197 193
f 194 200 196
f 198 194 197
f 198 200 194
f 196 200 195
f 199 197 195
f 195 200 199
f 199 198 197
f 200 198 199

o wall_W7_25
usemtl material_1
v 32.64800000 0.00000000 19.00950000
v 32.64800000 0.00000000 19.70450000
v 32.64800000 2.75000000 19.00950000
v 32.64800000 2.75000000 19.70450000
v 33.03400000 0.00000000 19.00950000
v 33.03400000 0.00000000 19.70450000
v 33.03400000 2.75000000 19.00950000
v 33.03400000 2.75000000 19.70450000
f 202 204 201
f 205 202 201
f 201 204 203
f 203 205 201
f 202 208 204
f 206 202 205
f 206 208 202
f 204 208 203
f 207 205 203
f 203 208 207
f 207 206 205
f 208 206 207

o wall_W8_26
usemtl material_1
v 33.03400000 0.00000000 19.00950000
v 33.03400000 0.00000000 19.70450000
v 33.03400000 2.75000000 19.00950000
v 33.03400000 2.75000000 19.70450000
v 36.43400000 0.00000000 19.00950000
v 36.43400000 0.00000000 19.70450000
v 36.43400000 2.75000000 19.00950000
v 36.43400000 2.75000000 19.70450000
f 210 212 209
f 213 210 209
f 209 212 211
f 211 213 209
f 210 216 212
f 214 210 213
f 214 216 210
f 212 216 211
f 215 213 211
f 211 216 215
f 215 214 213
f 216 214 215

o wall_W9_27
usemtl material_1
v 0.73400000 0.00000000 22.06100000
v 0.73400000 0.00000000 22.67900000
v 0.73400000 2.75000000 22.06100000
v 0.73400000 2.75000000 22.67900000
v 4.86800000 0.00000000 22.06100000
v 4.86800000 0.00000000 22.67900000
v 4.86800000 2.75000000 22.06100000
v 4.86800000 2.75000000 22.67900000
f 218 220 217
f 221 218 217
f 217 220 219
f 219 221 217
f 218 224 220
f 222 218 221
f 222 224 218
f 220 224 219
f 223 221 219
f 219 224 223
f 223 222 221
f 224 222 223

o wall_W9_28
usemtl material_1
v 4.86800000 0.00000000 22.06100000
v 4.86800000 0.00000000 22.67900000
v 4.86800000 0.90000000 22.06100000
v 4.86800000 0.90000000 22.67900000
v 8.50000000 0.00000000 22.06100000
v 8.50000000 0.00000000 22.67900000
v 8.50000000 0.90000000 22.06100000
v 8.50000000 0.90000000 22.67900000
f 226 228 225
f 229 226 225
f 225 228 227
f 227 229 225
f 226 232 228
f 230 226 229
f 230 232 226
f 228 232 227
f 231 229 227
f 227 232 231
f 231 230 229
f 232 230 231

o wall_W9_29
usemtl material_1
v 4.86800000 2.10000000 22.06100000
v 4.86800000 2.10000000 22.67900000
v 4.86800000 2.75000000 22.06100000
v 4.86800000 2.75000000 22.67900000
v 8.50000000 2.10000000 22.06100000
v 8.50000000 2.10000000 22.67900000
v 8.50000000 2.75000000 22.06100000
v 8.50000000 2.75000000 22.67900000
f 234 236 233
f 237 234 233
f 233 236 235
f 235 237 233
f 234 240 236
f 238 234 237
f 238 240 234
f 236 240 235
f 239 237 235
f 235 240 239
f 239 238 237
f 240 238 239

o wall_W9_30
usemtl material_1
v 8.50000000 0.00000000 22.06100000
v 8.50000000 0.00000000 22.67900000
v 8.50000000 2.75000000 22.06100000
v 8.50000000 2.75000000 22.67900000
v 9.04100000 0.00000000 22.06100000
v 9.04100000 0.00000000 22.67900000
v 9.04100000 2.75000000 22.06100000
v 9.04100000 2.75000000 22.67900000
f 242 244 241
f 245 242 241
f 241 244 243
f 243 245 241
f 242 248 244
f 246 242 245
f 246 248 242
f 244 248 243
f 247 245 243
f 243 248 247
f 247 246 245
f 248 246 247

o wall_W10_31
usemtl material_1
v 41.76600000 0.00000000 25.96400000
v 41.76600000 0.00000000 26.58200000
v 41.76600000 2.75000000 25.96400000
v 41.76600000 2.75000000 26.58200000
v 48.95200000 0.00000000 25.96400000
v 48.95200000 0.00000000 26.58200000
v 48.95200000 2.75000000 25.96400000
v 48.95200000 2.75000000 26.58200000
f 250 252 249
f 253 250 249
f 249 252 251
f 251 253 249
f 250 256 252
f 254 250 253
f 254 256 250
f 252 256 251
f 255 253 251
f 251 256 255
f 255 254 253
f 256 254 255

o wall_W11_32
usemtl material_1
v 48.95200000 0.00000000 25.96400000
v 48.95200000 0.00000000 26.58200000
v 48.95200000 2.75000000 25.96400000
v 48.95200000 2.75000000 26.58200000
v 49.84100000 0.00000000 25.96400000
v 49.84100000 0.00000000 26.58200000
v 49.84100000 2.75000000 25.96400000
v 49.84100000 2.75000000 26.58200000
f 258 260 257
f 261 258 257
f 257 260 259
f 259 261 257
f 258 264 260
f 262 258 261
f 262 264 258
f 260 264 259
f 263 261 259
f 259 264 263
f 263 262 261
f 264 262 263

o wall_W11_33
usemtl material_1
v 49.84100000 0.00000000 25.96400000
v 49.84100000 0.00000000 26.58200000
v 49.84100000 0.90000000 25.96400000
v 49.84100000 0.90000000 26.58200000
v 53.62700000 0.00000000 25.96400000
v 53.62700000 0.00000000 26.58200000
v 53.62700000 0.90000000 25.96400000
v 53.62700000 0.90000000 26.58200000
f 266 268 265
f 269 266 265
f 265 268 267
f 267 269 265
f 266 272 268
f 270 266 269
f 270 272 266
f 268 272 267
f 271 269 267
f 267 272 271
f 271 270 269
f 272 270 271

o wall_W11_34
usemtl material_1
v 49.84100000 2.10000000 25.96400000
v 49.84100000 2.10000000 26.58200000
v 49.84100000 2.75000000 25.96400000
v 49.84100000 2.75000000 26.58200000
v 53.62700000 2.10000000 25.96400000
v 53.62700000 2.10000000 26.58200000
v 53.62700000 2.75000000 25.96400000
v 53.62700000 2.75000000 26.58200000
f 274 276 273
f 277 274 273
f 273 276 275
f 275 277 273
f 274 280 276
f 278 274 277
f 278 280 274
f 276 280 275
f 279 277 275
f 275 280 279
f 279 278 277
f 280 278 279

o wall_W11_35
usemtl material_1
v 53.62700000 0.00000000 25.96400000
v 53.62700000 0.00000000 26.58200000
v 53.62700000 2.75000000 25.96400000
v 53.62700000 2.75000000 26.58200000
v 64.36800000 0.00000000 25.96400000
v 64.36800000 0.00000000 26.58200000
v 64.36800000 2.75000000 25.96400000
v 64.36800000 2.75000000 26.58200000
f 282 284 281
f 285 282 281
f 281 284 283
f 283 285 281
f 282 288 284
f 286 282 285
f 286 288 282
f 284 288 283
f 287 285 283
f 283 288 287
f 287 286 285
f 288 286 287

o wall_W12_36
usemtl material_0
v 64.36800000 0.00000000 25.96400000
v 64.36800000 0.00000000 26.58200000
v 64.36800000 2.75000000 25.96400000
v 64.36800000 2.75000000 26.58200000
v 66.84100000 0.00000000 25.96400000
v 66.84100000 0.00000000 26.58200000
v 66.84100000 2.75000000 25.96400000
v 66.84100000 2.75000000 26.58200000
f 290 292 289
f 293 290 289
f 289 292 291
f 291 293 289
f 290 296 292
f 294 290 293
f 294 296 290
f 292 296 291
f 295 293 291
f 291 296 295
f 295 294 293
f 296 294 295

o wall_W13_37
usemtl material_1
v 9.04100000 0.00000000 26.15700000
v 9.04100000 0.00000000 26.77500000
v 9.04100000 2.75000000 26.15700000
v 9.04100000 2.75000000 26.77500000
v 11.47500000 0.00000000 26.15700000
v 11.47500000 0.00000000 26.77500000
v 11.47500000 2.75000000 26.15700000
v 11.47500000 2.75000000 26.77500000
f 298 300 297
f 301 298 297
f 297 300 299
f 299 301 297
f 298 304 300
f 302 298 301
f 302 304 298
f 300 304 299
f 303 301 299
f 299 304 303
f 303 302 301
f 304 302 303

o wall_W14_38
usemtl material_1
v 11.47500000 0.00000000 26.15700000
v 11.47500000 0.00000000 26.77500000
v 11.47500000 2.75000000 26.15700000
v 11.47500000 2.75000000 26.77500000
v 12.28600000 0.00000000 26.15700000
v 12.28600000 0.00000000 26.77500000
v 12.28600000 2.75000000 26.15700000
v 12.28600000 2.75000000 26.77500000
f 306 308 305
f 309 306 305
f 305 308 307
f 307 309 305
f 306 312 308
f 310 306 309
f 310 312 306
f 308 312 307
f 311 309 307
f 307 312 311
f 311 310 309
f 312 310 311

o wall_W14_39
usemtl material_1
v 12.28600000 0.00000000 26.15700000
v 12.28600000 0.00000000 26.77500000
v 12.28600000 0.90000000 26.15700000
v 12.28600000 0.90000000 26.77500000
v 15.84100000 0.00000000 26.15700000
v 15.84100000 0.00000000 26.77500000
v 15.84100000 0.90000000 26.15700000
v 15.84100000 0.90000000 26.77500000
f 314 316 313
f 317 314 313
f 313 316 315
f 315 317 313
f 314 320 316
f 318 314 317
f 318 320 314
f 316 320 315
f 319 317 315
f 315 320 319
f 319 318 317
f 320 318 319

o wall_W14_40
usemtl material_1
v 12.28600000 2.10000000 26.15700000
v 12.28600000 2.10000000 26.77500000
v 12.28600000 2.75000000 26.15700000
v 12.28600000 2.75000000 26.77500000
v 15.84100000 2.10000000 26.15700000
v 15.84100000 2.10000000 26.77500000
v 15.84100000 2.75000000 26.15700000
v 15.84100000 2.75000000 26.77500000
f 322 324 321
f 325 322 321
f 321 324 323
f 323 325 321
f 322 328 324
f 326 322 325
f 326 328 322
f 324 328 323
f 327 325 323
f 323 328 327
f 327 326 325
f 328 326 327

o wall_W14_41
usemtl material_1
v 15.84100000 0.00000000 26.15700000
v 15.84100000 0.00000000 26.77500000
v 15.84100000 2.75000000 26.15700000
v 15.84100000 2.75000000 26.77500000
v 16.38200000 0.00000000 26.15700000
v 16.38200000 0.00000000 26.77500000
v 16.38200000 2.75000000 26.15700000
v 16.38200000 2.75000000 26.77500000
f 330 332 329
f 333 330 329
f 329 332 331
f 331 333 329
f 330 336 332
f 334 330 333
f 334 336 330
f 332 336 331
f 335 333 331
f 331 336 335
f 335 334 333
f 336 334 335

o wall_W15_42
usemtl material_1
v 16.38200000 0.00000000 26.15700000
v 16.38200000 0.00000000 26.77500000
v 16.38200000 2.75000000 26.15700000
v 16.38200000 2.75000000 26.77500000
v 17.15500000 0.00000000 26.15700000
v 17.15500000 0.00000000 26.77500000
v 17.15500000 2.75000000 26.15700000
v 17.15500000 2.75000000 26.77500000
f 338 340 337
f 341 338 337
f 337 340 339
f 339 341 337
f 338 344 340
f 342 338 341
f 342 344 338
f 340 344 339
f 343 341 339
f 339 344 343
f 343 342 341
f 344 342 343

o wall_W15_43
usemtl material_1
v 17.15500000 0.00000000 26.15700000
v 17.15500000 0.00000000 26.77500000
v 17.15500000 0.90000000 26.15700000
v 17.15500000 0.90000000 26.77500000
v 20.71000000 0.00000000 26.15700000
v 20.71000000 0.00000000 26.77500000
v 20.71000000 0.90000000 26.15700000
v 20.71000000 0.90000000 26.77500000
f 346 348 345
f 349 346 345
f 345 348 347
f 347 349 345
f 346 352 348
f 350 346 349
f 350 352 346
f 348 352 347
f 351 349 347
f 347 352 351
f 351 350 349
f 352 350 351

o wall_W15_44
usemtl material_1
v 17.15500000 2.10000000 26.15700000
v 17.15500000 2.10000000 26.77500000
v 17.15500000 2.75000000 26.15700000
v 17.15500000 2.75000000 26.77500000
v 20.71000000 2.10000000 26.15700000
v 20.71000000 2.10000000 26.77500000
v 20.71000000 2.75000000 26.15700000
v 20.71000000 2.75000000 26.77500000
f 354 356 353
f 357 354 353
f 353 356 355
f 355 357 353
f 354 360 356
f 358 354 357
f 358 360 354
f 356 360 355
f 359 357 355
f 355 360 359
f 359 358 357
f 360 358 359

o wall_W15_45
usemtl material_1
v 20.71000000 0.00000000 26.15700000
v 20.71000000 0.00000000 26.77500000
v 20.71000000 2.75000000 26.15700000
v 20.71000000 2.75000000 26.77500000
v 23.56800000 0.00000000 26.15700000
v 23.56800000 0.00000000 26.77500000
v 23.56800000 2.75000000 26.15700000
v 23.56800000 2.75000000 26.77500000
f 362 364 361
f 365 362 361
f 361 364 363
f 363 365 361
f 362 368 364
f 366 362 365
f 366 368 362
f 364 368 363
f 367 365 363
f 363 368 367
f 367 366 365
f 368 366 367

o wall_W16_46
usemtl material_1
v 23.56800000 0.00000000 26.15700000
v 23.56800000 0.00000000 26.77500000
v 23.56800000 2.75000000 26.15700000
v 23.56800000 2.75000000 26.77500000
v 33.03400000 0.00000000 26.15700000
v 33.03400000 0.00000000 26.77500000
v 33.03400000 2.75000000 26.15700000
v 33.03400000 2.75000000 26.77500000
f 370 372 369
f 373 370 369
f 369 372 371
f 371 373 369
f 370 376 372
f 374 370 373
f 374 376 370
f 372 376 371
f 375 373 371
f 371 376 375
f 375 374 373
f 376 374 375

o wall_W17_47
usemtl material_1
v 0.73400000 0.00000000 28.82300000
v 0.73400000 0.00000000 29.44100000
v 0.73400000 2.75000000 28.82300000
v 0.73400000 2.75000000 29.44100000
v 2.35700000 0.00000000 28.82300000
v 2.35700000 0.00000000 29.44100000
v 2.35700000 2.75000000 28.82300000
v 2.35700000 2.75000000 29.44100000
f 378 380 377
f 381 378 377
f 377 380 379
f 379 381 377
f 378 384 380
f 382 378 381
f 382 384 378
f 380 384 379
f 383 381 379
f 379 384 383
f 383 382 381
f 384 382 383

o wall_W18_48
usemtl material_1
v 2.35700000 0.00000000 28.82300000
v 2.35700000 0.00000000 29.44100000
v 2.35700000 2.75000000 28.82300000
v 2.35700000 2.75000000 29.44100000
v 9.04100000 0.00000000 28.82300000
v 9.04100000 0.00000000 29.44100000
v 9.04100000 2.75000000 28.82300000
v 9.04100000 2.75000000 29.44100000
f 386 388 385
f 389 386 385
f 385 388 387
f 387 389 385
f 386 392 388
f 390 386 389
f 390 392 386
f 388 392 387
f 391 389 387
f 387 392 391
f 391 390 389
f 392 390 391

o wall_W19_49
usemtl material_1
v 9.04100000 0.00000000 31.48900000
v 9.04100000 0.00000000 32.10700000
v 9.04100000 2.75000000 31.48900000
v 9.04100000 2.75000000 32.10700000
v 11.47500000 0.00000000 31.48900000
v 11.47500000 0.00000000 32.10700000
v 11.47500000 2.75000000 31.48900000
v 11.47500000 2.75000000 32.10700000
f 394 396 393
f 397 394 393
f 393 396 395
f 395 397 393
f 394 400 396
f 398 394 397
f 398 400 394
f 396 400 395
f 399 397 395
f 395 400 399
f 399 398 397
f 400 398 399

o wall_W20_50
usemtl material_1
v 11.47500000 0.00000000 31.48900000
v 11.47500000 0.00000000 32.10700000
v 11.47500000 2.75000000 31.48900000
v 11.47500000 2.75000000 32.10700000
v 12.28600000 0.00000000 31.48900000
v 12.28600000 0.00000000 32.10700000
v 12.28600000 2.75000000 31.48900000
v 12.28600000 2.75000000 32.10700000
f 402 404 401
f 405 402 401
f 401 404 403
f 403 405 401
f 402 408 404
f 406 402 405
f 406 408 402
f 404 408 403
f 407 405 403
f 403 408 407
f 407 406 405
f 408 406 407

o wall_W20_51
usemtl material_1
v 12.28600000 0.00000000 31.48900000
v 12.28600000 0.00000000 32.10700000
v 12.28600000 0.90000000 31.48900000
v 12.28600000 0.90000000 32.10700000
v 15.91800000 0.00000000 31.48900000
v 15.91800000 0.00000000 32.10700000
v 15.91800000 0.90000000 31.48900000
v 15.91800000 0.90000000 32.10700000
f 410 412 409
f 413 410 409
f 409 412 411
f 411 413 409
f 410 416 412
f 414 410 413
f 414 416 410
f 412 416 411
f 415 413 411
f 411 416 415
f 415 414 413
f 416 414 415

o wall_W20_52
usemtl material_1
v 12.28600000 2.10000000 31.48900000
v 12.28600000 2.10000000 32.10700000
v 12.28600000 2.75000000 31.48900000
v 12.28600000 2.75000000 32.10700000
v 15.91800000 2.10000000 31.48900000
v 15.91800000 2.10000000 32.10700000
v 15.91800000 2.75000000 31.48900000
v 15.91800000 2.75000000 32.10700000
f 418 420 417
f 421 418 417
f 417 420 419
f 419 421 417
f 418 424 420
f 422 418 421
f 422 424 418
f 420 424 419
f 423 421 419
f 419 424 423
f 423 422 421
f 424 422 423

o wall_W20_53
usemtl material_1
v 15.91800000 0.00000000 31.48900000
v 15.91800000 0.00000000 32.10700000
v 15.91800000 2.75000000 31.48900000
v 15.91800000 2.75000000 32.10700000
v 16.73000000 0.00000000 31.48900000
v 16.73000000 0.00000000 32.10700000
v 16.73000000 2.75000000 31.48900000
v 16.73000000 2.75000000 32.10700000
f 426 428 425
f 429 426 425
f 425 428 427
f 427 429 425
f 426 432 428
f 430 426 429
f 430 432 426
f 428 432 427
f 431 429 427
f 427 432 431
f 431 430 429
f 432 430 431

o wall_W21_54
usemtl material_1
v 16.73000000 0.00000000 31.48900000
v 16.73000000 0.00000000 32.10700000
v 16.73000000 2.75000000 31.48900000
v 16.73000000 2.75000000 32.10700000
v 21.25000000 0.00000000 31.48900000
v 21.25000000 0.00000000 32.10700000
v 21.25000000 2.75000000 31.48900000
v 21.25000000 2.75000000 32.10700000
f 434 436 433
f 437 434 433
f 433 436 435
f 435 437 433
f 434 440 436
f 438 434 437
f 438 440 434
f 436 440 435
f 439 437 435
f 435 440 439
f 439 438 437
f 440 438 439

o wall_W22_55
usemtl material_1
v 0.73400000 0.00000000 32.87950000
v 0.73400000 0.00000000 33.42050000
v 0.73400000 2.75000000 32.87950000
v 0.73400000 2.75000000 33.42050000
v 2.35700000 0.00000000 32.87950000
v 2.35700000 0.00000000 33.42050000
v 2.35700000 2.75000000 32.87950000
v 2.35700000 2.75000000 33.42050000
f 442 444 441
f 445 442 441
f 441 444 443
f 443 445 441
f 442 448 444
f 446 442 445
f 446 448 442
f 444 448 443
f 447 445 443
f 443 448 447
f 447 446 445
f 448 446 447

o wall_W23_56
usemtl material_1
v 41.76600000 0.00000000 32.84100000
v 41.76600000 0.00000000 33.45900000
v 41.76600000 2.75000000 32.84100000
v 41.76600000 2.75000000 33.45900000
v 48.95200000 0.00000000 32.84100000
v 48.95200000 0.00000000 33.45900000
v 48.95200000 2.75000000 32.84100000
v 48.95200000 2.75000000 33.45900000
f 450 452 449
f 453 450 449
f 449 452 451
f 451 453 449
f 450 456 452
f 454 450 453
f 454 456 450
f 452 456 451
f 455 453 451
f 451 456 455
f 455 454 453
f 456 454 455

o wall_W24_57
usemtl material_1
v 35.39100000 0.00000000 33.07250000
v 35.39100000 0.00000000 33.76750000
v 35.39100000 2.75000000 33.07250000
v 35.39100000 2.75000000 33.76750000
v 39.13900000 0.00000000 33.07250000
v 39.13900000 0.00000000 33.76750000
v 39.13900000 2.75000000 33.07250000
v 39.13900000 2.75000000 33.76750000
f 458 460 457
f 461 458 457
f 457 460 459
f 459 461 457
f 458 464 460
f 462 458 461
f 462 464 458
f 460 464 459
f 463 461 459
f 459 464 463
f 463 462 461
f 464 462 463

o wall_W25_58
usemtl material_1
v 39.13900000 0.00000000 33.07250000
v 39.13900000 0.00000000 33.76750000
v 39.13900000 2.75000000 33.07250000
v 39.13900000 2.75000000 33.76750000
v 41.76600000 0.00000000 33.07250000
v 41.76600000 0.00000000 33.76750000
v 41.76600000 2.75000000 33.07250000
v 41.76600000 2.75000000 33.76750000
f 466 468 465
f 469 466 465
f 465 468 467
f 467 469 465
f 466 472 468
f 470 466 469
f 470 472 466
f 468 472 467
f 471 469 467
f 467 472 471
f 471 470 469
f 472 470 471

o wall_W26_59
usemtl material_0
v 31.99100000 0.00000000 34.54050000
v 31.99100000 0.00000000 35.31350000
v 31.99100000 2.75000000 34.54050000
v 31.99100000 2.75000000 35.31350000
v 35.08200000 0.00000000 34.54050000
v 35.08200000 0.00000000 35.31350000
v 35.08200000 2.75000000 34.54050000
v 35.08200000 2.75000000 35.31350000
f 474 476 473
f 477 474 473
f 473 476 475
f 475 477 473
f 474 480 476
f 478 474 477
f 478 480 474
f 476 480 475
f 479 477 475
f 475 480 479
f 479 478 477
f 480 478 479

o wall_W27_60
usemtl material_0
v 0.73400000 0.00000000 39.48600000
v 0.73400000 0.00000000 40.95400000
v 0.73400000 2.75000000 39.48600000
v 0.73400000 2.75000000 40.95400000
v 16.72900000 0.00000000 39.48600000
v 16.72900000 0.00000000 40.95400000
v 16.72900000 2.75000000 39.48600000
v 16.72900000 2.75000000 40.95400000
f 482 484 481
f 485 482 481
f 481 484 483
f 483 485 481
f 482 488 484
f 486 482 485
f 486 488 482
f 484 488 483
f 487 485 483
f 483 488 487
f 487 486 485
f 488 486 487

o wall_W28_61
usemtl material_0
v 16.73000000 0.00000000 39.48600000
v 16.73000000 0.00000000 40.95400000
v 16.73000000 2.75000000 39.48600000
v 16.73000000 2.75000000 40.95400000
v 21.01800000 0.00000000 39.48600000
v 21.01800000 0.00000000 40.95400000
v 21.01800000 2.75000000 39.48600000
v 21.01800000 2.75000000 40.95400000
f 490 492 489
f 493 490 489
f 489 492 491
f 491 493 489
f 490 496 492
f 494 490 493
f 494 496 490
f 492 496 491
f 495 493 491
f 491 496 495
f 495 494 493
f 496 494 495

o wall_W28_62
usemtl material_0
v 21.01800000 2.10000000 39.48600000
v 21.01800000 2.10000000 40.95400000
v 21.01800000 2.75000000 39.48600000
v 21.01800000 2.75000000 40.95400000
v 21.25000000 2.10000000 39.48600000
v 21.25000000 2.10000000 40.95400000
v 21.25000000 2.75000000 39.48600000
v 21.25000000 2.75000000 40.95400000
f 498 500 497
f 501 498 497
f 497 500 499
f 499 501 497
f 498 504 500
f 502 498 501
f 502 504 498
f 500 504 499
f 503 501 499
f 499 504 503
f 503 502 501
f 504 502 503

o wall_W29_63
usemtl material_0
v 21.25000000 0.00000000 39.48600000
v 21.25000000 0.00000000 40.95400000
v 21.25000000 2.75000000 39.48600000
v 21.25000000 2.75000000 40.95400000
v 23.64500000 0.00000000 39.48600000
v 23.64500000 0.00000000 40.95400000
v 23.64500000 2.75000000 39.48600000
v 23.64500000 2.75000000 40.95400000
f 506 508 505
f 509 506 505
f 505 508 507
f 507 509 505
f 506 512 508
f 510 506 509
f 510 512 506
f 508 512 507
f 511 509 507
f 507 512 511
f 511 510 509
f 512 510 511

o wall_W29_64
usemtl material_0
v 23.64500000 0.00000000 39.48600000
v 23.64500000 0.00000000 40.95400000
v 23.64500000 0.90000000 39.48600000
v 23.64500000 0.90000000 40.95400000
v 27.43100000 0.00000000 39.48600000
v 27.43100000 0.00000000 40.95400000
v 27.43100000 0.90000000 39.48600000
v 27.43100000 0.90000000 40.95400000
f 514 516 513
f 517 514 513
f 513 516 515
f 515 517 513
f 514 520 516
f 518 514 517
f 518 520 514
f 516 520 515
f 519 517 515
f 515 520 519
f 519 518 517
f 520 518 519

o wall_W29_65
usemtl material_0
v 23.64500000 2.10000000 39.48600000
v 23.64500000 2.10000000 40.95400000
v 23.64500000 2.75000000 39.48600000
v 23.64500000 2.75000000 40.95400000
v 27.43100000 2.10000000 39.48600000
v 27.43100000 2.10000000 40.95400000
v 27.43100000 2.75000000 39.48600000
v 27.43100000 2.75000000 40.95400000
f 522 524 521
f 525 522 521
f 521 524 523
f 523 525 521
f 522 528 524
f 526 522 525
f 526 528 522
f 524 528 523
f 527 525 523
f 523 528 527
f 527 526 525
f 528 526 527

o wall_W29_66
usemtl material_0
v 27.43100000 0.00000000 39.48600000
v 27.43100000 0.00000000 40.95400000
v 27.43100000 2.75000000 39.48600000
v 27.43100000 2.75000000 40.95400000
v 31.99100000 0.00000000 39.48600000
v 31.99100000 0.00000000 40.95400000
v 31.99100000 2.75000000 39.48600000
v 31.99100000 2.75000000 40.95400000
f 530 532 529
f 533 530 529
f 529 532 531
f 531 533 529
f 530 536 532
f 534 530 533
f 534 536 530
f 532 536 531
f 535 533 531
f 531 536 535
f 535 534 533
f 536 534 535

o wall_W30_67
usemtl material_0
v 35.08200000 0.00000000 40.83850000
v 35.08200000 0.00000000 41.53350000
v 35.08200000 2.75000000 40.83850000
v 35.08200000 2.75000000 41.53350000
v 39.13900000 0.00000000 40.83850000
v 39.13900000 0.00000000 41.53350000
v 39.13900000 2.75000000 40.83850000
v 39.13900000 2.75000000 41.53350000
f 538 540 537
f 541 538 537
f 537 540 539
f 539 541 537
f 538 544 540
f 542 538 541
f 542 544 538
f 540 544 539
f 543 541 539
f 539 544 543
f 543 542 541
f 544 542 543

o wall_W31_68
usemtl material_0
v 39.13900000 0.00000000 40.83850000
v 39.13900000 0.00000000 41.53350000
v 39.13900000 2.75000000 40.83850000
v 39.13900000 2.75000000 41.53350000
v 48.95300000 0.00000000 40.83850000
v 48.95300000 0.00000000 41.53350000
v 48.95300000 2.75000000 40.83850000
v 48.95300000 2.75000000 41.53350000
f 546 548 545
f 549 546 545
f 545 548 547
f 547 549 545
f 546 552 548
f 550 546 549
f 550 552 546
f 548 552 547
f 551 549 547
f 547 552 551
f 551 550 549
f 552 550 551

o wall_W32_69
usemtl material_0
v 48.95200000 0.00000000 41.34050000
v 48.95200000 0.00000000 42.11350000
v 48.95200000 2.75000000 41.34050000
v 48.95200000 2.75000000 42.11350000
v 64.36800000 0.00000000 41.34050000
v 64.36800000 0.00000000 42.11350000
v 64.36800000 2.75000000 41.34050000
v 64.36800000 2.75000000 42.11350000
f 554 556 553
f 557 554 553
f 553 556 555
f 555 557 553
f 554 560 556
f 558 554 557
f 558 560 554
f 556 560 555
f 559 557 555
f 555 560 559
f 559 558 557
f 560 558 559

o wall_W33_70
usemtl material_0
v 32.37700000 0.00000000 41.41850000
v 32.37700000 0.00000000 42.19150000
v 32.37700000 2.75000000 41.41850000
v 32.37700000 2.75000000 42.19150000
v 35.08200000 0.00000000 41.41850000
v 35.08200000 0.00000000 42.19150000
v 35.08200000 2.75000000 41.41850000
v 35.08200000 2.75000000 42.19150000
f 562 564 561
f 565 562 561
f 561 564 563
f 563 565 561
f 562 568 564
f 566 562 565
f 566 568 562
f 564 568 563
f 567 565 563
f 563 568 567
f 567 566 565
f 568 566 567

o wall_W34_71
usemtl material_0
v 0.15450000 0.00000000 9.35000000
v 0.15450000 0.00000000 22.37000000
v 0.15450000 2.75000000 9.35000000
v 0.15450000 2.75000000 22.37000000
v 1.31350000 0.00000000 9.35000000
v 1.31350000 0.00000000 22.37000000
v 1.31350000 2.75000000 9.35000000
v 1.31350000 2.75000000 22.37000000
f 570 572 569
f 573 570 569
f 569 572 571
f 571 573 569
f 570 576 572
f 574 570 573
f 574 576 570
f 572 576 571
f 575 573 571
f 571 576 575
f 575 574 573
f 576 574 575

o wall_W35_72
usemtl material_0
v 0.15450000 0.00000000 22.37000000
v 0.15450000 0.00000000 29.13100000
v 0.15450000 2.75000000 22.37000000
v 0.15450000 2.75000000 29.13100000
v 1.31350000 0.00000000 22.37000000
v 1.31350000 0.00000000 29.13100000
v 1.31350000 2.75000000 22.37000000
v 1.31350000 2.75000000 29.13100000
f 578 580 577
f 581 578 577
f 577 580 579
f 579 581 577
f 578 584 580
f 582 578 581
f 582 584 578
f 580 584 579
f 583 581 579
f 579 584 583
f 583 582 581
f 584 582 583

o wall_W36_73
usemtl material_0
v 0.15450000 0.00000000 29.13200000
v 0.15450000 0.00000000 33.15000000
v 0.15450000 2.75000000 29.13200000
v 0.15450000 2.75000000 33.15000000
v 1.31350000 0.00000000 29.13200000
v 1.31350000 0.00000000 33.15000000
v 1.31350000 2.75000000 29.13200000
v 1.31350000 2.75000000 33.15000000
f 586 588 585
f 589 586 585
f 585 588 587
f 587 589 585
f 586 592 588
f 590 586 589
f 590 592 586
f 588 592 587
f 591 589 587
f 587 592 591
f 591 590 589
f 592 590 591

o wall_W37_74
usemtl material_0
v 0.15450000 0.00000000 33.15000000
v 0.15450000 0.00000000 40.22000000
v 0.15450000 2.75000000 33.15000000
v 0.15450000 2.75000000 40.22000000
v 1.31350000 0.00000000 33.15000000
v 1.31350000 0.00000000 40.22000000
v 1.31350000 2.75000000 33.15000000
v 1.31350000 2.75000000 40.22000000
f 594 596 593
f 597 594 593
f 593 596 595
f 595 597 593
f 594 600 596
f 598 594 597
f 598 600 594
f 596 600 595
f 599 597 595
f 595 600 599
f 599 598 597
f 600 598 599

o wall_W38_75
usemtl material_1
v 2.08650000 0.00000000 29.13200000
v 2.08650000 0.00000000 33.15000000
v 2.08650000 2.75000000 29.13200000
v 2.08650000 2.75000000 33.15000000
v 2.62750000 0.00000000 29.13200000
v 2.62750000 0.00000000 33.15000000
v 2.62750000 2.75000000 29.13200000
v 2.62750000 2.75000000 33.15000000
f 602 604 601
f 605 602 601
f 601 604 603
f 603 605 601
f 602 608 604
f 606 602 605
f 606 608 602
f 604 608 603
f 607 605 603
f 603 608 607
f 607 606 605
f 608 606 607

o wall_W39_76
usemtl material_1
v 8.77050000 0.00000000 22.37000000
v 8.77050000 0.00000000 26.46500000
v 8.77050000 2.75000000 22.37000000
v 8.77050000 2.75000000 26.46500000
v 9.31150000 0.00000000 22.37000000
v 9.31150000 0.00000000 26.46500000
v 9.31150000 2.75000000 22.37000000
v 9.31150000 2.75000000 26.46500000
f 610 612 609
f 613 610 609
f 609 612 611
f 611 613 609
f 610 616 612
f 614 610 613
f 614 616 610
f 612 616 611
f 615 613 611
f 611 616 615
f 615 614 613
f 616 614 615

o wall_W40_77
usemtl material_1
v 8.77050000 0.00000000 26.46600000
v 8.77050000 0.00000000 29.13200000
v 8.77050000 2.75000000 26.46600000
v 8.77050000 2.75000000 29.13200000
v 9.31150000 0.00000000 26.46600000
v 9.31150000 0.00000000 29.13200000
v 9.31150000 2.75000000 26.46600000
v 9.31150000 2.75000000 29.13200000
f 618 620 617
f 621 618 617
f 617 620 619
f 619 621 617
f 618 624 620
f 622 618 621
f 622 624 618
f 620 624 619
f 623 621 619
f 619 624 623
f 623 622 621
f 624 622 623

o wall_W41_78
usemtl material_1
v 8.77050000 0.00000000 29.13200000
v 8.77050000 0.00000000 31.79800000
v 8.77050000 2.75000000 29.13200000
v 8.77050000 2.75000000 31.79800000
v 9.31150000 0.00000000 29.13200000
v 9.31150000 0.00000000 31.79800000
v 9.31150000 2.75000000 29.13200000
v 9.31150000 2.75000000 31.79800000
f 626 628 625
f 629 626 625
f 625 628 627
f 627 629 625
f 626 632 628
f 630 626 629
f 630 632 626
f 628 632 627
f 631 629 627
f 627 632 631
f 631 630 629
f 632 630 631

o wall_W42_79
usemtl material_1
v 8.77050000 0.00000000 31.79800000
v 8.77050000 0.00000000 33.38200000
v 8.77050000 2.75000000 31.79800000
v 8.77050000 2.75000000 33.38200000
v 9.31150000 0.00000000 31.79800000
v 9.31150000 0.00000000 33.38200000
v 9.31150000 2.75000000 31.79800000
v 9.31150000 2.75000000 33.38200000
f 634 636 633
f 637 634 633
f 633 636 635
f 635 637 633
f 634 640 636
f 638 634 637
f 638 640 634
f 636 640 635
f 639 637 635
f 635 640 639
f 639 638 637
f 640 638 639

o wall_W43_80
usemtl material_1
v 11.12750000 0.00000000 26.46600000
v 11.12750000 0.00000000 27.81800000
v 11.12750000 2.75000000 26.46600000
v 11.12750000 2.75000000 27.81800000
v 11.82250000 0.00000000 26.46600000
v 11.82250000 0.00000000 27.81800000
v 11.82250000 2.75000000 26.46600000
v 11.82250000 2.75000000 27.81800000
f 642 644 641
f 645 642 641
f 641 644 643
f 643 645 641
f 642 648 644
f 646 642 645
f 646 648 642
f 644 648 643
f 647 645 643
f 643 648 647
f 647 646 645
f 648 646 647

o wall_W43_81
usemtl material_1
v 11.12750000 0.00000000 27.81800000
v 11.12750000 0.00000000 30.36800000
v 11.12750000 0.90000000 27.81800000
v 11.12750000 0.90000000 30.36800000
v 11.82250000 0.00000000 27.81800000
v 11.82250000 0.00000000 30.36800000
v 11.82250000 0.90000000 27.81800000
v 11.82250000 0.90000000 30.36800000
f 650 652 649
f 653 650 649
f 649 652 651
f 651 653 649
f 650 656 652
f 654 650 653
f 654 656 650
f 652 656 651
f 655 653 651
f 651 656 655
f 655 654 653
f 656 654 655

o wall_W43_82
usemtl material_1
v 11.12750000 2.10000000 27.81800000
v 11.12750000 2.10000000 30.36800000
v 11.12750000 2.75000000 27.81800000
v 11.12750000 2.75000000 30.36800000
v 11.82250000 2.10000000 27.81800000
v 11.82250000 2.10000000 30.36800000
v 11.82250000 2.75000000 27.81800000
v 11.82250000 2.75000000 30.36800000
f 658 660 657
f 661 658 657
f 657 660 659
f 659 661 657
f 658 664 660
f 662 658 661
f 662 664 658
f 660 664 659
f 663 661 659
f 659 664 663
f 663 662 661
f 664 662 663

o wall_W43_83
usemtl material_1
v 11.12750000 2.10000000 27.89500000
v 11.12750000 2.10000000 28.20400000
v 11.12750000 2.75000000 27.89500000
v 11.12750000 2.75000000 28.20400000
v 11.82250000 2.10000000 27.89500000
v 11.82250000 2.10000000 28.20400000
v 11.82250000 2.75000000 27.89500000
v 11.82250000 2.75000000 28.20400000
f 666 668 665
f 669 666 665
f 665 668 667
f 667 669 665
f 666 672 668
f 670 666 669
f 670 672 666
f 668 672 667
f 671 669 667
f 667 672 671
f 671 670 669
f 672 670 671

o wall_W43_84
usemtl material_1
v 11.12750000 2.10000000 28.35900000
v 11.12750000 2.10000000 28.90000000
v 11.12750000 2.75000000 28.35900000
v 11.12750000 2.75000000 28.90000000
v 11.82250000 2.10000000 28.35900000
v 11.82250000 2.10000000 28.90000000
v 11.82250000 2.75000000 28.35900000
v 11.82250000 2.75000000 28.90000000
f 674 676 673
f 677 674 673
f 673 676 675
f 675 677 673
f 674 680 676
f 678 674 677
f 678 680 674
f 676 680 675
f 679 677 675
f 675 680 679
f 679 678 677
f 680 678 679

o wall_W43_85
usemtl material_1
v 11.12750000 0.00000000 30.36800000
v 11.12750000 0.00000000 31.79800000
v 11.12750000 2.75000000 30.36800000
v 11.12750000 2.75000000 31.79800000
v 11.82250000 0.00000000 30.36800000
v 11.82250000 0.00000000 31.79800000
v 11.82250000 2.75000000 30.36800000
v 11.82250000 2.75000000 31.79800000
f 682 684 681
f 685 682 681
f 681 684 683
f 683 685 681
f 682 688 684
f 686 682 685
f 686 688 682
f 684 688 683
f 687 685 683
f 683 688 687
f 687 686 685
f 688 686 687

o wall_W44_86
usemtl material_0
v 16.03450000 0.00000000 4.63600000
v 16.03450000 0.00000000 9.35000000
v 16.03450000 2.75000000 4.63600000
v 16.03450000 2.75000000 9.35000000
v 16.72950000 0.00000000 4.63600000
v 16.72950000 0.00000000 9.35000000
v 16.72950000 2.75000000 4.63600000
v 16.72950000 2.75000000 9.35000000
f 690 692 689
f 693 690 689
f 689 692 691
f 691 693 689
f 690 696 692
f 694 690 693
f 694 696 690
f 692 696 691
f 695 693 691
f 691 696 695
f 695 694 693
f 696 694 695

o wall_W45_87
usemtl material_1
v 16.03450000 0.00000000 9.35000000
v 16.03450000 0.00000000 26.46600000
v 16.03450000 2.75000000 9.35000000
v 16.03450000 2.75000000 26.46600000
v 16.72950000 0.00000000 9.35000000
v 16.72950000 0.00000000 26.46600000
v 16.72950000 2.75000000 9.35000000
v 16.72950000 2.75000000 26.46600000
f 698 700 697
f 701 698 697
f 697 700 699
f 699 701 697
f 698 704 700
f 702 698 701
f 702 704 698
f 700 704 699
f 703 701 699
f 699 704 703
f 703 702 701
f 704 702 703

o wall_W46_88
usemtl material_1
v 16.26650000 0.00000000 31.79800000
v 16.26650000 0.00000000 40.22100000
v 16.26650000 2.75000000 31.79800000
v 16.26650000 2.75000000 40.22100000
v 17.19350000 0.00000000 31.79800000
v 17.19350000 0.00000000 40.22100000
v 17.19350000 2.75000000 31.79800000
v 17.19350000 2.75000000 40.22100000
f 706 708 705
f 709 706 705
f 705 708 707
f 707 709 705
f 706 712 708
f 710 706 709
f 710 712 706
f 708 712 707
f 711 709 707
f 707 712 711
f 711 710 709
f 712 710 711

o wall_W47_89
usemtl material_1
v 20.97950000 0.00000000 31.79800000
v 20.97950000 0.00000000 33.15000000
v 20.97950000 2.75000000 31.79800000
v 20.97950000 2.75000000 33.15000000
v 21.52050000 0.00000000 31.79800000
v 21.52050000 0.00000000 33.15000000
v 21.52050000 2.75000000 31.79800000
v 21.52050000 2.75000000 33.15000000
f 714 716 713
f 717 714 713
f 713 716 715
f 715 717 713
f 714 720 716
f 718 714 717
f 718 720 714
f 716 720 715
f 719 717 715
f 715 720 719
f 719 718 717
f 720 718 719

o wall_W47_90
usemtl material_1
v 20.97950000 2.10000000 33.15000000
v 20.97950000 2.10000000 34.54100000
v 20.97950000 2.75000000 33.15000000
v 20.97950000 2.75000000 34.54100000
v 21.52050000 2.10000000 33.15000000
v 21.52050000 2.10000000 34.54100000
v 21.52050000 2.75000000 33.15000000
v 21.52050000 2.75000000 34.54100000
f 722 724 721
f 725 722 721
f 721 724 723
f 723 725 721
f 722 728 724
f 726 722 725
f 726 728 722
f 724 728 723
f 727 725 723
f 723 728 727
f 727 726 725
f 728 726 727

o wall_W49_91
usemtl material_1
v 23.22050000 0.00000000 19.35700000
v 23.22050000 0.00000000 20.40000000
v 23.22050000 2.75000000 19.35700000
v 23.22050000 2.75000000 20.40000000
v 23.91550000 0.00000000 19.35700000
v 23.91550000 0.00000000 20.40000000
v 23.91550000 2.75000000 19.35700000
v 23.91550000 2.75000000 20.40000000
f 730 732 729
f 733 730 729
f 729 732 731
f 731 733 729
f 730 736 732
f 734 730 733
f 734 736 730
f 732 736 731
f 735 733 731
f 731 736 735
f 735 734 733
f 736 734 735

o wall_W49_92
usemtl material_1
v 23.22050000 0.00000000 20.40000000
v 23.22050000 0.00000000 24.03200000
v 23.22050000 0.90000000 20.40000000
v 23.22050000 0.90000000 24.03200000
v 23.91550000 0.00000000 20.40000000
v 23.91550000 0.00000000 24.03200000
v 23.91550000 0.90000000 20.40000000
v 23.91550000 0.90000000 24.03200000
f 738 740 737
f 741 738 737
f 737 740 739
f 739 741 737
f 738 744 740
f 742 738 741
f 742 744 738
f 740 744 739
f 743 741 739
f 739 744 743
f 743 742 741
f 744 742 743

o wall_W49_93
usemtl material_1
v 23.22050000 2.10000000 20.40000000
v 23.22050000 2.10000000 24.03200000
v 23.22050000 2.75000000 20.40000000
v 23.22050000 2.75000000 24.03200000
v 23.91550000 2.10000000 20.40000000
v 23.91550000 2.10000000 24.03200000
v 23.91550000 2.75000000 20.40000000
v 23.91550000 2.75000000 24.03200000
f 746 748 745
f 749 746 745
f 745 748 747
f 747 749 745
f 746 752 748
f 750 746 749
f 750 752 746
f 748 752 747
f 751 749 747
f 747 752 751
f 751 750 749
f 752 750 751

o wall_W49_94
usemtl material_1
v 23.22050000 0.00000000 24.03200000
v 23.22050000 0.00000000 26.46600000
v 23.22050000 2.75000000 24.03200000
v 23.22050000 2.75000000 26.46600000
v 23.91550000 0.00000000 24.03200000
v 23.91550000 0.00000000 26.46600000
v 23.91550000 2.75000000 24.03200000
v 23.91550000 2.75000000 26.46600000
f 754 756 753
f 757 754 753
f 753 756 755
f 755 757 753
f 754 760 756
f 758 754 757
f 758 760 754
f 756 760 755
f 759 757 755
f 755 760 759
f 759 758 757
f 760 758 759

o wall_W50_95
usemtl material_0
v 31.68200000 0.00000000 34.92700000
v 31.68200000 0.00000000 36.39500000
v 31.68200000 2.75000000 34.92700000
v 31.68200000 2.75000000 36.39500000
v 32.30000000 0.00000000 34.92700000
v 32.30000000 0.00000000 36.39500000
v 32.30000000 2.75000000 34.92700000
v 32.30000000 2.75000000 36.39500000
f 762 764 761
f 765 762 761
f 761 764 763
f 763 765 761
f 762 768 764
f 766 762 765
f 766 768 762
f 764 768 763
f 767 765 763
f 763 768 767
f 767 766 765
f 768 766 767

o wall_W50_96
usemtl material_0
v 31.68200000 0.00000000 36.39500000
v 31.68200000 0.00000000 39.56300000
v 31.68200000 0.90000000 36.39500000
v 31.68200000 0.90000000 39.56300000
v 32.30000000 0.00000000 36.39500000
v 32.30000000 0.00000000 39.56300000
v 32.30000000 0.90000000 36.39500000
v 32.30000000 0.90000000 39.56300000
f 770 772 769
f 773 770 769
f 769 772 771
f 771 773 769
f 770 776 772
f 774 770 773
f 774 776 770
f 772 776 771
f 775 773 771
f 771 776 775
f 775 774 773
f 776 774 775

o wall_W50_97
usemtl material_0
v 31.68200000 2.10000000 36.39500000
v 31.68200000 2.10000000 39.56300000
v 31.68200000 2.75000000 36.39500000
v 31.68200000 2.75000000 39.56300000
v 32.30000000 2.10000000 36.39500000
v 32.30000000 2.10000000 39.56300000
v 32.30000000 2.75000000 36.39500000
v 32.30000000 2.75000000 39.56300000
f 778 780 777
f 781 778 777
f 777 780 779
f 779 781 777
f 778 784 780
f 782 778 781
f 782 784 778
f 780 784 779
f 783 781 779
f 779 784 783
f 783 782 781
f 784 782 783

o wall_W50_98
usemtl material_0
v 31.68200000 0.00000000 39.56300000
v 31.68200000 0.00000000 40.22000000
v 31.68200000 2.75000000 39.56300000
v 31.68200000 2.75000000 40.22000000
v 32.30000000 0.00000000 39.56300000
v 32.30000000 0.00000000 40.22000000
v 32.30000000 2.75000000 39.56300000
v 32.30000000 2.75000000 40.22000000
f 786 788 785
f 789 786 785
f 785 788 787
f 787 789 785
f 786 792 788
f 790 786 789
f 790 792 786
f 788 792 787
f 791 789 787
f 787 792 791
f 791 790 789
f 792 790 791

o wall_W51_99
usemtl material_0
v 32.30050000 0.00000000 4.63600000
v 32.30050000 0.00000000 6.72200000
v 32.30050000 2.75000000 4.63600000
v 32.30050000 2.75000000 6.72200000
v 32.99550000 0.00000000 4.63600000
v 32.99550000 0.00000000 6.72200000
v 32.99550000 2.75000000 4.63600000
v 32.99550000 2.75000000 6.72200000
f 794 796 793
f 797 794 793
f 793 796 795
f 795 797 793
f 794 800 796
f 798 794 797
f 798 800 794
f 796 800 795
f 799 797 795
f 795 800 799
f 799 798 797
f 800 798 799

o wall_W52_100
usemtl material_0
v 32.33900000 0.00000000 7.49500000
v 32.33900000 0.00000000 15.57000000
v 32.33900000 2.75000000 7.49500000
v 32.33900000 2.75000000 15.57000000
v 32.95700000 0.00000000 7.49500000
v 32.95700000 0.00000000 15.57000000
v 32.95700000 2.75000000 7.49500000
v 32.95700000 2.75000000 15.57000000
f 802 804 801
f 805 802 801
f 801 804 803
f 803 805 801
f 802 808 804
f 806 802 805
f 806 808 802
f 804 808 803
f 807 805 803
f 803 808 807
f 807 806 805
f 808 806 807

o wall_W53_101
usemtl material_1
v 32.33900000 0.00000000 15.57000000
v 32.33900000 0.00000000 19.35600000
v 32.33900000 2.75000000 15.57000000
v 32.33900000 2.75000000 19.35600000
v 32.95700000 0.00000000 15.57000000
v 32.95700000 0.00000000 19.35600000
v 32.95700000 2.75000000 15.57000000
v 32.95700000 2.75000000 19.35600000
f 810 812 809
f 813 810 809
f 809 812 811
f 811 813 809
f 810 816 812
f 814 810 813
f 814 816 810
f 812 816 811
f 815 813 811
f 811 816 815
f 815 814 813
f 816 814 815

o wall_W54_102
usemtl material_1
v 32.33850000 0.00000000 19.35700000
v 32.33850000 0.00000000 26.46600000
v 32.33850000 2.75000000 19.35700000
v 32.33850000 2.75000000 26.46600000
v 33.72950000 0.00000000 19.35700000
v 33.72950000 0.00000000 26.46600000
v 33.72950000 2.75000000 19.35700000
v 33.72950000 2.75000000 26.46600000
f 818 820 817
f 821 818 817
f 817 820 819
f 819 821 817
f 818 824 820
f 822 818 821
f 822 824 818
f 820 824 819
f 823 821 819
f 819 824 823
f 823 822 821
f 824 822 823

o wall_W55_103
usemtl material_0
v 33.57450000 0.00000000 7.14800000
v 33.57450000 0.00000000 15.57100000
v 33.57450000 2.75000000 7.14800000
v 33.57450000 2.75000000 15.57100000
v 34.11550000 0.00000000 7.14800000
v 34.11550000 0.00000000 15.57100000
v 34.11550000 2.75000000 7.14800000
v 34.11550000 2.75000000 15.57100000
f 826 828 825
f 829 826 825
f 825 828 827
f 827 829 825
f 826 832 828
f 830 826 829
f 830 832 826
f 828 832 827
f 831 829 827
f 827 832 831
f 831 830 829
f 832 830 831

o wall_W56_104
usemtl material_0
v 34.81150000 0.00000000 34.92700000
v 34.81150000 0.00000000 41.18600000
v 34.81150000 2.75000000 34.92700000
v 34.81150000 2.75000000 41.18600000
v 35.35250000 0.00000000 34.92700000
v 35.35250000 0.00000000 41.18600000
v 35.35250000 2.75000000 34.92700000
v 35.35250000 2.75000000 41.18600000
f 834 836 833
f 837 834 833
f 833 836 835
f 835 837 833
f 834 840 836
f 838 834 837
f 838 840 834
f 836 840 835
f 839 837 835
f 835 840 839
f 839 838 837
f 840 838 839

o wall_W57_105
usemtl material_1
v 36.12500000 0.00000000 19.35700000
v 36.12500000 0.00000000 19.93600000
v 36.12500000 2.75000000 19.35700000
v 36.12500000 2.75000000 19.93600000
v 36.74300000 0.00000000 19.35700000
v 36.74300000 0.00000000 19.93600000
v 36.74300000 2.75000000 19.35700000
v 36.74300000 2.75000000 19.93600000
f 842 844 841
f 845 842 841
f 841 844 843
f 843 845 841
f 842 848 844
f 846 842 845
f 846 848 842
f 844 848 843
f 847 845 843
f 843 848 847
f 847 846 845
f 848 846 847

o wall_W57_106
usemtl material_1
v 36.12500000 0.00000000 19.93600000
v 36.12500000 0.00000000 22.87200000
v 36.12500000 0.90000000 19.93600000
v 36.12500000 0.90000000 22.87200000
v 36.74300000 0.00000000 19.93600000
v 36.74300000 0.00000000 22.87200000
v 36.74300000 0.90000000 19.93600000
v 36.74300000 0.90000000 22.87200000
f 850 852 849
f 853 850 849
f 849 852 851
f 851 853 849
f 850 856 852
f 854 850 853
f 854 856 850
f 852 856 851
f 855 853 851
f 851 856 855
f 855 854 853
f 856 854 855

o wall_W57_107
usemtl material_1
v 36.12500000 2.10000000 19.93600000
v 36.12500000 2.10000000 22.87200000
v 36.12500000 2.75000000 19.93600000
v 36.12500000 2.75000000 22.87200000
v 36.74300000 2.10000000 19.93600000
v 36.74300000 2.10000000 22.87200000
v 36.74300000 2.75000000 19.93600000
v 36.74300000 2.75000000 22.87200000
f 858 860 857
f 861 858 857
f 857 860 859
f 859 861 857
f 858 864 860
f 862 858 861
f 862 864 858
f 860 864 859
f 863 861 859
f 859 864 863
f 863 862 861
f 864 862 863

o wall_W57_108
usemtl material_1
v 36.12500000 0.00000000 22.87200000
v 36.12500000 0.00000000 23.95500000
v 36.12500000 2.75000000 22.87200000
v 36.12500000 2.75000000 23.95500000
v 36.74300000 0.00000000 22.87200000
v 36.74300000 0.00000000 23.95500000
v 36.74300000 2.75000000 22.87200000
v 36.74300000 2.75000000 23.95500000
f 866 868 865
f 869 866 865
f 865 868 867
f 867 869 865
f 866 872 868
f 870 866 869
f 870 872 866
f 868 872 867
f 871 869 867
f 867 872 871
f 871 870 869
f 872 870 871

o wall_W58_109
usemtl material_1
v 38.94600000 0.00000000 33.42000000
v 38.94600000 0.00000000 33.92300000
v 38.94600000 2.75000000 33.42000000
v 38.94600000 2.75000000 33.92300000
v 39.33200000 0.00000000 33.42000000
v 39.33200000 0.00000000 33.92300000
v 39.33200000 2.75000000 33.42000000
v 39.33200000 2.75000000 33.92300000
f 874 876 873
f 877 874 873
f 873 876 875
f 875 877 873
f 874 880 876
f 878 874 877
f 878 880 874
f 876 880 875
f 879 877 875
f 875 880 879
f 879 878 877
f 880 878 879

o wall_W58_110
usemtl material_1
v 38.94600000 2.10000000 33.92300000
v 38.94600000 2.10000000 40.02800000
v 38.94600000 2.75000000 33.92300000
v 38.94600000 2.75000000 40.02800000
v 39.33200000 2.10000000 33.92300000
v 39.33200000 2.10000000 40.02800000
v 39.33200000 2.75000000 33.92300000
v 39.33200000 2.75000000 40.02800000
f 882 884 881
f 885 882 881
f 881 884 883
f 883 885 881
f 882 888 884
f 886 882 885
f 886 888 882
f 884 888 883
f 887 885 883
f 883 888 887
f 887 886 885
f 888 886 887

o wall_W58_111
usemtl material_1
v 38.94600000 0.00000000 40.02800000
v 38.94600000 0.00000000 41.18600000
v 38.94600000 2.75000000 40.02800000
v 38.94600000 2.75000000 41.18600000
v 39.33200000 0.00000000 40.02800000
v 39.33200000 0.00000000 41.18600000
v 39.33200000 2.75000000 40.02800000
v 39.33200000 2.75000000 41.18600000
f 890 892 889
f 893 890 889
f 889 892 891
f 891 893 889
f 890 896 892
f 894 890 893
f 894 896 890
f 892 896 891
f 895 893 891
f 891 896 895
f 895 894 893
f 896 894 895

o wall_W59_112
usemtl material_1
v 41.45700000 0.00000000 26.27300000
v 41.45700000 0.00000000 33.15000000
v 41.45700000 2.75000000 26.27300000
v 41.45700000 2.75000000 33.15000000
v 42.07500000 0.00000000 26.27300000
v 42.07500000 0.00000000 33.15000000
v 42.07500000 2.75000000 26.27300000
v 42.07500000 2.75000000 33.15000000
f 898 900 897
f 901 898 897
f 897 900 899
f 899 901 897
f 898 904 900
f 902 898 901
f 902 904 898
f 900 904 899
f 903 901 899
f 899 904 903
f 903 902 901
f 904 902 903

o wall_W60_113
usemtl material_0
v 47.05850000 0.00000000 3.94100000
v 47.05850000 0.00000000 7.14800000
v 47.05850000 2.75000000 3.94100000
v 47.05850000 2.75000000 7.14800000
v 47.83150000 0.00000000 3.94100000
v 47.83150000 0.00000000 7.14800000
v 47.83150000 2.75000000 3.94100000
v 47.83150000 2.75000000 7.14800000
f 906 908 905
f 909 906 905
f 905 908 907
f 907 909 905
f 906 912 908
f 910 906 909
f 910 912 906
f 908 912 907
f 911 909 907
f 907 912 911
f 911 910 909
f 912 910 911

o wall_W61_114
usemtl material_1
v 48.60450000 0.00000000 26.27300000
v 48.60450000 0.00000000 28.90000000
v 48.60450000 2.75000000 26.27300000
v 48.60450000 2.75000000 28.90000000
v 49.29950000 0.00000000 26.27300000
v 49.29950000 0.00000000 28.90000000
v 49.29950000 2.75000000 26.27300000
v 49.29950000 2.75000000 28.90000000
f 914 916 913
f 917 914 913
f 913 916 915
f 915 917 913
f 914 920 916
f 918 914 917
f 918 920 914
f 916 920 915
f 919 917 915
f 915 920 919
f 919 918 917
f 920 918 919

o wall_W61_115
usemtl material_1
v 48.60450000 0.00000000 28.90000000
v 48.60450000 0.00000000 32.45500000
v 48.60450000 0.90000000 28.90000000
v 48.60450000 0.90000000 32.45500000
v 49.29950000 0.00000000 28.90000000
v 49.29950000 0.00000000 32.45500000
v 49.29950000 0.90000000 28.90000000
v 49.29950000 0.90000000 32.45500000
f 922 924 921
f 925 922 921
f 921 924 923
f 923 925 921
f 922 928 924
f 926 922 925
f 926 928 922
f 924 928 923
f 927 925 923
f 923 928 927
f 927 926 925
f 928 926 927

o wall_W61_116
usemtl material_1
v 48.60450000 2.10000000 28.90000000
v 48.60450000 2.10000000 32.45500000
v 48.60450000 2.75000000 28.90000000
v 48.60450000 2.75000000 32.45500000
v 49.29950000 2.10000000 28.90000000
v 49.29950000 2.10000000 32.45500000
v 49.29950000 2.75000000 28.90000000
v 49.29950000 2.75000000 32.45500000
f 930 932 929
f 933 930 929
f 929 932 931
f 931 933 929
f 930 936 932
f 934 930 933
f 934 936 930
f 932 936 931
f 935 933 931
f 931 936 935
f 935 934 933
f 936 934 935

o wall_W61_117
usemtl material_1
v 48.60450000 0.00000000 32.45500000
v 48.60450000 0.00000000 33.15000000
v 48.60450000 2.75000000 32.45500000
v 48.60450000 2.75000000 33.15000000
v 49.29950000 0.00000000 32.45500000
v 49.29950000 0.00000000 33.15000000
v 49.29950000 2.75000000 32.45500000
v 49.29950000 2.75000000 33.15000000
f 938 940 937
f 941 938 937
f 937 940 939
f 939 941 937
f 938 944 940
f 942 938 941
f 942 944 938
f 940 944 939
f 943 941 939
f 939 944 943
f 943 942 941
f 944 942 943

o wall_W62_118
usemtl material_1
v 48.60450000 0.00000000 33.15000000
v 48.60450000 0.00000000 33.76800000
v 48.60450000 2.75000000 33.15000000
v 48.60450000 2.75000000 33.76800000
v 49.29950000 0.00000000 33.15000000
v 49.29950000 0.00000000 33.76800000
v 49.29950000 2.75000000 33.15000000
v 49.29950000 2.75000000 33.76800000
f 946 948 945
f 949 946 945
f 945 948 947
f 947 949 945
f 946 952 948
f 950 946 949
f 950 952 946
f 948 952 947
f 951 949 947
f 947 952 951
f 951 950 949
f 952 950 951

o wall_W62_119
usemtl material_1
v 48.60450000 0.00000000 33.76800000
v 48.60450000 0.00000000 37.32300000
v 48.60450000 0.90000000 33.76800000
v 48.60450000 0.90000000 37.32300000
v 49.29950000 0.00000000 33.76800000
v 49.29950000 0.00000000 37.32300000
v 49.29950000 0.90000000 33.76800000
v 49.29950000 0.90000000 37.32300000
f 954 956 953
f 957 954 953
f 953 956 955
f 955 957 953
f 954 960 956
f 958 954 957
f 958 960 954
f 956 960 955
f 959 957 955
f 955 960 959
f 959 958 957
f 960 958 959

o wall_W62_120
usemtl material_1
v 48.60450000 2.10000000 33.76800000
v 48.60450000 2.10000000 37.32300000
v 48.60450000 2.75000000 33.76800000
v 48.60450000 2.75000000 37.32300000
v 49.29950000 2.10000000 33.76800000
v 49.29950000 2.10000000 37.32300000
v 49.29950000 2.75000000 33.76800000
v 49.29950000 2.75000000 37.32300000
f 962 964 961
f 965 962 961
f 961 964 963
f 963 965 961
f 962 968 964
f 966 962 965
f 966 968 962
f 964 968 963
f 967 965 963
f 963 968 967
f 967 966 965
f 968 966 967

o wall_W62_121
usemtl material_1
v 48.60450000 0.00000000 37.32300000
v 48.60450000 0.00000000 41.18600000
v 48.60450000 2.75000000 37.32300000
v 48.60450000 2.75000000 41.18600000
v 49.29950000 0.00000000 37.32300000
v 49.29950000 0.00000000 41.18600000
v 49.29950000 2.75000000 37.32300000
v 49.29950000 2.75000000 41.18600000
f 970 972 969
f 973 970 969
f 969 972 971
f 971 973 969
f 970 976 972
f 974 970 973
f 974 976 970
f 972 976 971
f 975 973 971
f 971 976 975
f 975 974 973
f 976 974 975

o wall_W63_122
usemtl material_0
v 63.98150000 0.00000000 26.27300000
v 63.98150000 0.00000000 28.28200000
v 63.98150000 2.75000000 26.27300000
v 63.98150000 2.75000000 28.28200000
v 64.75450000 0.00000000 26.27300000
v 64.75450000 0.00000000 28.28200000
v 64.75450000 2.75000000 26.27300000
v 64.75450000 2.75000000 28.28200000
f 978 980 977
f 981 978 977
f 977 980 979
f 979 981 977
f 978 984 980
f 982 978 981
f 982 984 978
f 980 984 979
f 983 981 979
f 979 984 983
f 983 982 981
f 984 982 983

o wall_W63_123
usemtl material_0
v 63.98150000 0.00000000 28.28200000
v 63.98150000 0.00000000 32.22300000
v 63.98150000 0.90000000 28.28200000
v 63.98150000 0.90000000 32.22300000
v 64.75450000 0.00000000 28.28200000
v 64.75450000 0.00000000 32.22300000
v 64.75450000 0.90000000 28.28200000
v 64.75450000 0.90000000 32.22300000
f 986 988 985
f 989 986 985
f 985 988 987
f 987 989 985
f 986 992 988
f 990 986 989
f 990 992 986
f 988 992 987
f 991 989 987
f 987 992 991
f 991 990 989
f 992 990 991

o wall_W63_124
usemtl material_0
v 63.98150000 2.10000000 28.28200000
v 63.98150000 2.10000000 32.22300000
v 63.98150000 2.75000000 28.28200000
v 63.98150000 2.75000000 32.22300000
v 64.75450000 2.10000000 28.28200000
v 64.75450000 2.10000000 32.22300000
v 64.75450000 2.75000000 28.28200000
v 64.75450000 2.75000000 32.22300000
f 994 996 993
f 997 994 993
f 993 996 995
f 995 997 993
f 994 1000 996
f 998 994 997
f 998 1000 994
f 996 1000 995
f 999 997 995
f 995 1000 999
f 999 998 997
f 1000 998 999

o wall_W63_125
usemtl material_0
v 63.98150000 0.00000000 32.22300000
v 63.98150000 0.00000000 36.55000000
v 63.98150000 2.75000000 32.22300000
v 63.98150000 2.75000000 36.55000000
v 64.75450000 0.00000000 32.22300000
v 64.75450000 0.00000000 36.55000000
v 64.75450000 2.75000000 32.22300000
v 64.75450000 2.75000000 36.55000000
f 1002 1004 1001
f 1005 1002 1001
f 1001 1004 1003
f 1003 1005 1001
f 1002 1008 1004
f 1006 1002 1005
f 1006 1008 1002
f 1004 1008 1003
f 1007 1005 1003
f 1003 1008 1007
f 1007 1006 1005
f 1008 1006 1007

o wall_W63_126
usemtl material_0
v 63.98150000 0.00000000 36.55000000
v 63.98150000 0.00000000 40.49100000
v 63.98150000 0.90000000 36.55000000
v 63.98150000 0.90000000 40.49100000
v 64.75450000 0.00000000 36.55000000
v 64.75450000 0.00000000 40.49100000
v 64.75450000 0.90000000 36.55000000
v 64.75450000 0.90000000 40.49100000
f 1010 1012 1009
f 1013 1010 1009
f 1009 1012 1011
f 1011 1013 1009
f 1010 1016 1012
f 1014 1010 1013
f 1014 1016 1010
f 1012 1016 1011
f 1015 1013 1011
f 1011 1016 1015
f 1015 1014 1013
f 1016 1014 1015

o wall_W63_127
usemtl material_0
v 63.98150000 2.10000000 36.55000000
v 63.98150000 2.10000000 40.49100000
v 63.98150000 2.75000000 36.55000000
v 63.98150000 2.75000000 40.49100000
v 64.75450000 2.10000000 36.55000000
v 64.75450000 2.10000000 40.49100000
v 64.75450000 2.75000000 36.55000000
v 64.75450000 2.75000000 40.49100000
f 1018 1020 1017
f 1021 1018 1017
f 1017 1020 1019
f 1019 1021 1017
f 1018 1024 1020
f 1022 1018 1021
f 1022 1024 1018
f 1020 1024 1019
f 1023 1021 1019
f 1019 1024 1023
f 1023 1022 1021
f 1024 1022 1023

o wall_W63_128
usemtl material_0
v 63.98150000 0.00000000 40.49100000
v 63.98150000 0.00000000 41.72800000
v 63.98150000 2.75000000 40.49100000
v 63.98150000 2.75000000 41.72800000
v 64.75450000 0.00000000 40.49100000
v 64.75450000 0.00000000 41.72800000
v 64.75450000 2.75000000 40.49100000
v 64.75450000 2.75000000 41.72800000
f 1026 1028 1025
f 1029 1026 1025
f 1025 1028 1027
f 1027 1029 1025
f 1026 1032 1028
f 1030 1026 1029
f 1030 1032 1026
f 1028 1032 1027
f 1031 1029 1027
f 1027 1032 1031
f 1031 1030 1029
f 1032 1030 1031

o wall_W64_129
usemtl material_0
v 66.49350000 0.00000000 3.94100000
v 66.49350000 0.00000000 20.01400000
v 66.49350000 2.75000000 3.94100000
v 66.49350000 2.75000000 20.01400000
v 67.18850000 0.00000000 3.94100000
v 67.18850000 0.00000000 20.01400000
v 67.18850000 2.75000000 3.94100000
v 67.18850000 2.75000000 20.01400000
f 1034 1036 1033
f 1037 1034 1033
f 1033 1036 1035
f 1035 1037 1033
f 1034 1040 1036
f 1038 1034 1037
f 1038 1040 1034
f 1036 1040 1035
f 1039 1037 1035
f 1035 1040 1039
f 1039 1038 1037
f 1040 1038 1039

o wall_W64_130
usemtl material_0
v 66.49350000 0.00000000 20.01400000
v 66.49350000 0.00000000 24.03200000
v 66.49350000 0.90000000 20.01400000
v 66.49350000 0.90000000 24.03200000
v 67.18850000 0.00000000 20.01400000
v 67.18850000 0.00000000 24.03200000
v 67.18850000 0.90000000 20.01400000
v 67.18850000 0.90000000 24.03200000
f 1042 1044 1041
f 1045 1042 1041
f 1041 1044 1043
f 1043 1045 1041
f 1042 1048 1044
f 1046 1042 1045
f 1046 1048 1042
f 1044 1048 1043
f 1047 1045 1043
f 1043 1048 1047
f 1047 1046 1045
f 1048 1046 1047

o wall_W64_131
usemtl material_0
v 66.49350000 2.10000000 20.01400000
v 66.49350000 2.10000000 24.03200000
v 66.49350000 2.75000000 20.01400000
v 66.49350000 2.75000000 24.03200000
v 67.18850000 2.10000000 20.01400000
v 67.18850000 2.10000000 24.03200000
v 67.18850000 2.75000000 20.01400000
v 67.18850000 2.75000000 24.03200000
f 1050 1052 1049
f 1053 1050 1049
f 1049 1052 1051
f 1051 1053 1049
f 1050 1056 1052
f 1054 1050 1053
f 1054 1056 1050
f 1052 1056 1051
f 1055 1053 1051
f 1051 1056 1055
f 1055 1054 1053
f 1056 1054 1055

o wall_W64_132
usemtl material_0
v 66.49350000 0.00000000 24.03200000
v 66.49350000 0.00000000 26.27300000
v 66.49350000 2.75000000 24.03200000
v 66.49350000 2.75000000 26.27300000
v 67.18850000 0.00000000 24.03200000
v 67.18850000 0.00000000 26.27300000
v 67.18850000 2.75000000 24.03200000
v 67.18850000 2.75000000 26.27300000
f 1058 1060 1057
f 1061 1058 1057
f 1057 1060 1059
f 1059 1061 1057
f 1058 1064 1060
f 1062 1058 1061
f 1062 1064 1058
f 1060 1064 1059
f 1063 1061 1059
f 1059 1064 1063
f 1063 1062 1061
f 1064 1062 1063

o window_N1_133
usemtl material_2
v 49.53150000 0.90000000 3.93100000
v 49.53150000 0.90000000 3.95100000
v 49.53150000 2.10000000 3.93100000
v 49.53150000 2.10000000 3.95100000
v 53.47250000 0.90000000 3.93100000
v 53.47250000 0.90000000 3.95100000
v 53.47250000 2.10000000 3.93100000
v 53.47250000 2.10000000 3.95100000
f 1066 1068 1065
f 1069 1066 1065
f 1065 1068 1067
f 1067 1069 1065
f 1066 1072 1068
f 1070 1066 1069
f 1070 1072 1066
f 1068 1072 1067
f 1071 1069 1067
f 1067 1072 1071
f 1071 1070 1069
f 1072 1070 1071

o window_N2_134
usemtl material_2
v 19.39500000 0.90000000 4.62600000
v 19.39500000 0.90000000 4.64600000
v 19.39500000 2.10000000 4.62600000
v 19.39500000 2.10000000 4.64600000
v 23.25900000 0.90000000 4.62600000
v 23.25900000 0.90000000 4.64600000
v 23.25900000 2.10000000 4.62600000
v 23.25900000 2.10000000 4.64600000
f 1074 1076 1073
f 1077 1074 1073
f 1073 1076 1075
f 1075 1077 1073
f 1074 1080 1076
f 1078 1074 1077
f 1078 1080 1074
f 1076 1080 1075
f 1079 1077 1075
f 1075 1080 1079
f 1079 1078 1077
f 1080 1078 1079

o window_N3_135
usemtl material_2
v 25.03650000 0.90000000 4.62600000
v 25.03650000 0.90000000 4.64600000
v 25.03650000 2.10000000 4.62600000
v 25.03650000 2.10000000 4.64600000
v 28.97750000 0.90000000 4.62600000
v 28.97750000 0.90000000 4.64600000
v 28.97750000 2.10000000 4.62600000
v 28.97750000 2.10000000 4.64600000
f 1082 1084 1081
f 1085 1082 1081
f 1081 1084 1083
f 1083 1085 1081
f 1082 1088 1084
f 1086 1082 1085
f 1086 1088 1082
f 1084 1088 1083
f 1087 1085 1083
f 1083 1088 1087
f 1087 1086 1085
f 1088 1086 1087

o window_N4_136
usemtl material_2
v 37.70950000 0.90000000 7.13800000
v 37.70950000 0.90000000 7.15800000
v 37.70950000 2.10000000 7.13800000
v 37.70950000 2.10000000 7.15800000
v 46.28650000 0.90000000 7.13800000
v 46.28650000 0.90000000 7.15800000
v 46.28650000 2.10000000 7.13800000
v 46.28650000 2.10000000 7.15800000
f 1090 1092 1089
f 1093 1090 1089
f 1089 1092 1091
f 1091 1093 1089
f 1090 1096 1092
f 1094 1090 1093
f 1094 1096 1090
f 1092 1096 1091
f 1095 1093 1091
f 1091 1096 1095
f 1095 1094 1093
f 1096 1094 1095

o window_N5_137
usemtl material_2
v 3.01300000 0.90000000 9.34000000
v 3.01300000 0.90000000 9.36000000
v 3.01300000 2.10000000 9.34000000
v 3.01300000 2.10000000 9.36000000
v 6.87700000 0.90000000 9.34000000
v 6.87700000 0.90000000 9.36000000
v 6.87700000 2.10000000 9.34000000
v 6.87700000 2.10000000 9.36000000
f 1098 1100 1097
f 1101 1098 1097
f 1097 1100 1099
f 1099 1101 1097
f 1098 1104 1100
f 1102 1098 1101
f 1102 1104 1098
f 1100 1104 1099
f 1103 1101 1099
f 1099 1104 1103
f 1103 1102 1101
f 1104 1102 1103

o window_N6_138
usemtl material_2
v 8.57750000 0.90000000 9.34000000
v 8.57750000 0.90000000 9.36000000
v 8.57750000 2.10000000 9.34000000
v 8.57750000 2.10000000 9.36000000
v 12.51850000 0.90000000 9.34000000
v 12.51850000 0.90000000 9.36000000
v 12.51850000 2.10000000 9.34000000
v 12.51850000 2.10000000 9.36000000
f 1106 1108 1105
f 1109 1106 1105
f 1105 1108 1107
f 1107 1109 1105
f 1106 1112 1108
f 1110 1106 1109
f 1110 1112 1106
f 1108 1112 1107
f 1111 1109 1107
f 1107 1112 1111
f 1111 1110 1109
f 1112 1110 1111

o window_N7_139
usemtl material_2
v 36.42400000 0.90000000 19.93700000
v 36.42400000 0.90000000 22.87300000
v 36.42400000 2.10000000 19.93700000
v 36.42400000 2.10000000 22.87300000
v 36.44400000 0.90000000 19.93700000
v 36.44400000 0.90000000 22.87300000
v 36.44400000 2.10000000 19.93700000
v 36.44400000 2.10000000 22.87300000
f 1114 1116 1113
f 1117 1114 1113
f 1113 1116 1115
f 1115 1117 1113
f 1114 1120 1116
f 1118 1114 1117
f 1118 1120 1114
f 1116 1120 1115
f 1119 1117 1115
f 1115 1120 1119
f 1119 1118 1117
f 1120 1118 1119

o window_N8_140
usemtl material_2
v 66.83100000 0.90000000 20.01400000
v 66.83100000 0.90000000 24.03200000
v 66.83100000 2.10000000 20.01400000
v 66.83100000 2.10000000 24.03200000
v 66.85100000 0.90000000 20.01400000
v 66.85100000 0.90000000 24.03200000
v 66.85100000 2.10000000 20.01400000
v 66.85100000 2.10000000 24.03200000
f 1122 1124 1121
f 1125 1122 1121
f 1121 1124 1123
f 1123 1125 1121
f 1122 1128 1124
f 1126 1122 1125
f 1126 1128 1122
f 1124 1128 1123
f 1127 1125 1123
f 1123 1128 1127
f 1127 1126 1125
f 1128 1126 1127

o window_N9_141
usemtl material_2
v 23.55800000 0.90000000 20.40000000
v 23.55800000 0.90000000 24.03200000
v 23.55800000 2.10000000 20.40000000
v 23.55800000 2.10000000 24.03200000
v 23.57800000 0.90000000 20.40000000
v 23.57800000 0.90000000 24.03200000
v 23.57800000 2.10000000 20.40000000
v 23.57800000 2.10000000 24.03200000
f 1130 1132 1129
f 1133 1130 1129
f 1129 1132 1131
f 1131 1133 1129
f 1130 1136 1132
f 1134 1130 1133
f 1134 1136 1130
f 1132 1136 1131
f 1135 1133 1131
f 1131 1136 1135
f 1135 1134 1133
f 1136 1134 1135

o window_N10_142
usemtl material_2
v 4.86800000 0.90000000 22.36000000
v 4.86800000 0.90000000 22.38000000
v 4.86800000 2.10000000 22.36000000
v 4.86800000 2.10000000 22.38000000
v 8.50000000 0.90000000 22.36000000
v 8.50000000 0.90000000 22.38000000
v 8.50000000 2.10000000 22.36000000
v 8.50000000 2.10000000 22.38000000
f 1138 1140 1137
f 1141 1138 1137
f 1137 1140 1139
f 1139 1141 1137
f 1138 1144 1140
f 1142 1138 1141
f 1142 1144 1138
f 1140 1144 1139
f 1143 1141 1139
f 1139 1144 1143
f 1143 1142 1141
f 1144 1142 1143

o window_N11_143
usemtl material_2
v 49.84100000 0.90000000 26.26300000
v 49.84100000 0.90000000 26.28300000
v 49.84100000 2.10000000 26.26300000
v 49.84100000 2.10000000 26.28300000
v 53.62700000 0.90000000 26.26300000
v 53.62700000 0.90000000 26.28300000
v 53.62700000 2.10000000 26.26300000
v 53.62700000 2.10000000 26.28300000
f 1146 1148 1145
f 1149 1146 1145
f 1145 1148 1147
f 1147 1149 1145
f 1146 1152 1148
f 1150 1146 1149
f 1150 1152 1146
f 1148 1152 1147
f 1151 1149 1147
f 1147 1152 1151
f 1151 1150 1149
f 1152 1150 1151

o window_N12_144
usemtl material_2
v 12.28650000 0.90000000 26.45600000
v 12.28650000 0.90000000 26.47600000
v 12.28650000 2.10000000 26.45600000
v 12.28650000 2.10000000 26.47600000
v 15.84150000 0.90000000 26.45600000
v 15.84150000 0.90000000 26.47600000
v 15.84150000 2.10000000 26.45600000
v 15.84150000 2.10000000 26.47600000
f 1154 1156 1153
f 1157 1154 1153
f 1153 1156 1155
f 1155 1157 1153
f 1154 1160 1156
f 1158 1154 1157
f 1158 1160 1154
f 1156 1160 1155
f 1159 1157 1155
f 1155 1160 1159
f 1159 1158 1157
f 1160 1158 1159

o window_N13_145
usemtl material_2
v 17.15450000 0.90000000 26.45600000
v 17.15450000 0.90000000 26.47600000
v 17.15450000 2.10000000 26.45600000
v 17.15450000 2.10000000 26.47600000
v 20.70950000 0.90000000 26.45600000
v 20.70950000 0.90000000 26.47600000
v 20.70950000 2.10000000 26.45600000
v 20.70950000 2.10000000 26.47600000
f 1162 1164 1161
f 1165 1162 1161
f 1161 1164 1163
f 1163 1165 1161
f 1162 1168 1164
f 1166 1162 1165
f 1166 1168 1162
f 1164 1168 1163
f 1167 1165 1163
f 1163 1168 1167
f 1167 1166 1165
f 1168 1166 1167

o window_N14_146
usemtl material_2
v 11.46500000 0.90000000 27.81800000
v 11.46500000 0.90000000 30.36800000
v 11.46500000 2.10000000 27.81800000
v 11.46500000 2.10000000 30.36800000
v 11.48500000 0.90000000 27.81800000
v 11.48500000 0.90000000 30.36800000
v 11.48500000 2.10000000 27.81800000
v 11.48500000 2.10000000 30.36800000
f 1170 1172 1169
f 1173 1170 1169
f 1169 1172 1171
f 1171 1173 1169
f 1170 1176 1172
f 1174 1170 1173
f 1174 1176 1170
f 1172 1176 1171
f 1175 1173 1171
f 1171 1176 1175
f 1175 1174 1173
f 1176 1174 1175

o window_N15_147
usemtl material_2
v 64.35800000 0.90000000 28.28150000
v 64.35800000 0.90000000 32.22250000
v 64.35800000 2.10000000 28.28150000
v 64.35800000 2.10000000 32.22250000
v 64.37800000 0.90000000 28.28150000
v 64.37800000 0.90000000 32.22250000
v 64.37800000 2.10000000 28.28150000
v 64.37800000 2.10000000 32.22250000
f 1178 1180 1177
f 1181 1178 1177
f 1177 1180 1179
f 1179 1181 1177
f 1178 1184 1180
f 1182 1178 1181
f 1182 1184 1178
f 1180 1184 1179
f 1183 1181 1179
f 1179 1184 1183
f 1183 1182 1181
f 1184 1182 1183

o window_N16_148
usemtl material_2
v 48.94200000 0.90000000 28.89950000
v 48.94200000 0.90000000 32.45450000
v 48.94200000 2.10000000 28.89950000
v 48.94200000 2.10000000 32.45450000
v 48.96200000 0.90000000 28.89950000
v 48.96200000 0.90000000 32.45450000
v 48.96200000 2.10000000 28.89950000
v 48.96200000 2.10000000 32.45450000
f 1186 1188 1185
f 1189 1186 1185
f 1185 1188 1187
f 1187 1189 1185
f 1186 1192 1188
f 1190 1186 1189
f 1190 1192 1186
f 1188 1192 1187
f 1191 1189 1187
f 1187 1192 1191
f 1191 1190 1189
f 1192 1190 1191

o window_N17_149
usemtl material_2
v 12.28600000 0.90000000 31.78800000
v 12.28600000 0.90000000 31.80800000
v 12.28600000 2.10000000 31.78800000
v 12.28600000 2.10000000 31.80800000
v 15.91800000 0.90000000 31.78800000
v 15.91800000 0.90000000 31.80800000
v 15.91800000 2.10000000 31.78800000
v 15.91800000 2.10000000 31.80800000
f 1194 1196 1193
f 1197 1194 1193
f 1193 1196 1195
f 1195 1197 1193
f 1194 1200 1196
f 1198 1194 1197
f 1198 1200 1194
f 1196 1200 1195
f 1199 1197 1195
f 1195 1200 1199
f 1199 1198 1197
f 1200 1198 1199

o window_N18_150
usemtl material_2
v 48.94200000 0.90000000 33.76750000
v 48.94200000 0.90000000 37.32250000
v 48.94200000 2.10000000 33.76750000
v 48.94200000 2.10000000 37.32250000
v 48.96200000 0.90000000 33.76750000
v 48.96200000 0.90000000 37.32250000
v 48.96200000 2.10000000 33.76750000
v 48.96200000 2.10000000 37.32250000
f 1202 1204 1201
f 1205 1202 1201
f 1201 1204 1203
f 1203 1205 1201
f 1202 1208 1204
f 1206 1202 1205
f 1206 1208 1202
f 1204 1208 1203
f 1207 1205 1203
f 1203 1208 1207
f 1207 1206 1205
f 1208 1206 1207

o window_N19_151
usemtl material_2
v 31.98100000 0.90000000 36.39600000
v 31.98100000 0.90000000 39.56400000
v 31.98100000 2.10000000 36.39600000
v 31.98100000 2.10000000 39.56400000
v 32.00100000 0.90000000 36.39600000
v 32.00100000 0.90000000 39.56400000
v 32.00100000 2.10000000 36.39600000
v 32.00100000 2.10000000 39.56400000
f 1210 1212 1209
f 1213 1210 1209
f 1209 1212 1211
f 1211 1213 1209
f 1210 1216 1212
f 1214 1210 1213
f 1214 1216 1210
f 1212 1216 1211
f 1215 1213 1211
f 1211 1216 1215
f 1215 1214 1213
f 1216 1214 1215

o window_N20_152
usemtl material_2
v 64.35800000 0.90000000 36.54950000
v 64.35800000 0.90000000 40.49050000
v 64.35800000 2.10000000 36.54950000
v 64.35800000 2.10000000 40.49050000
v 64.37800000 0.90000000 36.54950000
v 64.37800000 0.90000000 40.49050000
v 64.37800000 2.10000000 36.54950000
v 64.37800000 2.10000000 40.49050000
f 1218 1220 1217
f 1221 1218 1217
f 1217 1220 1219
f 1219 1221 1217
f 1218 1224 1220
f 1222 1218 1221
f 1222 1224 1218
f 1220 1224 1219
f 1223 1221 1219
f 1219 1224 1223
f 1223 1222 1221
f 1224 1222 1223

o window_N21_153
usemtl material_2
v 23.64600000 0.90000000 40.21000000
v 23.64600000 0.90000000 40.23000000
v 23.64600000 2.10000000 40.21000000
v 23.64600000 2.10000000 40.23000000
v 27.43200000 0.90000000 40.21000000
v 27.43200000 0.90000000 40.23000000
v 27.43200000 2.10000000 40.21000000
v 27.43200000 2.10000000 40.23000000
f 1226 1228 1225
f 1229 1226 1225
f 1225 1228 1227
f 1227 1229 1225
f 1226 1232 1228
f 1230 1226 1229
f 1230 1232 1226
f 1228 1232 1227
f 1231 1229 1227
f 1227 1232 1231
f 1231 1230 1229
f 1232 1230 1231

o railing_R1_154
usemtl material_3
v 33.40022923 0.00000000 0.17210834
v 33.36377077 0.00000000 0.13789166
v 33.40022923 1.00000000 0.17210834
v 33.36377077 1.00000000 0.13789166
v 32.82022923 0.00000000 0.79010834
v 32.78377077 0.00000000 0.75589166
v 32.82022923 1.00000000 0.79010834
v 32.78377077 1.00000000 0.75589166
f 1234 1236 1233
f 1237 1234 1233
f 1233 1236 1235
f 1235 1237 1233
f 1234 1240 1236
f 1238 1234 1237
f 1238 1240 1234
f 1236 1240 1235
f 1239 1237 1235
f 1235 1240 1239
f 1239 1238 1237
f 1240 1238 1239

o railing_R1_155
usemtl material_3
v 32.82700000 0.00000000 0.77300000
v 32.77700000 0.00000000 0.77300000
v 32.82700000 1.00000000 0.77300000
v 32.77700000 1.00000000 0.77300000
v 32.82700000 0.00000000 4.55900000
v 32.77700000 0.00000000 4.55900000
v 32.82700000 1.00000000 4.55900000
v 32.77700000 1.00000000 4.55900000
f 1242 1244 1241
f 1245 1242 1241
f 1241 1244 1243
f 1243 1245 1241
f 1242 1248 1244
f 1246 1242 1245
f 1246 1248 1242
f 1244 1248 1243
f 1247 1245 1243
f 1243 1248 1247
f 1247 1246 1245
f 1248 1246 1247

o railing_R1_156
usemtl material_3
v 46.34719185 0.00000000 6.62649362
v 46.38080815 0.00000000 6.66350638
v 46.34719185 1.00000000 6.62649362
v 46.38080815 1.00000000 6.66350638
v 46.77219185 0.00000000 6.24049362
v 46.80580815 0.00000000 6.27750638
v 46.77219185 1.00000000 6.24049362
v 46.80580815 1.00000000 6.27750638
f 1250 1252 1249
f 1253 1250 1249
f 1249 1252 1251
f 1251 1253 1249
f 1250 1256 1252
f 1254 1250 1253
f 1254 1256 1250
f 1252 1256 1251
f 1255 1253 1251
f 1251 1256 1255
f 1255 1254 1253
f 1256 1254 1255

o railing_R1_157
usemtl material_3
v 46.76400000 0.00000000 6.25900000
v 46.81400000 0.00000000 6.25900000
v 46.76400000 1.00000000 6.25900000
v 46.81400000 1.00000000 6.25900000
v 46.76400000 0.00000000 1.70000000
v 46.81400000 0.00000000 1.70000000
v 46.76400000 1.00000000 1.70000000
v 46.81400000 1.00000000 1.70000000
f 1258 1260 1257
f 1261 1258 1257
f 1257 1260 1259
f 1259 1261 1257
f 1258 1264 1260
f 1262 1258 1261
f 1262 1264 1258
f 1260 1264 1259
f 1263 1261 1259
f 1259 1264 1263
f 1263 1262 1261
f 1264 1262 1263

o railing_R1_158
usemtl material_3
v 46.76687021 0.00000000 1.71163067
v 46.81112979 0.00000000 1.68836933
v 46.76687021 1.00000000 1.71163067
v 46.81112979 1.00000000 1.68836933
v 45.95487021 0.00000000 0.16663067
v 45.99912979 0.00000000 0.14336933
v 45.95487021 1.00000000 0.16663067
v 45.99912979 1.00000000 0.14336933
f 1266 1268 1265
f 1269 1266 1265
f 1265 1268 1267
f 1267 1269 1265
f 1266 1272 1268
f 1270 1266 1269
f 1270 1272 1266
f 1268 1272 1267
f 1271 1269 1267
f 1267 1272 1271
f 1271 1270 1269
f 1272 1270 1271

o railing_R1_159
usemtl material_3
v 45.97700000 0.00000000 0.18000000
v 45.97700000 0.00000000 0.13000000
v 45.97700000 1.00000000 0.18000000
v 45.97700000 1.00000000 0.13000000
v 33.38200000 0.00000000 0.18000000
v 33.38200000 0.00000000 0.13000000
v 33.38200000 1.00000000 0.18000000
v 33.38200000 1.00000000 0.13000000
f 1274 1276 1273
f 1277 1274 1273
f 1273 1276 1275
f 1275 1277 1273
f 1274 1280 1276
f 1278 1274 1277
f 1278 1280 1274
f 1276 1280 1275
f 1279 1277 1275
f 1275 1280 1279
f 1279 1278 1277
f 1280 1278 1279

o floor_R1_balcony_160
usemtl material_4
v 33.15000000 0.00000000 6.64500000
v 33.15000000 0.00000000 4.63600000
v 46.36400000 0.00000000 6.64500000
v 45.97700000 0.00000000 0.15500000
v 46.78900000 0.00000000 1.70000000
v 46.78900000 0.00000000 6.25900000
v 33.38200000 0.00000000 0.15500000
v 32.80200000 0.00000000 0.77300000
v 32.80200000 0.00000000 4.55900000
f 1281 1283 1282
f 1283 1284 1282
f 1283 1285 1284
f 1283 1286 1285
f 1284 1287 1282
f 1287 1288 1282
f 1288 1289 1282

o floor_R2_storage_161
usemtl material_5
v 17.23200000 0.00000000 39.48600000
v 17.23200000 0.00000000 32.22300000
v 20.86400000 0.00000000 34.58000000
v 21.52000000 0.00000000 34.58000000
v 31.52700000 0.00000000 39.48600000
v 35.46800000 0.00000000 40.80000000
v 35.46800000 0.00000000 34.92700000
v 38.86800000 0.00000000 40.80000000
v 38.86800000 0.00000000 34.07700000
v 66.45500000 0.00000000 25.80900000
v 41.80500000 0.00000000 25.80900000
v 47.44500000 0.00000000 7.57300000
v 47.98600000 0.00000000 7.10900000
v 66.45500000 0.00000000 4.32700000
v 47.98600000 0.00000000 4.32700000
v 34.23200000 0.00000000 7.57300000
v 34.23200000 0.00000000 15.53200000
v 11.90000000 0.00000000 26.93000000
v 21.25000000 0.00000000 31.45000000
v 11.90000000 0.00000000 31.45000000
v 20.86400000 0.00000000 32.22300000
v 21.52000000 0.00000000 31.83600000
v 31.52700000 0.00000000 34.92700000
v 35.08200000 0.00000000 34.46400000
v 35.43000000 0.00000000 34.07700000
v 35.43000000 0.00000000 32.95700000
v 41.34100000 0.00000000 27.20000000
v 41.34100000 0.00000000 32.95700000
v 36.85900000 0.00000000 23.83900000
v 36.85900000 0.00000000 19.31800000
v 36.47300000 0.00000000 18.85500000
v 32.99500000 0.00000000 18.85500000
v 32.99500000 0.00000000 15.91800000
v 32.99500000 0.00000000 26.93000000
v 31.91400000 0.00000000 34.46400000
v 33.73000000 0.00000000 26.58200000
v 36.04800000 0.00000000 23.83900000
v 33.73000000 0.00000000 19.78200000
v 36.04800000 0.00000000 19.78200000
f 1290 1292 1291
f 1290 1293 1292
f 1290 1294 1293
f 1295 1297 1296
f 1297 1298 1296
f 1299 1301 1300
f 1299 1302 1301
f 1299 1303 1302
f 1303 1304 1302
f 1305 1306 1301
f 1307 1291 1308
f 1307 1309 1291
f 1291 1292 1310
f 1293 1312 1311
f 1293 1294 1312
f 1296 1314 1313
f 1296 1298 1314
f 1298 1316 1315
f 1298 1317 1316
f 1300 1318 1316
f 1300 1319 1318
f 1300 1301 1319
f 1301 1320 1319
f 1301 1306 1320
f 1306 1321 1320
f 1306 1322 1321
f 1308 1311 1323
f 1311 1324 1323
f 1311 1312 1324
f 1324 1315 1323
f 1324 1313 1315
f 1313 1314 1315
f 1315 1325 1323
f 1315 1316 1325
f 1316 1318 1325
f 1318 1326 1325
f 1327 1326 1328
f 1327 1325 1326

o floor_R3_bedroom_162
usemtl material_6
v 16.80700000 0.00000000 26.11800000
v 16.80700000 0.00000000 5.10000000
v 23.10500000 0.00000000 19.39500000
v 23.10500000 0.00000000 26.11800000
v 32.26100000 0.00000000 18.93200000
v 23.56800000 0.00000000 18.93200000
v 32.26100000 0.00000000 5.10000000
f 1329 1331 1330
f 1329 1332 1331
f 1333 1335 1334
f 1335 1330 1334
f 1330 1331 1334

o floor_R4_bedroom_163
usemtl material_6
v 1.39100000 0.00000000 22.02300000
v 1.39100000 0.00000000 9.73600000
v 9.11800000 0.00000000 22.02300000
v 9.42700000 0.00000000 26.11800000
v 9.42700000 0.00000000 22.40900000
v 15.99500000 0.00000000 26.11800000
v 15.99500000 0.00000000 9.73600000
f 1336 1338 1337
f 1339 1341 1340
f 1341 1342 1340
f 1342 1338 1340
f 1342 1337 1338

o floor_R5_storage_164
usemtl material_5
v 23.95500000 0.00000000 26.11800000
v 23.95500000 0.00000000 19.85900000
v 32.30000000 0.00000000 19.85900000
v 32.30000000 0.00000000 26.11800000
f 1343 1345 1344
f 1343 1346 1345

o floor_R6_storage_165
usemtl material_5
v 1.39100000 0.00000000 28.82300000
v 1.39100000 0.00000000 22.71800000
v 8.73200000 0.00000000 22.71800000
v 8.73200000 0.00000000 28.82300000
f 1347 1349 1348
f 1347 1350 1349

o floor_R7_bathroom_166
usemtl material_7
v 42.19100000 0.00000000 32.84100000
v 42.19100000 0.00000000 26.65900000
v 48.56600000 0.00000000 26.65900000
v 48.56600000 0.00000000 32.84100000
f 1351 1353 1352
f 1351 1354 1353

o floor_R8_bedroom_167
usemtl material_6
v 49.30000000 0.00000000 41.34100000
v 49.30000000 0.00000000 26.62000000
v 63.90500000 0.00000000 41.34100000
v 63.90500000 0.00000000 26.62000000
f 1355 1357 1356
f 1357 1358 1356

o floor_R9_bathroom_168
usemtl material_7
v 9.35000000 0.00000000 31.45000000
v 9.35000000 0.00000000 26.81400000
v 11.05000000 0.00000000 26.81400000
v 11.05000000 0.00000000 31.45000000
f 1359 1361 1360
f 1359 1362 1361

o floor_R10_bathroom_169
usemtl material_7
v 1.39100000 0.00000000 32.84100000
v 1.39100000 0.00000000 29.51800000
v 2.08600000 0.00000000 29.51800000
v 2.08600000 0.00000000 32.84100000
f 1363 1365 1364
f 1363 1366 1365

o floor_R11_bathroom_170
usemtl material_7
v 1.39100000 0.00000000 39.48600000
v 1.39100000 0.00000000 33.45900000
v 2.62700000 0.00000000 33.15000000
v 8.77000000 0.00000000 33.34300000
v 16.22700000 0.00000000 39.48600000
v 9.46600000 0.00000000 33.34300000
v 16.22700000 0.00000000 32.14500000
v 9.46600000 0.00000000 32.14500000
v 8.77000000 0.00000000 29.51800000
v 2.62700000 0.00000000 29.51800000
f 1367 1369 1368
f 1367 1370 1369
f 1367 1371 1370
f 1371 1372 1370
f 1371 1373 1372
f 1373 1374 1372
f 1375 1369 1370
f 1375 1376 1369

o floor_R12_bathroom_171
usemtl material_7
v 39.48600000 0.00000000 40.68400000
v 39.48600000 0.00000000 33.69100000
v 48.60500000 0.00000000 33.69100000
v 48.60500000 0.00000000 40.68400000
f 1377 1379 1378
f 1377 1380 1379

