# floorplan3d
mtllib Screenshot 2026-10-06 152627_3d.mtl

o wall_W1_0
usemtl material_0
v 0.12800000 0.00000000 0.00000000
v 0.12800000 0.00000000 0.25600000
v 0.12800000 2.75000000 0.00000000
v 0.12800000 2.75000000 0.25600000
v 0.36400000 0.00000000 0.00000000
v 0.36400000 0.00000000 0.25600000
v 0.36400000 2.75000000 0.00000000
v 0.36400000 2.75000000 0.25600000
f 2 4 1
f 5 2 1
f 1 4 3
f 3 5 1
f 2 8 4
f 6 2 5
f 6 8 2
f 4 8 3
f 7 5 3
f 3 8 7
f 7 6 5
f 8 6 7

o wall_W1_1
usemtl material_0
v 0.36400000 0.00000000 0.00000000
v 0.36400000 0.00000000 0.25600000
v 0.36400000 0.90000000 0.00000000
v 0.36400000 0.90000000 0.25600000
v 1.92700000 0.00000000 0.00000000
v 1.92700000 0.00000000 0.25600000
v 1.92700000 0.90000000 0.00000000
v 1.92700000 0.90000000 0.25600000
f 10 12 9
f 13 10 9
f 9 12 11
f 11 13 9
f 10 16 12
f 14 10 13
f 14 16 10
f 12 16 11
f 15 13 11
f 11 16 15
f 15 14 13
f 16 14 15

o wall_W1_2
usemtl material_0
v 0.36400000 2.10000000 0.00000000
v 0.36400000 2.10000000 0.25600000
v 0.36400000 2.75000000 0.00000000
v 0.36400000 2.75000000 0.25600000
v 1.92700000 2.10000000 0.00000000
v 1.92700000 2.10000000 0.25600000
v 1.92700000 2.75000000 0.00000000
v 1.92700000 2.75000000 0.25600000
f 18 20 17
f 21 18 17
f 17 20 19
f 19 21 17
f 18 24 20
f 22 18 21
f 22 24 18
f 20 24 19
f 23 21 19
f 19 24 23
f 23 22 21
f 24 22 23

o wall_W1_3
usemtl material_0
v 0.37400000 2.10000000 0.00000000
v 0.37400000 2.10000000 0.25600000
v 0.37400000 2.75000000 0.00000000
v 0.37400000 2.75000000 0.25600000
v 1.07200000 2.10000000 0.00000000
v 1.07200000 2.10000000 0.25600000
v 1.07200000 2.75000000 0.00000000
v 1.07200000 2.75000000 0.25600000
f 26 28 25
f 29 26 25
f 25 28 27
f 27 29 25
f 26 32 28
f 30 26 29
f 30 32 26
f 28 32 27
f 31 29 27
f 27 32 31
f 31 30 29
f 32 30 31

o wall_W1_4
usemtl material_0
v 1.20900000 2.10000000 0.00000000
v 1.20900000 2.10000000 0.25600000
v 1.20900000 2.75000000 0.00000000
v 1.20900000 2.75000000 0.25600000
v 1.54300000 2.10000000 0.00000000
v 1.54300000 2.10000000 0.25600000
v 1.54300000 2.75000000 0.00000000
v 1.54300000 2.75000000 0.25600000
f 34 36 33
f 37 34 33
f 33 36 35
f 35 37 33
f 34 40 36
f 38 34 37
f 38 40 34
f 36 40 35
f 39 37 35
f 35 40 39
f 39 38 37
f 40 38 39

o wall_W1_5
usemtl material_0
v 1.92700000 0.00000000 0.00000000
v 1.92700000 0.00000000 0.25600000
v 1.92700000 2.75000000 0.00000000
v 1.92700000 2.75000000 0.25600000
v 2.69400000 0.00000000 0.00000000
v 2.69400000 0.00000000 0.25600000
v 2.69400000 2.75000000 0.00000000
v 2.69400000 2.75000000 0.25600000
f 42 44 41
f 45 42 41
f 41 44 43
f 43 45 41
f 42 48 44
f 46 42 45
f 46 48 42
f 44 48 43
f 47 45 43
f 43 48 47
f 47 46 45
f 48 46 47

o wall_W1_6
usemtl material_0
v 2.69400000 2.10000000 0.00000000
v 2.69400000 2.10000000 0.25600000
v 2.69400000 2.75000000 0.00000000
v 2.69400000 2.75000000 0.25600000
v 3.21500000 2.10000000 0.00000000
v 3.21500000 2.10000000 0.25600000
v 3.21500000 2.75000000 0.00000000
v 3.21500000 2.75000000 0.25600000
f 50 52 49
f 53 50 49
f 49 52 51
f 51 53 49
f 50 56 52
f 54 50 53
f 54 56 50
f 52 56 51
f 55 53 51
f 51 56 55
f 55 54 53
f 56 54 55

o wall_W1_7
usemtl material_0
v 3.21500000 0.00000000 0.00000000
v 3.21500000 0.00000000 0.25600000
v 3.21500000 2.75000000 0.00000000
v 3.21500000 2.75000000 0.25600000
v 3.45600000 0.00000000 0.00000000
v 3.45600000 0.00000000 0.25600000
v 3.45600000 2.75000000 0.00000000
v 3.45600000 2.75000000 0.25600000
f 58 60 57
f 61 58 57
f 57 60 59
f 59 61 57
f 58 64 60
f 62 58 61
f 62 64 58
f 60 64 59
f 63 61 59
f 59 64 63
f 63 62 61
f 64 62 63

o wall_W2_8
usemtl material_0
v 0.12800000 0.00000000 3.03350000
v 0.12800000 0.00000000 3.18050000
v 0.12800000 2.75000000 3.03350000
v 0.12800000 2.75000000 3.18050000
v 0.57500000 0.00000000 3.03350000
v 0.57500000 0.00000000 3.18050000
v 0.57500000 2.75000000 3.03350000
v 0.57500000 2.75000000 3.18050000
f 66 68 65
f 69 66 65
f 65 68 67
f 67 69 65
f 66 72 68
f 70 66 69
f 70 72 66
f 68 72 67
f 71 69 67
f 67 72 71
f 71 70 69
f 72 70 71

o wall_W3_9
usemtl material_1
v 0.57500000 0.00000000 3.03350000
v 0.57500000 0.00000000 3.18050000
v 0.57500000 2.75000000 3.03350000
v 0.57500000 2.75000000 3.18050000
v 0.63900000 0.00000000 3.03350000
v 0.63900000 0.00000000 3.18050000
v 0.63900000 2.75000000 3.03350000
v 0.63900000 2.75000000 3.18050000
f 74 76 73
f 77 74 73
f 73 76 75
f 75 77 73
f 74 80 76
f 78 74 77
f 78 80 74
f 76 80 75
f 79 77 75
f 75 80 79
f 79 78 77
f 80 78 79

o wall_W3_10
usemtl material_1
v 0.63900000 0.00000000 3.03350000
v 0.63900000 0.00000000 3.18050000
v 0.63900000 0.90000000 3.03350000
v 0.63900000 0.90000000 3.18050000
v 1.35700000 0.00000000 3.03350000
v 1.35700000 0.00000000 3.18050000
v 1.35700000 0.90000000 3.03350000
v 1.35700000 0.90000000 3.18050000
f 82 84 81
f 85 82 81
f 81 84 83
f 83 85 81
f 82 88 84
f 86 82 85
f 86 88 82
f 84 88 83
f 87 85 83
f 83 88 87
f 87 86 85
f 88 86 87

o wall_W3_11
usemtl material_1
v 0.63900000 2.10000000 3.03350000
v 0.63900000 2.10000000 3.18050000
v 0.63900000 2.75000000 3.03350000
v 0.63900000 2.75000000 3.18050000
v 1.35700000 2.10000000 3.03350000
v 1.35700000 2.10000000 3.18050000
v 1.35700000 2.75000000 3.03350000
v 1.35700000 2.75000000 3.18050000
f 90 92 89
f 93 90 89
f 89 92 91
f 91 93 89
f 90 96 92
f 94 90 93
f 94 96 90
f 92 96 91
f 95 93 91
f 91 96 95
f 95 94 93
f 96 94 95

o wall_W3_12
usemtl material_1
v 1.35700000 0.00000000 3.03350000
v 1.35700000 0.00000000 3.18050000
v 1.35700000 2.75000000 3.03350000
v 1.35700000 2.75000000 3.18050000
v 1.38600000 0.00000000 3.03350000
v 1.38600000 0.00000000 3.18050000
v 1.38600000 2.75000000 3.03350000
v 1.38600000 2.75000000 3.18050000
f 98 100 97
f 101 98 97
f 97 100 99
f 99 101 97
f 98 104 100
f 102 98 101
f 102 104 98
f 100 104 99
f 103 101 99
f 99 104 103
f 103 102 101
f 104 102 103

o wall_W4_13
usemtl material_1
v 1.38600000 0.00000000 3.03350000
v 1.38600000 0.00000000 3.18050000
v 1.38600000 2.75000000 3.03350000
v 1.38600000 2.75000000 3.18050000
v 1.48500000 0.00000000 3.03350000
v 1.48500000 0.00000000 3.18050000
v 1.48500000 2.75000000 3.03350000
v 1.48500000 2.75000000 3.18050000
f 106 108 105
f 109 106 105
f 105 108 107
f 107 109 105
f 106 112 108
f 110 106 109
f 110 112 106
f 108 112 107
f 111 109 107
f 107 112 111
f 111 110 109
f 112 110 111

o wall_W4_14
usemtl material_1
v 1.48500000 0.00000000 3.03350000
v 1.48500000 0.00000000 3.18050000
v 1.48500000 0.90000000 3.03350000
v 1.48500000 0.90000000 3.18050000
v 2.09500000 0.00000000 3.03350000
v 2.09500000 0.00000000 3.18050000
v 2.09500000 0.90000000 3.03350000
v 2.09500000 0.90000000 3.18050000
f 114 116 113
f 117 114 113
f 113 116 115
f 115 117 113
f 114 120 116
f 118 114 117
f 118 120 114
f 116 120 115
f 119 117 115
f 115 120 119
f 119 118 117
f 120 118 119

o wall_W4_15
usemtl material_1
v 1.48500000 2.10000000 3.03350000
v 1.48500000 2.10000000 3.18050000
v 1.48500000 2.75000000 3.03350000
v 1.48500000 2.75000000 3.18050000
v 2.09500000 2.10000000 3.03350000
v 2.09500000 2.10000000 3.18050000
v 2.09500000 2.75000000 3.03350000
v 2.09500000 2.75000000 3.18050000
f 122 124 121
f 125 122 121
f 121 124 123
f 123 125 121
f 122 128 124
f 126 122 125
f 126 128 122
f 124 128 123
f 127 125 123
f 123 128 127
f 127 126 125
f 128 126 127

o wall_W4_16
usemtl material_1
v 2.09500000 0.00000000 3.03350000
v 2.09500000 0.00000000 3.18050000
v 2.09500000 2.75000000 3.03350000
v 2.09500000 2.75000000 3.18050000
v 2.17700000 0.00000000 3.03350000
v 2.17700000 0.00000000 3.18050000
v 2.17700000 2.75000000 3.03350000
v 2.17700000 2.75000000 3.18050000
f 130 132 129
f 133 130 129
f 129 132 131
f 131 133 129
f 130 136 132
f 134 130 133
f 134 136 130
f 132 136 131
f 135 133 131
f 131 136 135
f 135 134 133
f 136 134 135

o wall_W5_17
usemtl material_1
v 2.17800000 0.00000000 3.07750000
v 2.17800000 0.00000000 3.36250000
v 2.17800000 2.75000000 3.07750000
v 2.17800000 2.75000000 3.36250000
v 2.22200000 0.00000000 3.07750000
v 2.22200000 0.00000000 3.36250000
v 2.22200000 2.75000000 3.07750000
v 2.22200000 2.75000000 3.36250000
f 138 140 137
f 141 138 137
f 137 140 139
f 139 141 137
f 138 144 140
f 142 138 141
f 142 144 138
f 140 144 139
f 143 141 139
f 139 144 143
f 143 142 141
f 144 142 143

o wall_W5_18
usemtl material_1
v 2.22200000 0.00000000 3.07750000
v 2.22200000 0.00000000 3.36250000
v 2.22200000 0.90000000 3.07750000
v 2.22200000 0.90000000 3.36250000
v 2.70400000 0.00000000 3.07750000
v 2.70400000 0.00000000 3.36250000
v 2.70400000 0.90000000 3.07750000
v 2.70400000 0.90000000 3.36250000
f 146 148 145
f 149 146 145
f 145 148 147
f 147 149 145
f 146 152 148
f 150 146 149
f 150 152 146
f 148 152 147
f 151 149 147
f 147 152 151
f 151 150 149
f 152 150 151

o wall_W5_19
usemtl material_1
v 2.22200000 2.10000000 3.07750000
v 2.22200000 2.10000000 3.36250000
v 2.22200000 2.75000000 3.07750000
v 2.22200000 2.75000000 3.36250000
v 2.70400000 2.10000000 3.07750000
v 2.70400000 2.10000000 3.36250000
v 2.70400000 2.75000000 3.07750000
v 2.70400000 2.75000000 3.36250000
f 154 156 153
f 157 154 153
f 153 156 155
f 155 157 153
f 154 160 156
f 158 154 157
f 158 160 154
f 156 160 155
f 159 157 155
f 155 160 159
f 159 158 157
f 160 158 159

o wall_W5_20
usemtl material_1
v 2.70400000 0.00000000 3.07750000
v 2.70400000 0.00000000 3.36250000
v 2.70400000 2.75000000 3.07750000
v 2.70400000 2.75000000 3.36250000
v 3.45600000 0.00000000 3.07750000
v 3.45600000 0.00000000 3.36250000
v 3.45600000 2.75000000 3.07750000
v 3.45600000 2.75000000 3.36250000
f 162 164 161
f 165 162 161
f 161 164 163
f 163 165 161
f 162 168 164
f 166 162 165
f 166 168 162
f 164 168 163
f 167 165 163
f 163 168 167
f 167 166 165
f 168 166 167

o wall_W6_21
usemtl material_0
v 0.57500000 0.00000000 3.71200000
v 0.57500000 0.00000000 3.85000000
v 0.57500000 2.75000000 3.71200000
v 0.57500000 2.75000000 3.85000000
v 1.38600000 0.00000000 3.71200000
v 1.38600000 0.00000000 3.85000000
v 1.38600000 2.75000000 3.71200000
v 1.38600000 2.75000000 3.85000000
f 170 172 169
f 173 170 169
f 169 172 171
f 171 173 169
f 170 176 172
f 174 170 173
f 174 176 170
f 172 176 171
f 175 173 171
f 171 176 175
f 175 174 173
f 176 174 175

o wall_W7_22
usemtl material_0
v 2.90500000 0.00000000 4.28700000
v 2.90500000 0.00000000 4.41500000
v 2.90500000 2.75000000 4.28700000
v 2.90500000 2.75000000 4.41500000
v 3.45600000 0.00000000 4.28700000
v 3.45600000 0.00000000 4.41500000
v 3.45600000 2.75000000 4.28700000
v 3.45600000 2.75000000 4.41500000
f 178 180 177
f 181 178 177
f 177 180 179
f 179 181 177
f 178 184 180
f 182 178 181
f 182 184 178
f 180 184 179
f 183 181 179
f 179 184 183
f 183 182 181
f 184 182 183

o wall_W8_23
usemtl material_0
v 3.45600000 0.00000000 4.28700000
v 3.45600000 0.00000000 4.41500000
v 3.45600000 2.75000000 4.28700000
v 3.45600000 2.75000000 4.41500000
v 3.91300000 0.00000000 4.28700000
v 3.91300000 0.00000000 4.41500000
v 3.91300000 2.75000000 4.28700000
v 3.91300000 2.75000000 4.41500000
f 186 188 185
f 189 186 185
f 185 188 187
f 187 189 185
f 186 192 188
f 190 186 189
f 190 192 186
f 188 192 187
f 191 189 187
f 187 192 191
f 191 190 189
f 192 190 191

o wall_W9_24
usemtl material_0
v 1.38600000 0.00000000 4.31600000
v 1.38600000 0.00000000 4.42400000
v 1.38600000 2.75000000 4.31600000
v 1.38600000 2.75000000 4.42400000
v 1.98600000 0.00000000 4.31600000
v 1.98600000 0.00000000 4.42400000
v 1.98600000 2.75000000 4.31600000
v 1.98600000 2.75000000 4.42400000
f 194 196 193
f 197 194 193
f 193 196 195
f 195 197 193
f 194 200 196
f 198 194 197
f 198 200 194
f 196 200 195
f 199 197 195
f 195 200 199
f 199 198 197
f 200 198 199

o wall_W10_25
usemtl material_0
v 1.98600000 0.00000000 5.32950000
v 1.98600000 0.00000000 5.48650000
v 1.98600000 2.75000000 5.32950000
v 1.98600000 2.75000000 5.48650000
v 2.09400000 0.00000000 5.32950000
v 2.09400000 0.00000000 5.48650000
v 2.09400000 2.75000000 5.32950000
v 2.09400000 2.75000000 5.48650000
f 202 204 201
f 205 202 201
f 201 204 203
f 203 205 201
f 202 208 204
f 206 202 205
f 206 208 202
f 204 208 203
f 207 205 203
f 203 208 207
f 207 206 205
f 208 206 207

o wall_W10_26
usemtl material_0
v 2.09400000 0.00000000 5.32950000
v 2.09400000 0.00000000 5.48650000
v 2.09400000 0.90000000 5.32950000
v 2.09400000 0.90000000 5.48650000
v 2.61500000 0.00000000 5.32950000
v 2.61500000 0.00000000 5.48650000
v 2.61500000 0.90000000 5.32950000
v 2.61500000 0.90000000 5.48650000
f 210 212 209
f 213 210 209
f 209 212 211
f 211 213 209
f 210 216 212
f 214 210 213
f 214 216 210
f 212 216 211
f 215 213 211
f 211 216 215
f 215 214 213
f 216 214 215

o wall_W10_27
usemtl material_0
v 2.09400000 2.10000000 5.32950000
v 2.09400000 2.10000000 5.48650000
v 2.09400000 2.75000000 5.32950000
v 2.09400000 2.75000000 5.48650000
v 2.61500000 2.10000000 5.32950000
v 2.61500000 2.10000000 5.48650000
v 2.61500000 2.75000000 5.32950000
v 2.61500000 2.75000000 5.48650000
f 218 220 217
f 221 218 217
f 217 220 219
f 219 221 217
f 218 224 220
f 222 218 221
f 222 224 218
f 220 224 219
f 223 221 219
f 219 224 223
f 223 222 221
f 224 222 223

o wall_W10_28
usemtl material_0
v 2.61500000 0.00000000 5.32950000
v 2.61500000 0.00000000 5.48650000
v 2.61500000 2.75000000 5.32950000
v 2.61500000 2.75000000 5.48650000
v 2.90500000 0.00000000 5.32950000
v 2.90500000 0.00000000 5.48650000
v 2.90500000 2.75000000 5.32950000
v 2.90500000 2.75000000 5.48650000
f 226 228 225
f 229 226 225
f 225 228 227
f 227 229 225
f 226 232 228
f 230 226 229
f 230 232 226
f 228 232 227
f 231 229 227
f 227 232 231
f 231 230 229
f 232 230 231

o wall_W11_29
usemtl material_0
v 0.04950000 0.00000000 0.12800000
v 0.04950000 0.00000000 3.10700000
v 0.04950000 2.75000000 0.12800000
v 0.04950000 2.75000000 3.10700000
v 0.20650000 0.00000000 0.12800000
v 0.20650000 0.00000000 3.10700000
v 0.20650000 2.75000000 0.12800000
v 0.20650000 2.75000000 3.10700000
f 234 236 233
f 237 234 233
f 233 236 235
f 235 237 233
f 234 240 236
f 238 234 237
f 238 240 234
f 236 240 235
f 239 237 235
f 235 240 239
f 239 238 237
f 240 238 239

o wall_W12_30
usemtl material_0
v 0.49650000 0.00000000 3.10700000
v 0.49650000 0.00000000 3.78100000
v 0.49650000 2.75000000 3.10700000
v 0.49650000 2.75000000 3.78100000
v 0.65350000 0.00000000 3.10700000
v 0.65350000 0.00000000 3.78100000
v 0.65350000 2.75000000 3.10700000
v 0.65350000 2.75000000 3.78100000
f 242 244 241
f 245 242 241
f 241 244 243
f 243 245 241
f 242 248 244
f 246 242 245
f 246 248 242
f 244 248 243
f 247 245 243
f 243 248 247
f 247 246 245
f 248 246 247

o wall_W13_31
usemtl material_1
v 1.29750000 0.00000000 3.10700000
v 1.29750000 0.00000000 3.78100000
v 1.29750000 2.75000000 3.10700000
v 1.29750000 2.75000000 3.78100000
v 1.47450000 0.00000000 3.10700000
v 1.47450000 0.00000000 3.78100000
v 1.47450000 2.75000000 3.10700000
v 1.47450000 2.75000000 3.78100000
f 250 252 249
f 253 250 249
f 249 252 251
f 251 253 249
f 250 256 252
f 254 250 253
f 254 256 250
f 252 256 251
f 255 253 251
f 251 256 255
f 255 254 253
f 256 254 255

o wall_W14_32
usemtl material_0
v 1.29750000 0.00000000 3.78100000
v 1.29750000 0.00000000 4.37100000
v 1.29750000 2.75000000 3.78100000
v 1.29750000 2.75000000 4.37100000
v 1.47450000 0.00000000 3.78100000
v 1.47450000 0.00000000 4.37100000
v 1.47450000 2.75000000 3.78100000
v 1.47450000 2.75000000 4.37100000
f 258 260 257
f 261 258 257
f 257 260 259
f 259 261 257
f 258 264 260
f 262 258 261
f 262 264 258
f 260 264 259
f 263 261 259
f 259 264 263
f 263 262 261
f 264 262 263

o wall_W15_33
usemtl material_1
v 1.95650000 0.00000000 4.02100000
v 1.95650000 0.00000000 4.37000000
v 1.95650000 2.75000000 4.02100000
v 1.95650000 2.75000000 4.37000000
v 2.01550000 0.00000000 4.02100000
v 2.01550000 0.00000000 4.37000000
v 2.01550000 2.75000000 4.02100000
v 2.01550000 2.75000000 4.37000000
f 266 268 265
f 269 266 265
f 265 268 267
f 267 269 265
f 266 272 268
f 270 266 269
f 270 272 266
f 268 272 267
f 271 269 267
f 267 272 271
f 271 270 269
f 272 270 271

o wall_W16_34
usemtl material_1
v 1.95650000 0.00000000 4.37000000
v 1.95650000 0.00000000 5.40700000
v 1.95650000 2.75000000 4.37000000
v 1.95650000 2.75000000 5.40700000
v 2.01550000 0.00000000 4.37000000
v 2.01550000 0.00000000 5.40700000
v 2.01550000 2.75000000 4.37000000
v 2.01550000 2.75000000 5.40700000
f 274 276 273
f 277 274 273
f 273 276 275
f 275 277 273
f 274 280 276
f 278 274 277
f 278 280 274
f 276 280 275
f 279 277 275
f 275 280 279
f 279 278 277
f 280 278 279

o wall_W17_35
usemtl material_1
v 2.13400000 0.00000000 0.41300000
v 2.13400000 0.00000000 2.28100000
v 2.13400000 2.75000000 0.41300000
v 2.13400000 2.75000000 2.28100000
v 2.22200000 0.00000000 0.41300000
v 2.22200000 0.00000000 2.28100000
v 2.22200000 2.75000000 0.41300000
v 2.22200000 2.75000000 2.28100000
f 282 284 281
f 285 282 281
f 281 284 283
f 283 285 281
f 282 288 284
f 286 282 285
f 286 288 282
f 284 288 283
f 287 285 283
f 283 288 287
f 287 286 285
f 288 286 287

o wall_W17_36
usemtl material_1
v 2.13400000 0.00000000 2.28100000
v 2.13400000 0.00000000 2.68400000
v 2.13400000 0.90000000 2.28100000
v 2.13400000 0.90000000 2.68400000
v 2.22200000 0.00000000 2.28100000
v 2.22200000 0.00000000 2.68400000
v 2.22200000 0.90000000 2.28100000
v 2.22200000 0.90000000 2.68400000
f 290 292 289
f 293 290 289
f 289 292 291
f 291 293 289
f 290 296 292
f 294 290 293
f 294 296 290
f 292 296 291
f 295 293 291
f 291 296 295
f 295 294 293
f 296 294 295

o wall_W17_37
usemtl material_1
v 2.13400000 2.10000000 2.28100000
v 2.13400000 2.10000000 2.68400000
v 2.13400000 2.75000000 2.28100000
v 2.13400000 2.75000000 2.68400000
v 2.22200000 2.10000000 2.28100000
v 2.22200000 2.10000000 2.68400000
v 2.22200000 2.75000000 2.28100000
v 2.22200000 2.75000000 2.68400000
f 298 300 297
f 301 298 297
f 297 300 299
f 299 301 297
f 298 304 300
f 302 298 301
f 302 304 298
f 300 304 299
f 303 301 299
f 299 304 303
f 303 302 301
f 304 302 303

o wall_W17_38
usemtl material_1
v 2.13400000 0.00000000 2.68400000
v 2.13400000 0.00000000 3.10700000
v 2.13400000 2.75000000 2.68400000
v 2.13400000 2.75000000 3.10700000
v 2.22200000 0.00000000 2.68400000
v 2.22200000 0.00000000 3.10700000
v 2.22200000 2.75000000 2.68400000
v 2.22200000 2.75000000 3.10700000
f 306 308 305
f 309 306 305
f 305 308 307
f 307 309 305
f 306 312 308
f 310 306 309
f 310 312 306
f 308 312 307
f 311 309 307
f 307 312 311
f 311 310 309
f 312 310 311

o wall_W18_39
usemtl material_0
v 2.84600000 0.00000000 4.35100000
v 2.84600000 0.00000000 4.55200000
v 2.84600000 2.75000000 4.35100000
v 2.84600000 2.75000000 4.55200000
v 2.96400000 0.00000000 4.35100000
v 2.96400000 0.00000000 4.55200000
v 2.96400000 2.75000000 4.35100000
v 2.96400000 2.75000000 4.55200000
f 314 316 313
f 317 314 313
f 313 316 315
f 315 317 313
f 314 320 316
f 318 314 317
f 318 320 314
f 316 320 315
f 319 317 315
f 315 320 319
f 319 318 317
f 320 318 319

o wall_W18_40
usemtl material_0
v 2.84600000 0.00000000 4.55200000
v 2.84600000 0.00000000 5.04400000
v 2.84600000 0.90000000 4.55200000
v 2.84600000 0.90000000 5.04400000
v 2.96400000 0.00000000 4.55200000
v 2.96400000 0.00000000 5.04400000
v 2.96400000 0.90000000 4.55200000
v 2.96400000 0.90000000 5.04400000
f 322 324 321
f 325 322 321
f 321 324 323
f 323 325 321
f 322 328 324
f 326 322 325
f 326 328 322
f 324 328 323
f 327 325 323
f 323 328 327
f 327 326 325
f 328 326 327

o wall_W18_41
usemtl material_0
v 2.84600000 2.10000000 4.55200000
v 2.84600000 2.10000000 5.04400000
v 2.84600000 2.75000000 4.55200000
v 2.84600000 2.75000000 5.04400000
v 2.96400000 2.10000000 4.55200000
v 2.96400000 2.10000000 5.04400000
v 2.96400000 2.75000000 4.55200000
v 2.96400000 2.75000000 5.04400000
f 330 332 329
f 333 330 329
f 329 332 331
f 331 333 329
f 330 336 332
f 334 330 333
f 334 336 330
f 332 336 331
f 335 333 331
f 331 336 335
f 335 334 333
f 336 334 335

o wall_W18_42
usemtl material_0
v 2.84600000 0.00000000 5.04400000
v 2.84600000 0.00000000 5.40800000
v 2.84600000 2.75000000 5.04400000
v 2.84600000 2.75000000 5.40800000
v 2.96400000 0.00000000 5.04400000
v 2.96400000 0.00000000 5.40800000
v 2.96400000 2.75000000 5.04400000
v 2.96400000 2.75000000 5.40800000
f 338 340 337
f 341 338 337
f 337 340 339
f 339 341 337
f 338 344 340
f 342 338 341
f 342 344 338
f 340 344 339
f 343 341 339
f 339 344 343
f 343 342 341
f 344 342 343

o wall_W19_43
usemtl material_1
v 3.39200000 0.00000000 0.12800000
v 3.39200000 0.00000000 3.22000000
v 3.39200000 2.75000000 0.12800000
v 3.39200000 2.75000000 3.22000000
v 3.52000000 0.00000000 0.12800000
v 3.52000000 0.00000000 3.22000000
v 3.52000000 2.75000000 0.12800000
v 3.52000000 2.75000000 3.22000000
f 346 348 345
f 349 346 345
f 345 348 347
f 347 349 345
f 346 352 348
f 350 346 349
f 350 352 346
f 348 352 347
f 351 349 347
f 347 352 351
f 351 350 349
f 352 350 351

o wall_W20_44
usemtl material_1
v 3.39200000 0.00000000 3.22000000
v 3.39200000 0.00000000 4.35100000
v 3.39200000 2.75000000 3.22000000
v 3.39200000 2.75000000 4.35100000
v 3.52000000 0.00000000 3.22000000
v 3.52000000 0.00000000 4.35100000
v 3.52000000 2.75000000 3.22000000
v 3.52000000 2.75000000 4.35100000
f 354 356 353
f 357 354 353
f 353 356 355
f 355 357 353
f 354 360 356
f 358 354 357
f 358 360 354
f 356 360 355
f 359 357 355
f 355 360 359
f 359 358 357
f 360 358 359

o wall_W21_45
usemtl material_0
v 3.83950000 0.00000000 4.35100000
v 3.83950000 0.00000000 5.48700000
v 3.83950000 2.75000000 4.35100000
v 3.83950000 2.75000000 5.48700000
v 3.98650000 0.00000000 4.35100000
v 3.98650000 0.00000000 5.48700000
v 3.98650000 2.75000000 4.35100000
v 3.98650000 2.75000000 5.48700000
f 362 364 361
f 365 362 361
f 361 364 363
f 363 365 361
f 362 368 364
f 366 362 365
f 366 368 362
f 364 368 363
f 367 365 363
f 363 368 367
f 367 366 365
f 368 366 367

o window_N1_46
usemtl material_2
v 0.36350000 0.90000000 0.11800000
v 0.36350000 0.90000000 0.13800000
v 0.36350000 2.10000000 0.11800000
v 0.36350000 2.10000000 0.13800000
v 1.92650000 0.90000000 0.11800000
v 1.92650000 0.90000000 0.13800000
v 1.92650000 2.10000000 0.11800000
v 1.92650000 2.10000000 0.13800000
f 370 372 369
f 373 370 369
f 369 372 371
f 371 373 369
f 370 376 372
f 374 370 373
f 374 376 370
f 372 376 371
f 375 373 371
f 371 376 375
f 375 374 373
f 376 374 375

o window_N2_47
usemtl material_2
v 2.16800000 0.90000000 2.28150000
v 2.16800000 0.90000000 2.68450000
v 2.16800000 2.10000000 2.28150000
v 2.16800000 2.10000000 2.68450000
v 2.18800000 0.90000000 2.28150000
v 2.18800000 0.90000000 2.68450000
v 2.18800000 2.10000000 2.28150000
v 2.18800000 2.10000000 2.68450000
f 378 380 377
f 381 378 377
f 377 380 379
f 379 381 377
f 378 384 380
f 382 378 381
f 382 384 378
f 380 384 379
f 383 381 379
f 379 384 383
f 383 382 381
f 384 382 383

o window_N3_48
usemtl material_2
v 0.63900000 0.90000000 3.09700000
v 0.63900000 0.90000000 3.11700000
v 0.63900000 2.10000000 3.09700000
v 0.63900000 2.10000000 3.11700000
v 1.35700000 0.90000000 3.09700000
v 1.35700000 0.90000000 3.11700000
v 1.35700000 2.10000000 3.09700000
v 1.35700000 2.10000000 3.11700000
f 386 388 385
f 389 386 385
f 385 388 387
f 387 389 385
f 386 392 388
f 390 386 389
f 390 392 386
f 388 392 387
f 391 389 387
f 387 392 391
f 391 390 389
f 392 390 391

o window_N4_49
usemtl material_2
v 1.48400000 0.90000000 3.09700000
v 1.48400000 0.90000000 3.11700000
v 1.48400000 2.10000000 3.09700000
v 1.48400000 2.10000000 3.11700000
v 2.09400000 0.90000000 3.09700000
v 2.09400000 0.90000000 3.11700000
v 2.09400000 2.10000000 3.09700000
v 2.09400000 2.10000000 3.11700000
f 394 396 393
f 397 394 393
f 393 396 395
f 395 397 393
f 394 400 396
f 398 394 397
f 398 400 394
f 396 400 395
f 399 397 395
f 395 400 399
f 399 398 397
f 400 398 399

o window_N5_50
usemtl material_2
v 2.22200000 0.90000000 3.21000000
v 2.22200000 0.90000000 3.23000000
v 2.22200000 2.10000000 3.21000000
v 2.22200000 2.10000000 3.23000000
v 2.70400000 0.90000000 3.21000000
v 2.70400000 0.90000000 3.23000000
v 2.70400000 2.10000000 3.21000000
v 2.70400000 2.10000000 3.23000000
f 402 404 401
f 405 402 401
f 401 404 403
f 403 405 401
f 402 408 404
f 406 402 405
f 406 408 402
f 404 408 403
f 407 405 403
f 403 408 407
f 407 406 405
f 408 406 407

o window_N6_51
usemtl material_2
v 2.89500000 0.90000000 4.55200000
v 2.89500000 0.90000000 5.04400000
v 2.89500000 2.10000000 4.55200000
v 2.89500000 2.10000000 5.04400000
v 2.91500000 0.90000000 4.55200000
v 2.91500000 0.90000000 5.04400000
v 2.91500000 2.10000000 4.55200000
v 2.91500000 2.10000000 5.04400000
f 410 412 409
f 413 410 409
f 409 412 411
f 411 413 409
f 410 416 412
f 414 410 413
f 414 416 410
f 412 416 411
f 415 413 411
f 411 416 415
f 415 414 413
f 416 414 415

o window_N7_52
usemtl material_2
v 2.09450000 0.90000000 5.39800000
v 2.09450000 0.90000000 5.41800000
v 2.09450000 2.10000000 5.39800000
v 2.09450000 2.10000000 5.41800000
v 2.61550000 0.90000000 5.39800000
v 2.61550000 0.90000000 5.41800000
v 2.61550000 2.10000000 5.39800000
v 2.61550000 2.10000000 5.41800000
f 418 420 417
f 421 418 417
f 417 420 419
f 419 421 417
f 418 424 420
f 422 418 421
f 422 424 418
f 420 424 419
f 423 421 419
f 419 424 423
f 423 422 421
f 424 422 423

o floor_R1_bedroom_53
usemtl material_3
v 0.20600000 0.00000000 3.01900000
v 0.20600000 0.00000000 0.25600000
v 2.12400000 0.00000000 0.40800000
v 2.12400000 0.00000000 3.01900000
v 2.23700000 0.00000000 3.06800000
v 2.23700000 0.00000000 0.40800000
v 3.38200000 0.00000000 3.06800000
v 3.38200000 0.00000000 0.25600000
f 425 427 426
f 425 428 427
f 429 431 430
f 431 432 430
f 432 427 430
f 432 426 427

o floor_R2_bathroom_54
usemtl material_4
v 2.03500000 0.00000000 5.30900000
v 1.93700000 0.00000000 4.31600000
v 2.84200000 0.00000000 4.35600000
v 2.84200000 0.00000000 5.30900000
v 3.38200000 0.00000000 4.26700000
v 2.91000000 0.00000000 4.26700000
v 3.38200000 0.00000000 3.37700000
v 2.16800000 0.00000000 3.37700000
v 2.16800000 0.00000000 3.18600000
v 1.48500000 0.00000000 3.18600000
v 1.93700000 0.00000000 4.02600000
v 1.48500000 0.00000000 4.31600000
v 2.03500000 0.00000000 4.02600000
f 433 435 434
f 433 436 435
f 437 439 438
f 439 440 438
f 441 442 440
f 442 443 440
f 442 444 443
f 444 434 443
f 434 435 445
f 435 438 445
f 438 440 445
f 440 443 445

